# Blender v2.90.1 OBJ File: 'aquarium.blend'
# www.blender.org
o Cube
v 0.257143 -0.257143 -0.128571
v 0.252468 -0.257143 -0.126234
v -0.252468 -0.257143 0.126234
v -0.252468 -0.257143 -0.126234
v -0.252468 -0.252468 0.128571
v -0.252468 0.252468 0.128571
v 0.252468 0.252468 0.128571
v 0.252468 -0.252468 0.128571
v 0.252468 -0.252468 -0.128571
v -0.252468 -0.252468 -0.128571
v 0.252468 0.252468 -0.128571
v -0.252468 0.252468 -0.128571
v -0.257143 -0.252468 -0.126234
v -0.257143 -0.252468 0.126234
v -0.257143 0.252468 0.126234
v -0.257143 0.252468 -0.126234
v -0.257143 -0.233766 0.128571
v -0.257143 0.233766 0.128571
v -0.257143 0.233766 -0.128571
v -0.257143 -0.233766 -0.128571
v 0.257143 0.252468 -0.126234
v 0.257143 -0.252468 -0.126234
v 0.257143 0.252468 0.126234
v 0.257143 -0.252468 0.126234
v 0.257143 0.233766 0.128571
v 0.257143 -0.233766 0.128571
v 0.257143 0.233766 -0.128571
v 0.257143 -0.233766 -0.128571
v 0.233766 0.257143 -0.128571
v 0.257143 0.257143 -0.128571
v 0.252468 0.257143 0.126234
v -0.252468 0.257143 0.126234
v 0.252468 0.257143 -0.126234
v -0.252468 0.257143 -0.126234
v 0.233766 0.257143 0.128571
v -0.233766 0.257143 0.128571
v -0.233766 0.257143 -0.128571
v -0.257143 0.257143 0.116883
v -0.257143 0.257143 -0.116883
v -0.257143 0.257143 0.128571
v -0.257143 0.257143 -0.128571
v 0.257143 0.257143 -0.116883
v 0.257143 0.257143 0.116883
v 0.257143 0.257143 0.128571
v 0.233766 -0.257143 -0.128571
v -0.257143 -0.257143 0.116883
v -0.233766 -0.257143 0.128571
v -0.257143 -0.257143 0.128571
v 0.252468 -0.257143 0.126234
v 0.233766 -0.257143 0.128571
v -0.233766 -0.257143 -0.128571
v -0.257143 -0.257143 -0.116883
v -0.257143 -0.257143 -0.128571
v 0.257143 -0.257143 0.116883
v 0.257143 -0.257143 -0.116883
v 0.257143 -0.257143 0.128571
v 0.259986 -0.259986 -0.129993
v 0.259986 -0.236351 -0.129993
v -0.255259 -0.255259 0.129993
v -0.236351 -0.259986 0.129993
v 0.255259 -0.255259 -0.129993
v 0.259986 -0.259986 0.129993
v 0.259986 -0.236351 0.129993
v 0.255259 0.255259 -0.129993
v 0.259986 0.236351 -0.129993
v -0.259986 -0.236351 0.129993
v -0.259986 0.236351 -0.129993
v -0.259986 0.259986 -0.129993
v 0.259986 0.259986 -0.118175
v 0.259986 0.255259 -0.127629
v 0.255259 -0.255259 0.129993
v 0.236351 -0.259986 0.129993
v 0.259986 0.259986 -0.129993
v -0.259986 0.259986 -0.118175
v -0.259986 0.255259 -0.127629
v -0.259986 -0.259986 -0.118175
v -0.259986 -0.255259 -0.127629
v -0.255259 0.255259 0.129993
v 0.255259 0.255259 0.129993
v -0.259986 -0.236351 -0.129993
v -0.259986 -0.259986 -0.129993
v -0.236351 -0.259986 -0.129993
v -0.255259 -0.255259 -0.129993
v -0.259986 0.259986 0.118175
v -0.259986 0.255259 0.127629
v 0.236351 0.259986 0.129993
v -0.255259 0.255259 -0.129993
v 0.236351 0.259986 -0.129993
v -0.236351 0.259986 -0.129993
v 0.236351 -0.259986 -0.129993
v 0.259986 -0.259986 -0.118175
v 0.259986 -0.255259 -0.127629
v -0.259986 -0.255259 0.127629
v -0.259986 0.236351 0.129993
v 0.259986 -0.255259 0.127629
v 0.259986 -0.259986 0.118175
v 0.259986 0.259986 0.129993
v 0.259986 0.236351 0.129993
v 0.259986 0.255259 0.127629
v 0.259986 0.259986 0.118175
v -0.259986 0.259986 0.129993
v -0.259986 -0.259986 0.129993
v -0.236351 0.259986 0.129993
v -0.259986 -0.259986 0.118175
v 0.255259 0.259986 0.127629
v -0.255259 0.259986 0.127629
v 0.255259 0.259986 -0.127629
v -0.255259 0.259986 -0.127629
v -0.255259 -0.259986 -0.127629
v -0.255259 -0.259986 0.127629
v 0.255259 -0.259986 -0.127629
v 0.255259 -0.259986 0.127629
vt 0.625000 0.500000
vt 0.625000 0.500000
vt 0.625000 0.500000
vt 0.375000 0.750000
vt 0.375000 1.000000
vt 0.375000 0.750000
vt 0.375000 0.750000
vt 0.375000 0.750000
vt 0.375000 0.750000
vt 0.375000 0.000000
vt 0.375000 0.250000
vt 0.375000 0.000000
vt 0.375000 0.250000
vt 0.375000 0.250000
vt 0.375000 0.250000
vt 0.625000 0.500000
vt 0.625000 0.250000
vt 0.625000 0.000000
vt 0.625000 0.250000
vt 0.625000 1.000000
vt 0.625000 0.750000
vt 0.625000 1.000000
vt 0.625000 0.250000
vt 0.625000 0.250000
vt 0.375000 0.500000
vt 0.375000 0.500000
vt 0.625000 0.000000
vt 0.625000 0.000000
vt 0.625000 0.750000
vt 0.625000 0.750000
vt 0.375000 0.250000
vt 0.625000 0.500000
vt 0.375000 1.000000
vt 0.625000 0.750000
vt 0.375000 0.500000
vt 0.375000 0.500000
vt 0.625000 1.000000
vt 0.625000 1.000000
vt 0.375000 0.000000
vt 0.375000 0.000000
vt 0.875000 0.500000
vt 0.625000 0.500000
vt 0.875000 0.500000
vt 0.625000 0.750000
vt 0.875000 0.750000
vt 0.625000 0.750000
vt 0.875000 0.750000
vt 0.875000 0.750000
vt 0.875000 0.750000
vt 0.875000 0.500000
vt 0.625000 0.500000
vt 0.625000 0.250000
vt 0.625000 0.750000
vt 0.125000 0.750000
vt 0.375000 0.750000
vt 0.125000 0.750000
vt 0.125000 0.500000
vt 0.125000 0.500000
vt 0.375000 0.500000
vt 0.375000 0.500000
vt 0.375000 0.500000
vt 0.125000 0.750000
vt 0.125000 0.500000
vt 0.125000 0.500000
vt 0.375000 0.750000
vt 0.375000 1.000000
vt 0.625000 0.500000
vt 0.625000 0.500000
vt 0.625000 0.500000
vt 0.375000 1.000000
vt 0.375000 0.750000
vt 0.375000 0.750000
vt 0.375000 0.750000
vt 0.375000 0.750000
vt 0.375000 0.750000
vt 0.375000 0.250000
vt 0.375000 0.000000
vt 0.375000 0.000000
vt 0.375000 0.250000
vt 0.375000 0.250000
vt 0.375000 0.250000
vt 0.625000 0.500000
vt 0.625000 0.500000
vt 0.625000 0.000000
vt 0.625000 0.250000
vt 0.625000 0.250000
vt 0.625000 0.750000
vt 0.625000 1.000000
vt 0.625000 1.000000
vt 0.625000 0.250000
vt 0.625000 0.250000
vt 0.375000 0.500000
vt 0.375000 0.500000
vt 0.375000 0.750000
vt 0.375000 0.250000
vt 0.625000 0.000000
vt 0.625000 0.000000
vt 0.625000 0.000000
vt 0.625000 0.750000
vt 0.625000 0.750000
vt 0.375000 0.250000
vt 0.625000 0.500000
vt 0.375000 1.000000
vt 0.625000 0.750000
vt 0.375000 0.500000
vt 0.625000 0.750000
vt 0.375000 0.500000
vt 0.625000 1.000000
vt 0.625000 1.000000
vt 0.375000 0.000000
vt 0.375000 0.000000
vt 0.625000 0.500000
vt 0.875000 0.500000
vt 0.875000 0.500000
vt 0.875000 0.750000
vt 0.625000 0.750000
vt 0.625000 0.750000
vt 0.875000 0.750000
vt 0.875000 0.750000
vt 0.875000 0.750000
vt 0.875000 0.500000
vt 0.875000 0.500000
vt 0.625000 0.250000
vt 0.625000 0.250000
vt 0.375000 0.750000
vt 0.125000 0.750000
vt 0.125000 0.750000
vt 0.125000 0.500000
vt 0.125000 0.500000
vt 0.375000 0.500000
vt 0.375000 0.500000
vt 0.125000 0.750000
vt 0.125000 0.750000
vt 0.375000 0.500000
vt 0.125000 0.500000
vt 0.125000 0.500000
vt 0.375000 1.000000
vt 0.375000 1.000000
vt 0.375000 1.000000
vt 0.375000 0.250000
vt 0.625000 0.000000
vt 0.625000 0.250000
vt 0.875000 0.500000
vt 0.125000 0.750000
vn -1.0000 0.0000 0.0000
vn 0.0000 0.0000 -1.0000
vn 1.0000 0.0000 0.0000
vn -0.0000 0.0000 1.0000
vn 0.0000 -1.0000 0.0000
vn 0.0000 1.0000 0.0000
vn 0.7136 0.7006 0.0000
vn 0.4538 0.0000 0.8911
vn 0.0000 0.4407 0.8977
vn 0.0000 0.4538 -0.8911
vn -0.4538 0.0000 0.8911
vn -0.7006 0.7136 0.0000
vn -0.4538 0.0000 -0.8911
vn 0.0000 -0.4538 0.8911
vn -0.4407 0.0000 -0.8977
vn 0.4407 0.0000 0.8977
vn 0.4538 0.0000 -0.8911
vn 0.0000 -0.4407 -0.8977
vn 0.0000 0.4538 0.8911
vn -0.4407 0.0000 0.8977
vn 0.4407 0.0000 -0.8977
vn 0.0000 -0.4538 -0.8911
vn -0.7136 -0.7006 0.0000
vn -0.7006 -0.7136 0.0000
vn 0.7006 -0.7136 0.0000
vn 0.0000 0.4407 -0.8977
vn 0.7136 -0.7006 0.0000
vn 0.7006 0.7136 0.0000
vn -0.7136 0.7006 0.0000
vn 0.0000 -0.4407 0.8977
s off
f 21/1/1 30/2/1 27/3/1
f 50/4/2 5/5/2 8/6/2
f 24/7/1 56/8/1 26/9/1
f 46/10/3 13/11/3 14/12/3
f 53/13/4 10/14/4 20/15/4
f 30/2/4 11/16/4 27/3/4
f 39/17/3 15/18/3 16/19/3
f 36/20/2 7/21/2 6/22/2
f 19/23/4 10/14/4 12/24/4
f 28/25/4 11/16/4 9/26/4
f 56/8/2 8/6/2 26/9/2
f 13/11/3 53/13/3 20/15/3
f 18/27/3 14/12/3 15/18/3
f 20/15/3 16/19/3 13/11/3
f 15/18/3 40/28/3 18/27/3
f 7/21/2 44/29/2 25/30/2
f 51/31/4 9/26/4 10/14/4
f 29/32/4 12/24/4 11/16/4
f 17/33/2 6/22/2 5/5/2
f 26/9/1 23/34/1 24/7/1
f 27/3/1 22/35/1 21/1/1
f 44/29/1 23/34/1 25/30/1
f 25/30/2 8/6/2 7/21/2
f 55/36/1 24/7/1 22/35/1
f 40/37/2 6/22/2 18/38/2
f 48/39/3 14/12/3 17/40/3
f 37/41/5 33/42/5 34/43/5
f 35/44/5 32/45/5 31/46/5
f 31/46/5 44/29/5 35/44/5
f 38/47/5 34/43/5 32/45/5
f 40/48/5 32/45/5 36/49/5
f 34/43/5 41/50/5 37/41/5
f 30/2/5 33/42/5 29/32/5
f 42/51/5 31/46/5 33/42/5
f 12/24/4 41/52/4 19/23/4
f 43/53/1 21/1/1 23/34/1
f 41/52/3 16/19/3 19/23/3
f 47/54/6 49/55/6 3/56/6
f 52/57/6 3/56/6 4/58/6
f 2/59/6 1/60/6 45/61/6
f 3/56/6 48/62/6 47/54/6
f 45/61/6 4/58/6 2/59/6
f 53/63/6 4/58/6 51/64/6
f 54/65/6 2/59/6 49/55/6
f 56/8/6 49/55/6 50/4/6
f 5/5/2 48/66/2 17/33/2
f 1/60/1 22/35/1 28/25/1
f 9/26/4 1/60/4 28/25/4
f 70/67/3 73/68/3 69/69/3
f 59/70/4 72/71/4 71/72/4
f 95/73/3 62/74/3 96/75/3
f 77/76/1 104/77/1 93/78/1
f 83/79/2 81/80/2 80/81/2
f 64/82/2 73/68/2 65/83/2
f 85/84/1 74/85/1 75/86/1
f 79/87/4 103/88/4 78/89/4
f 83/79/2 67/90/2 87/91/2
f 64/82/2 58/92/2 61/93/2
f 71/72/4 62/74/4 63/94/4
f 77/76/1 81/80/1 76/95/1
f 93/78/1 94/96/1 85/84/1
f 75/86/1 80/81/1 77/76/1
f 85/84/1 101/97/1 84/98/1
f 79/87/4 97/99/4 86/100/4
f 61/93/2 82/101/2 83/79/2
f 87/91/2 88/102/2 64/82/2
f 78/89/4 66/103/4 59/70/4
f 99/104/3 63/94/3 95/73/3
f 92/105/3 65/83/3 70/67/3
f 99/104/3 97/99/3 98/106/3
f 71/72/4 98/106/4 79/87/4
f 95/73/3 91/107/3 92/105/3
f 78/89/4 101/108/4 94/109/4
f 93/78/1 102/110/1 66/111/1
f 107/112/6 89/113/6 108/114/6
f 106/115/6 86/100/6 105/116/6
f 105/116/6 97/99/6 100/117/6
f 108/114/6 84/118/6 106/115/6
f 106/115/6 101/119/6 103/120/6
f 108/114/6 68/121/6 74/122/6
f 107/112/6 73/68/6 88/102/6
f 105/116/6 69/69/6 107/112/6
f 87/91/2 68/123/2 89/124/2
f 70/67/3 100/117/3 99/104/3
f 75/86/1 68/123/1 67/90/1
f 112/125/5 60/126/5 110/127/5
f 110/127/5 76/128/5 109/129/5
f 111/130/5 57/131/5 91/107/5
f 110/127/5 102/132/5 104/133/5
f 109/129/5 90/134/5 111/130/5
f 109/129/5 81/135/5 82/136/5
f 111/130/5 96/75/5 112/125/5
f 112/125/5 62/74/5 72/71/5
f 59/70/4 102/137/4 60/138/4
f 92/105/3 57/131/3 58/92/3
f 61/93/2 57/131/2 90/134/2
f 34/43/7 106/115/7 32/45/7
f 6/22/8 59/70/8 5/5/8
f 33/42/9 108/114/9 34/43/9
f 9/26/10 83/79/10 10/14/10
f 8/6/11 79/87/11 7/21/11
f 13/11/12 93/78/12 14/12/12
f 11/16/13 61/93/13 9/26/13
f 7/21/14 78/89/14 6/22/14
f 14/12/15 85/84/15 15/18/15
f 22/35/16 70/67/16 21/1/16
f 10/14/17 87/91/17 12/24/17
f 49/55/18 110/127/18 3/56/18
f 5/5/19 71/72/19 8/6/19
f 16/19/20 77/76/20 13/11/20
f 23/34/21 95/73/21 24/7/21
f 12/24/22 64/82/22 11/16/22
f 2/59/23 112/125/23 49/55/23
f 15/18/24 75/86/24 16/19/24
f 21/1/25 99/104/25 23/34/25
f 32/45/26 105/116/26 31/46/26
f 3/56/27 109/129/27 4/58/27
f 24/7/28 92/105/28 22/35/28
f 31/46/29 107/112/29 33/42/29
f 4/58/30 111/130/30 2/59/30
f 21/1/1 42/51/1 30/2/1
f 50/4/2 47/139/2 5/5/2
f 24/7/1 54/65/1 56/8/1
f 46/10/3 52/140/3 13/11/3
f 53/13/4 51/31/4 10/14/4
f 30/2/4 29/32/4 11/16/4
f 39/17/3 38/141/3 15/18/3
f 36/20/2 35/44/2 7/21/2
f 19/23/4 20/15/4 10/14/4
f 28/25/4 27/3/4 11/16/4
f 56/8/2 50/4/2 8/6/2
f 13/11/3 52/140/3 53/13/3
f 18/27/3 17/40/3 14/12/3
f 20/15/3 19/23/3 16/19/3
f 15/18/3 38/141/3 40/28/3
f 7/21/2 35/44/2 44/29/2
f 51/31/4 45/61/4 9/26/4
f 29/32/4 37/142/4 12/24/4
f 17/33/2 18/38/2 6/22/2
f 26/9/1 25/30/1 23/34/1
f 27/3/1 28/25/1 22/35/1
f 44/29/1 43/53/1 23/34/1
f 25/30/2 26/9/2 8/6/2
f 55/36/1 54/65/1 24/7/1
f 40/37/2 36/20/2 6/22/2
f 48/39/3 46/10/3 14/12/3
f 37/41/5 29/32/5 33/42/5
f 35/44/5 36/49/5 32/45/5
f 31/46/5 43/53/5 44/29/5
f 38/47/5 39/143/5 34/43/5
f 40/48/5 38/47/5 32/45/5
f 34/43/5 39/143/5 41/50/5
f 30/2/5 42/51/5 33/42/5
f 42/51/5 43/53/5 31/46/5
f 12/24/4 37/142/4 41/52/4
f 43/53/1 42/51/1 21/1/1
f 41/52/3 39/17/3 16/19/3
f 47/54/6 50/4/6 49/55/6
f 52/57/6 46/144/6 3/56/6
f 2/59/6 55/36/6 1/60/6
f 3/56/6 46/144/6 48/62/6
f 45/61/6 51/64/6 4/58/6
f 53/63/6 52/57/6 4/58/6
f 54/65/6 55/36/6 2/59/6
f 56/8/6 54/65/6 49/55/6
f 5/5/2 47/139/2 48/66/2
f 1/60/1 55/36/1 22/35/1
f 9/26/4 45/61/4 1/60/4
f 70/67/3 65/83/3 73/68/3
f 59/70/4 60/138/4 72/71/4
f 95/73/3 63/94/3 62/74/3
f 77/76/1 76/95/1 104/77/1
f 83/79/2 82/101/2 81/80/2
f 64/82/2 88/102/2 73/68/2
f 85/84/1 84/98/1 74/85/1
f 79/87/4 86/100/4 103/88/4
f 83/79/2 80/81/2 67/90/2
f 64/82/2 65/83/2 58/92/2
f 71/72/4 72/71/4 62/74/4
f 77/76/1 80/81/1 81/80/1
f 93/78/1 66/111/1 94/96/1
f 75/86/1 67/90/1 80/81/1
f 85/84/1 94/96/1 101/97/1
f 79/87/4 98/106/4 97/99/4
f 61/93/2 90/134/2 82/101/2
f 87/91/2 89/124/2 88/102/2
f 78/89/4 94/109/4 66/103/4
f 99/104/3 98/106/3 63/94/3
f 92/105/3 58/92/3 65/83/3
f 99/104/3 100/117/3 97/99/3
f 71/72/4 63/94/4 98/106/4
f 95/73/3 96/75/3 91/107/3
f 78/89/4 103/88/4 101/108/4
f 93/78/1 104/77/1 102/110/1
f 107/112/6 88/102/6 89/113/6
f 106/115/6 103/120/6 86/100/6
f 105/116/6 86/100/6 97/99/6
f 108/114/6 74/122/6 84/118/6
f 106/115/6 84/118/6 101/119/6
f 108/114/6 89/113/6 68/121/6
f 107/112/6 69/69/6 73/68/6
f 105/116/6 100/117/6 69/69/6
f 87/91/2 67/90/2 68/123/2
f 70/67/3 69/69/3 100/117/3
f 75/86/1 74/85/1 68/123/1
f 112/125/5 72/71/5 60/126/5
f 110/127/5 104/133/5 76/128/5
f 111/130/5 90/134/5 57/131/5
f 110/127/5 60/126/5 102/132/5
f 109/129/5 82/136/5 90/134/5
f 109/129/5 76/128/5 81/135/5
f 111/130/5 91/107/5 96/75/5
f 112/125/5 96/75/5 62/74/5
f 59/70/4 66/103/4 102/137/4
f 92/105/3 91/107/3 57/131/3
f 61/93/2 58/92/2 57/131/2
f 34/43/7 108/114/7 106/115/7
f 6/22/8 78/89/8 59/70/8
f 33/42/9 107/112/9 108/114/9
f 9/26/10 61/93/10 83/79/10
f 8/6/11 71/72/11 79/87/11
f 13/11/12 77/76/12 93/78/12
f 11/16/13 64/82/13 61/93/13
f 7/21/14 79/87/14 78/89/14
f 14/12/15 93/78/15 85/84/15
f 22/35/16 92/105/16 70/67/16
f 10/14/17 83/79/17 87/91/17
f 49/55/18 112/125/18 110/127/18
f 5/5/19 59/70/19 71/72/19
f 16/19/20 75/86/20 77/76/20
f 23/34/21 99/104/21 95/73/21
f 12/24/22 87/91/22 64/82/22
f 2/59/23 111/130/23 112/125/23
f 15/18/24 85/84/24 75/86/24
f 21/1/25 70/67/25 99/104/25
f 32/45/26 106/115/26 105/116/26
f 3/56/27 110/127/27 109/129/27
f 24/7/28 95/73/28 92/105/28
f 31/46/29 105/116/29 107/112/29
f 4/58/30 109/129/30 111/130/30
