# Blender v2.91.0 OBJ File: 'bigfish2.blend'
# www.blender.org
o Sphere
v -13.884630 -26.666611 -0.491770
v 31.985836 5.051992 12.541680
v 16.402534 9.957254 9.228931
v 9.488637 -12.992830 12.545287
v -6.228775 -24.159475 7.183223
v -16.252733 -22.019911 11.738997
v -5.498112 8.950882 16.604235
v -30.336226 -16.904507 8.080917
v -38.099075 -7.348364 -0.821482
v -27.886770 -3.170067 -16.218824
v -16.175665 1.089628 -15.177574
v -7.020609 19.291534 -2.181808
v -1.627594 16.939255 -8.636699
v -4.666040 10.923786 -15.226620
v 50.204781 9.526590 32.118565
v 34.575115 -6.404552 15.001343
v 20.245142 -15.295250 0.977791
v 30.237013 -1.852067 12.996407
v -0.779316 23.112192 2.172336
v 7.088284 0.404788 16.042419
v -6.574591 16.787127 7.980360
v -9.351284 -4.168838 19.904892
v -10.126574 20.830944 3.895066
v -11.403334 -9.807458 20.007229
v -15.323660 14.698460 1.872878
v -15.738852 6.795723 12.252794
v -7.421749 6.640700 4.614920
v -22.223757 -3.597349 14.307652
v -6.981062 0.836058 -6.233946
v -27.101828 -16.252546 -14.488713
v -22.803984 -7.614863 -7.493870
v -14.630270 -26.023827 -7.847997
v -5.708199 0.259475 -18.911589
v -9.983629 -11.288553 -20.680029
v -6.842598 -21.925653 -13.158442
v 1.475397 -25.068605 -2.250931
v 18.191757 -12.427321 -7.746111
v 55.709450 -17.514835 26.635077
v 26.751989 1.738848 -1.357353
v 34.642265 -18.971109 12.613533
vt 0.345662 0.600626
vt 0.385899 0.507030
vt 0.339167 0.528492
vt 0.807643 0.265567
vt 0.729088 0.311167
vt 0.813374 0.305623
vt 0.841139 0.326526
vt 0.841739 0.399741
vt 0.751932 0.253331
vt 0.779672 0.385021
vt 0.135811 0.874067
vt 0.104457 0.782478
vt 0.097001 0.816385
vt 0.075752 0.874067
vt 0.782272 0.467966
vt 0.683178 0.276249
vt 0.693877 0.351919
vt 0.702380 0.385803
vt 0.746279 0.464772
vt 0.841739 0.369112
vt 0.877646 0.316256
vt 0.847875 0.318653
vt 0.798032 0.495589
vt 1.000000 0.957405
vt 0.942815 0.952490
vt 0.919977 0.983976
vt 0.889729 0.976323
vt 0.911461 0.507155
vt 0.880187 0.543748
vt 0.964581 0.541762
vt 0.665321 0.206232
vt 0.697347 0.206232
vt 0.679816 0.170443
vt 0.882855 0.894982
vt 0.869282 0.624106
vt 0.837867 0.908843
vt 0.830476 0.826960
vt 0.920941 0.665018
vt 0.828750 0.495589
vt 0.813620 0.531973
vt 0.852785 0.528601
vt 0.214616 0.522456
vt 0.190083 0.558302
vt 0.214616 0.612431
vt 0.956894 0.856919
vt 0.922145 0.757865
vt 1.000000 0.767674
vt 0.890822 0.690157
vt 0.859902 0.665616
vt 0.835993 0.688349
vt 0.805999 0.628715
vt 0.293017 0.508662
vt 0.268164 0.547175
vt 0.676583 0.043233
vt 0.774782 0.061629
vt 0.710147 0.000000
vt 0.665321 0.137759
vt 0.798321 0.128068
vt 0.671067 0.093631
vt 0.296231 0.619768
vt 0.075752 0.782478
vt 0.000000 0.838275
vt 0.075752 0.895503
vt 0.316094 0.693605
vt 0.391751 0.661500
vt 0.335612 0.495589
vt 0.841739 0.212491
vt 0.872761 0.450867
vt 0.872761 0.378728
vt 0.841739 0.416361
vt 0.188286 0.876956
vt 0.188286 0.782478
vt 0.135811 0.840661
vt 0.669401 0.170443
vt 0.762008 0.170443
vt 0.395334 0.670281
vt 0.417363 0.578903
vt 0.872847 0.000000
vt 0.864982 0.068315
vt 0.890898 0.068315
vt 0.994758 0.983053
vt 0.877646 0.378728
vt 0.864982 0.000000
vt 0.798321 0.049502
vt 0.858498 0.045372
vt 0.964581 0.632601
vt 0.802879 0.496146
vt 0.847029 0.783245
vt 0.864982 0.126262
vt 0.837047 0.175338
vt 0.939758 0.734412
vt 0.878515 0.742686
vt 0.873751 0.755612
vt 0.235425 0.545114
vt 0.215822 0.602885
vt 0.797529 0.573546
vt 0.222865 0.659374
vt 0.390137 0.653007
vt 0.875270 0.316256
vt 0.875270 0.212491
vt 0.841739 0.266662
vt 0.417363 0.764949
vt 0.390951 0.603189
vn 0.2659 -0.9613 0.0720
vn 0.1950 -0.8286 0.5247
vn 0.3693 -0.9234 -0.1041
vn -0.1284 0.9142 0.3844
vn 0.1019 0.1673 0.9806
vn -0.3191 -0.1792 0.9306
vn 0.3956 -0.3036 0.8668
vn 0.0170 0.4941 0.8692
vn 0.1706 -0.5420 0.8228
vn -0.5085 0.8075 0.2987
vn -0.1239 0.7265 0.6759
vn -0.0390 0.4884 0.8717
vn -0.0660 0.1596 0.9850
vn -0.0396 -0.2677 0.9626
vn -0.1749 -0.7482 0.6399
vn -0.8661 0.4546 0.2076
vn -0.2073 -0.9751 0.0788
vn -0.6556 0.4938 0.5712
vn -0.9326 -0.1617 -0.3228
vn -0.9639 0.2656 0.0167
vn -0.7058 -0.5258 0.4747
vn -0.9212 0.2193 0.3213
vn -0.2143 0.9552 0.2041
vn -0.2460 0.8230 -0.5120
vn -0.9436 0.3303 0.0214
vn -0.5842 0.6374 -0.5024
vn -0.5635 -0.5425 -0.6230
vn -0.5630 0.7844 -0.2602
vn 0.1553 0.2095 -0.9654
vn -0.0403 0.5744 -0.8175
vn -0.2355 -0.9132 -0.3325
vn 0.1761 -0.7096 -0.6821
vn 0.7074 0.2892 -0.6449
vn 0.1786 0.8525 -0.4913
vn 0.5400 -0.3909 -0.7453
vn 0.8081 -0.1757 0.5622
vn 0.6202 0.3332 0.7101
vn -0.1256 -0.9908 0.0500
vn 0.2986 0.9523 -0.0623
vn 0.0687 -0.2118 -0.9749
s 1
f 17/1/1 5/2/2 36/3/3
f 2/4/4 20/5/5 18/6/6
f 16/7/7 18/6/6 17/8/1
f 3/9/8 20/5/5 2/4/4
f 18/6/6 20/5/5 4/10/9
f 3/11/8 23/12/10 21/13/11
f 3/11/8 21/13/11 7/14/12
f 4/10/9 20/5/5 5/15/2
f 3/9/8 7/16/12 22/17/13
f 20/5/5 22/17/13 24/18/14
f 24/18/14 6/19/15 5/15/2
f 21/20/11 26/21/16 7/22/12
f 5/15/2 6/19/15 1/23/17
f 26/24/16 28/25/18 22/26/13
f 24/27/14 22/26/13 28/25/18
f 26/28/16 27/29/19 28/30/18
f 23/31/10 25/32/20 21/33/11
f 24/27/14 28/25/18 8/34/21
f 27/29/19 29/35/22 28/30/18
f 6/36/15 8/34/21 1/37/17
f 28/30/18 29/35/22 31/38/23
f 23/39/10 12/40/24 25/41/20
f 9/42/25 31/43/23 10/44/26
f 8/34/21 9/45/25 30/46/27
f 9/45/25 10/47/26 30/46/27
f 10/48/26 11/49/28 33/50/29
f 25/41/20 14/51/30 11/49/28
f 11/49/28 14/51/30 33/50/29
f 32/52/31 35/53/32 36/3/3
f 14/54/30 39/55/33 33/56/29
f 12/57/24 2/58/4 13/59/34
f 17/1/1 35/53/32 37/60/35
f 17/1/1 36/3/3 35/53/32
f 37/61/35 16/62/7 38/63/36
f 37/60/35 39/64/33 16/65/7
f 1/66/17 36/3/3 5/2/2
f 18/6/6 15/67/37 2/4/4
f 16/7/7 15/67/37 18/6/6
f 40/68/38 16/69/7 17/70/1
f 38/71/36 16/72/7 40/73/38
f 2/58/4 19/74/39 3/75/8
f 17/1/1 18/76/6 4/77/9
f 3/78/8 19/79/39 23/80/10
f 5/2/2 17/1/1 4/77/9
f 20/5/5 3/9/8 22/17/13
f 5/15/2 20/5/5 24/18/14
f 7/81/12 26/24/16 22/26/13
f 21/20/11 25/82/20 26/21/16
f 6/36/15 24/27/14 8/34/21
f 26/83/16 25/84/20 27/85/19
f 8/34/21 28/25/18 9/45/25
f 28/30/18 31/38/23 9/86/25
f 19/87/39 12/40/24 23/39/10
f 8/34/21 30/46/27 1/37/17
f 1/37/17 30/46/27 32/88/31
f 29/89/22 27/85/19 25/84/20
f 31/38/23 29/35/22 11/49/28
f 11/90/28 29/89/22 25/84/20
f 10/48/26 31/38/23 11/49/28
f 30/91/27 10/48/26 34/92/40
f 25/41/20 12/40/24 14/51/30
f 34/92/40 10/48/26 33/50/29
f 32/88/31 30/46/27 35/93/32
f 30/94/27 34/95/40 35/53/32
f 14/51/30 12/40/24 13/96/34
f 33/97/29 39/64/33 34/95/40
f 37/60/35 34/95/40 39/64/33
f 34/95/40 37/60/35 35/53/32
f 1/66/17 32/52/31 36/3/3
f 14/54/30 13/59/34 39/55/33
f 39/55/33 13/59/34 2/58/4
f 17/1/1 37/60/35 38/98/36
f 15/99/37 39/100/33 2/101/4
f 39/64/33 15/102/37 16/65/7
f 38/98/36 40/103/38 17/1/1
f 12/57/24 19/74/39 2/58/4
o Cone.001_Cone.009
v -26.041725 -6.549498 -9.552656
v -27.095472 -6.040788 -11.445916
v -24.880245 -6.236863 -11.095743
v -25.812216 2.456331 -8.908432
vt 0.000000 0.603290
vt 0.190083 0.782478
vt 0.190083 0.522456
vt 0.665321 0.234361
vt 0.552688 0.000000
vt 0.431643 0.234361
vt 0.215822 0.109576
vt 0.431643 0.261228
vt 0.431643 0.000000
vt 0.623920 0.969706
vt 0.830476 0.969706
vt 0.736833 0.755612
vn 0.7836 -0.4565 -0.4213
vn 0.0220 0.9793 0.2010
vn -0.0718 -0.6840 0.7259
vn -0.7246 -0.3462 -0.5959
s 1
f 43/104/41 44/105/42 41/106/43
f 41/107/43 44/108/42 42/109/44
f 42/110/44 44/111/42 43/112/41
f 43/113/41 41/114/43 42/115/44
o Cone.002_Cone.010
v -32.537743 -8.281522 -2.965441
v -33.591587 -7.364236 -4.693764
v -31.470774 -8.112894 -4.596555
v -30.056955 0.279960 -1.682204
vt 0.607446 0.576423
vt 0.797529 0.755612
vt 0.797529 0.495589
vt 0.683178 0.495589
vt 0.570544 0.261228
vt 0.449500 0.495589
vt 0.000000 0.370805
vt 0.215822 0.522456
vt 0.215822 0.261228
vt 0.210807 0.979044
vt 0.417363 0.979044
vt 0.323720 0.764949
vn 0.6083 -0.5869 -0.5343
vn 0.2786 0.9215 0.2703
vn -0.1758 -0.7131 0.6786
vn -0.8351 -0.1057 -0.5398
s 1
f 47/116/45 48/117/46 45/118/47
f 45/119/47 48/120/46 46/121/48
f 46/122/48 48/123/46 47/124/45
f 47/125/45 45/126/47 46/127/48
o Cone.003_Cone.011
v -22.468718 -5.638454 10.226982
v -24.212173 -5.210773 8.928280
v -22.140188 -5.809482 8.305340
v -20.815882 3.124844 8.713495
vt 0.417363 0.576423
vt 0.607446 0.755612
vt 0.607446 0.495589
vt 0.449500 0.495589
vt 0.336866 0.261228
vt 0.215822 0.495589
vt 0.000000 0.109576
vt 0.215822 0.261228
vt 0.215822 0.000000
vt 0.417363 0.969706
vt 0.623919 0.969706
vt 0.530277 0.755612
vn 0.4293 -0.6668 -0.6091
vn 0.2378 0.9701 -0.0491
vn 0.1935 -0.5416 0.8180
vn -0.9551 -0.2682 -0.1257
s 1
f 51/128/49 52/129/50 49/130/51
f 49/131/51 52/132/50 50/133/52
f 50/134/52 52/135/50 51/136/49
f 51/137/49 49/138/51 50/139/52
