# Blender v2.91.0 OBJ File: 'bigfish2.blend'
# www.blender.org
o Sphere
v -15.875635 -26.155558 -0.469491
v 32.287762 5.051992 12.034725
v 16.391850 10.184236 9.158573
v 9.562181 -13.200304 12.494156
v -7.749933 -24.310593 7.217224
v -17.808104 -21.348227 11.761139
v -5.723307 9.002019 16.628809
v -31.598719 -14.723737 8.080918
v -38.365135 -4.437952 -0.821482
v -27.784922 -1.651001 -16.218824
v -16.028917 1.307026 -15.160134
v -8.041836 19.367542 -2.179025
v -2.459520 17.208702 -8.630451
v -5.003153 10.980933 -15.220131
v 51.363876 9.526587 30.787580
v 35.009743 -6.404552 14.361337
v 20.233887 -15.295250 0.724650
v 30.491182 -1.852067 12.542935
v -1.843828 23.423775 2.183967
v 7.177129 0.332926 16.050943
v -7.426054 16.883810 7.993953
v -9.360144 -4.170548 19.924063
v -11.229059 20.765684 3.895063
v -11.762983 -9.666434 20.024580
v -16.139627 14.401457 1.872876
v -15.809217 6.700608 12.286786
v -7.481813 6.633471 4.681748
v -22.176886 -2.694578 14.313400
v -6.963305 0.811560 -6.221976
v -28.258703 -14.480528 -14.488714
v -23.054007 -6.607738 -7.493869
v -16.574251 -25.437796 -7.827684
v -5.699633 0.204618 -18.902153
v -10.517408 -11.172155 -20.667503
v -8.287294 -21.984579 -13.141041
v 0.482853 -25.462921 -2.237252
v 17.948761 -12.611757 -7.960961
v 56.626808 -17.514839 25.071690
v 26.689484 1.759445 -1.746928
v 34.956451 -18.971109 12.004862
vt 0.345662 0.600626
vt 0.385899 0.507030
vt 0.339167 0.528492
vt 0.807643 0.265567
vt 0.729088 0.311167
vt 0.813374 0.305623
vt 0.841139 0.326526
vt 0.841739 0.399741
vt 0.751932 0.253331
vt 0.779672 0.385021
vt 0.135811 0.874067
vt 0.104457 0.782478
vt 0.097001 0.816385
vt 0.075752 0.874067
vt 0.782272 0.467966
vt 0.683178 0.276249
vt 0.693877 0.351919
vt 0.702380 0.385803
vt 0.746279 0.464772
vt 0.841739 0.369112
vt 0.877646 0.316256
vt 0.847875 0.318653
vt 0.798032 0.495589
vt 1.000000 0.957405
vt 0.942815 0.952490
vt 0.919977 0.983976
vt 0.889729 0.976323
vt 0.911461 0.507155
vt 0.880187 0.543748
vt 0.964581 0.541762
vt 0.665321 0.206232
vt 0.697347 0.206232
vt 0.679816 0.170443
vt 0.882855 0.894982
vt 0.869282 0.624106
vt 0.837867 0.908843
vt 0.830476 0.826960
vt 0.920941 0.665018
vt 0.828750 0.495589
vt 0.813620 0.531973
vt 0.852785 0.528601
vt 0.214616 0.522456
vt 0.190083 0.558302
vt 0.214616 0.612431
vt 0.956894 0.856919
vt 0.922145 0.757865
vt 1.000000 0.767674
vt 0.890822 0.690157
vt 0.859902 0.665616
vt 0.835993 0.688349
vt 0.805999 0.628715
vt 0.293017 0.508662
vt 0.268164 0.547175
vt 0.676583 0.043233
vt 0.774782 0.061629
vt 0.710147 0.000000
vt 0.665321 0.137759
vt 0.798321 0.128068
vt 0.671067 0.093631
vt 0.296231 0.619768
vt 0.075752 0.782478
vt 0.000000 0.838275
vt 0.075752 0.895503
vt 0.316094 0.693605
vt 0.391751 0.661500
vt 0.335612 0.495589
vt 0.841739 0.212491
vt 0.872761 0.450867
vt 0.872761 0.378728
vt 0.841739 0.416361
vt 0.188286 0.876956
vt 0.188286 0.782478
vt 0.135811 0.840661
vt 0.669401 0.170443
vt 0.762008 0.170443
vt 0.395334 0.670281
vt 0.417363 0.578903
vt 0.872847 0.000000
vt 0.864982 0.068315
vt 0.890898 0.068315
vt 0.994758 0.983053
vt 0.877646 0.378728
vt 0.864982 0.000000
vt 0.798321 0.049502
vt 0.858498 0.045372
vt 0.964581 0.632601
vt 0.802879 0.496146
vt 0.847029 0.783245
vt 0.864982 0.126262
vt 0.837047 0.175338
vt 0.939758 0.734412
vt 0.878515 0.742686
vt 0.873751 0.755612
vt 0.235425 0.545114
vt 0.215822 0.602885
vt 0.797529 0.573546
vt 0.222865 0.659374
vt 0.390137 0.653007
vt 0.875270 0.316256
vt 0.875270 0.212491
vt 0.841739 0.266662
vt 0.417363 0.764949
vt 0.390951 0.603189
vn 0.2508 -0.9649 0.0775
vn 0.1494 -0.8415 0.5191
vn 0.3466 -0.9325 -0.1012
vn -0.1220 0.9102 0.3957
vn 0.1098 0.1559 0.9816
vn -0.2858 -0.1825 0.9407
vn 0.4198 -0.3137 0.8517
vn 0.0443 0.5051 0.8619
vn 0.1834 -0.5549 0.8114
vn -0.5401 0.7858 0.3013
vn -0.1375 0.7276 0.6721
vn -0.0427 0.4856 0.8731
vn -0.0521 0.1547 0.9866
vn -0.0454 -0.2683 0.9622
vn -0.2447 -0.7306 0.6375
vn -0.8668 0.4479 0.2189
vn -0.2838 -0.9560 0.0748
vn -0.6146 0.5338 0.5807
vn -0.9301 -0.1804 -0.3198
vn -0.9773 0.2109 0.0188
vn -0.7538 -0.4532 0.4758
vn -0.9196 0.2322 0.3168
vn -0.1258 0.9717 0.1997
vn -0.2781 0.8077 -0.5198
vn -0.9004 0.4345 0.0199
vn -0.5174 0.6896 -0.5067
vn -0.6112 -0.4886 -0.6226
vn -0.5131 0.8246 -0.2380
vn 0.1648 0.2023 -0.9653
vn -0.0482 0.5704 -0.8199
vn -0.3085 -0.8909 -0.3332
vn 0.1302 -0.7225 -0.6790
vn 0.6915 0.2920 -0.6607
vn 0.1508 0.8612 -0.4854
vn 0.5221 -0.4077 -0.7491
vn 0.8307 -0.1737 0.5289
vn 0.6497 0.3328 0.6834
vn -0.1436 -0.9861 0.0841
vn 0.2683 0.9620 -0.0498
vn 0.0549 -0.2213 -0.9736
s 1
f 17/1/1 5/2/2 36/3/3
f 2/4/4 20/5/5 18/6/6
f 16/7/7 18/6/6 17/8/1
f 3/9/8 20/5/5 2/4/4
f 18/6/6 20/5/5 4/10/9
f 3/11/8 23/12/10 21/13/11
f 3/11/8 21/13/11 7/14/12
f 4/10/9 20/5/5 5/15/2
f 3/9/8 7/16/12 22/17/13
f 20/5/5 22/17/13 24/18/14
f 24/18/14 6/19/15 5/15/2
f 21/20/11 26/21/16 7/22/12
f 5/15/2 6/19/15 1/23/17
f 26/24/16 28/25/18 22/26/13
f 24/27/14 22/26/13 28/25/18
f 26/28/16 27/29/19 28/30/18
f 23/31/10 25/32/20 21/33/11
f 24/27/14 28/25/18 8/34/21
f 27/29/19 29/35/22 28/30/18
f 6/36/15 8/34/21 1/37/17
f 28/30/18 29/35/22 31/38/23
f 23/39/10 12/40/24 25/41/20
f 9/42/25 31/43/23 10/44/26
f 8/34/21 9/45/25 30/46/27
f 9/45/25 10/47/26 30/46/27
f 10/48/26 11/49/28 33/50/29
f 25/41/20 14/51/30 11/49/28
f 11/49/28 14/51/30 33/50/29
f 32/52/31 35/53/32 36/3/3
f 14/54/30 39/55/33 33/56/29
f 12/57/24 2/58/4 13/59/34
f 17/1/1 35/53/32 37/60/35
f 17/1/1 36/3/3 35/53/32
f 37/61/35 16/62/7 38/63/36
f 37/60/35 39/64/33 16/65/7
f 1/66/17 36/3/3 5/2/2
f 18/6/6 15/67/37 2/4/4
f 16/7/7 15/67/37 18/6/6
f 40/68/38 16/69/7 17/70/1
f 38/71/36 16/72/7 40/73/38
f 2/58/4 19/74/39 3/75/8
f 17/1/1 18/76/6 4/77/9
f 3/78/8 19/79/39 23/80/10
f 5/2/2 17/1/1 4/77/9
f 20/5/5 3/9/8 22/17/13
f 5/15/2 20/5/5 24/18/14
f 7/81/12 26/24/16 22/26/13
f 21/20/11 25/82/20 26/21/16
f 6/36/15 24/27/14 8/34/21
f 26/83/16 25/84/20 27/85/19
f 8/34/21 28/25/18 9/45/25
f 28/30/18 31/38/23 9/86/25
f 19/87/39 12/40/24 23/39/10
f 8/34/21 30/46/27 1/37/17
f 1/37/17 30/46/27 32/88/31
f 29/89/22 27/85/19 25/84/20
f 31/38/23 29/35/22 11/49/28
f 11/90/28 29/89/22 25/84/20
f 10/48/26 31/38/23 11/49/28
f 30/91/27 10/48/26 34/92/40
f 25/41/20 12/40/24 14/51/30
f 34/92/40 10/48/26 33/50/29
f 32/88/31 30/46/27 35/93/32
f 30/94/27 34/95/40 35/53/32
f 14/51/30 12/40/24 13/96/34
f 33/97/29 39/64/33 34/95/40
f 37/60/35 34/95/40 39/64/33
f 34/95/40 37/60/35 35/53/32
f 1/66/17 32/52/31 36/3/3
f 14/54/30 13/59/34 39/55/33
f 39/55/33 13/59/34 2/58/4
f 17/1/1 37/60/35 38/98/36
f 15/99/37 39/100/33 2/101/4
f 39/64/33 15/102/37 16/65/7
f 38/98/36 40/103/38 17/1/1
f 12/57/24 19/74/39 2/58/4
o Cone.001_Cone.009
v -26.253086 -5.016636 -9.552658
v -27.259686 -4.390308 -11.445918
v -25.073343 -4.791177 -11.095744
v -25.190592 3.985551 -8.908432
vt 0.000000 0.603290
vt 0.190083 0.782478
vt 0.190083 0.522456
vt 0.665321 0.234361
vt 0.552688 0.000000
vt 0.431643 0.234361
vt 0.215822 0.109576
vt 0.431643 0.261228
vt 0.431643 0.000000
vt 0.623920 0.969706
vt 0.830476 0.969706
vt 0.736833 0.755612
vn 0.7388 -0.5241 -0.4236
vn 0.1125 0.9733 0.2002
vn -0.1323 -0.6795 0.7216
vn -0.7545 -0.2750 -0.5958
s 1
f 43/104/41 44/105/42 41/106/43
f 41/107/43 44/108/42 42/109/44
f 42/110/44 44/111/42 43/112/41
f 43/113/41 41/114/43 42/115/44
o Cone.002_Cone.010
v -32.925262 -5.923575 -2.965441
v -33.881905 -4.905328 -4.693763
v -31.846769 -5.862690 -4.596556
v -29.599220 2.346292 -1.682205
vt 0.607446 0.576423
vt 0.797529 0.755612
vt 0.797529 0.495589
vt 0.683178 0.495589
vt 0.570544 0.261228
vt 0.449500 0.495589
vt 0.000000 0.370805
vt 0.215822 0.522456
vt 0.215822 0.261228
vt 0.210807 0.979044
vt 0.417363 0.979044
vt 0.323720 0.764949
vn 0.5465 -0.6449 -0.5343
vn 0.3696 0.8890 0.2703
vn -0.2464 -0.6919 0.6786
vn -0.8415 -0.0215 -0.5398
s 1
f 47/116/45 48/117/46 45/118/47
f 45/119/47 48/120/46 46/121/48
f 46/122/48 48/123/46 47/124/45
f 47/125/45 45/126/47 46/127/48
o Cone.003_Cone.011
v -22.543186 -4.840161 10.226981
v -24.246813 -4.358001 8.928279
v -22.224144 -5.042805 8.305340
v -20.324301 3.874024 8.713495
vt 0.417363 0.576423
vt 0.607446 0.755612
vt 0.607446 0.495589
vt 0.449500 0.495589
vt 0.336866 0.261228
vt 0.215822 0.495589
vt 0.000000 0.109576
vt 0.215822 0.261228
vt 0.215822 0.000000
vt 0.417363 0.969706
vt 0.623919 0.969706
vt 0.530277 0.755612
vn 0.3907 -0.6901 -0.6092
vn 0.2966 0.9537 -0.0487
vn 0.1610 -0.5450 0.8228
vn -0.9667 -0.2225 -0.1263
s 1
f 51/128/49 52/129/50 49/130/51
f 49/131/51 52/132/50 50/133/52
f 50/134/52 52/135/50 51/136/49
f 51/137/49 49/138/51 50/139/52
