# Blender v2.91.0 OBJ File: 'bigfish2.blend'
# www.blender.org
o Sphere
v -19.471823 -24.660851 -0.344555
v 33.768215 5.051992 9.087301
v 15.398777 11.977919 8.740168
v 10.303951 -13.556911 12.151307
v -10.578817 -24.175123 7.400592
v -20.402899 -19.661417 11.881329
v -9.083782 9.033128 16.756672
v -33.361374 -10.308446 8.080918
v -38.068718 1.067963 -0.821481
v -27.010107 0.774527 -16.218824
v -15.855181 1.038496 -15.056888
v -17.538210 17.778719 -2.163208
v -10.622286 17.851295 -8.590178
v -9.272512 10.874533 -15.176854
v 56.885330 9.526590 22.658052
v 37.105797 -6.404552 10.573840
v 20.104931 -15.295250 -0.644031
v 31.746014 -1.852067 9.948424
v -12.272074 23.883654 2.247409
v 7.283427 0.757723 16.067007
v -15.436934 15.849779 8.067140
v -9.261127 -4.127782 20.024729
v -21.158030 17.700615 3.895064
v -12.073786 -9.265669 20.116211
v -22.931261 9.860163 1.872877
v -17.487555 4.423999 12.470908
v -8.967577 6.390031 5.046470
v -21.551748 -1.621645 14.344681
v -7.248838 0.779771 -6.152385
v -29.935564 -10.857114 -14.488714
v -22.964666 -4.972611 -7.493869
v -20.095381 -23.818371 -7.710614
v -6.169128 0.195177 -18.838022
v -11.375990 -10.758213 -20.587294
v -11.099382 -21.697206 -13.033685
v -1.523972 -25.932405 -2.157351
v 16.811504 -12.932605 -9.069977
v 60.645683 -17.514835 15.858808
v 26.157278 1.937638 -3.847090
v 36.429070 -18.971109 8.487474
vt 0.345662 0.600626
vt 0.385899 0.507030
vt 0.339167 0.528492
vt 0.807643 0.265567
vt 0.729088 0.311167
vt 0.813374 0.305623
vt 0.841139 0.326526
vt 0.841739 0.399741
vt 0.751932 0.253331
vt 0.779672 0.385021
vt 0.135811 0.874067
vt 0.104457 0.782478
vt 0.097001 0.816385
vt 0.075752 0.874067
vt 0.782272 0.467966
vt 0.683178 0.276249
vt 0.693877 0.351919
vt 0.702380 0.385803
vt 0.746279 0.464772
vt 0.841739 0.369112
vt 0.877646 0.316256
vt 0.847875 0.318653
vt 0.798032 0.495589
vt 1.000000 0.957405
vt 0.942815 0.952490
vt 0.919977 0.983976
vt 0.889729 0.976323
vt 0.911461 0.507155
vt 0.880187 0.543748
vt 0.964581 0.541762
vt 0.665321 0.206232
vt 0.697347 0.206232
vt 0.679816 0.170443
vt 0.882855 0.894982
vt 0.869282 0.624106
vt 0.837867 0.908843
vt 0.830476 0.826960
vt 0.920941 0.665018
vt 0.828750 0.495589
vt 0.813620 0.531973
vt 0.852785 0.528601
vt 0.214616 0.522456
vt 0.190083 0.558302
vt 0.214616 0.612431
vt 0.956894 0.856919
vt 0.922145 0.757865
vt 1.000000 0.767674
vt 0.890822 0.690157
vt 0.859902 0.665616
vt 0.835993 0.688349
vt 0.805999 0.628715
vt 0.293017 0.508662
vt 0.268164 0.547175
vt 0.676583 0.043233
vt 0.774782 0.061629
vt 0.710147 0.000000
vt 0.665321 0.137759
vt 0.798321 0.128068
vt 0.671067 0.093631
vt 0.296231 0.619768
vt 0.075752 0.782478
vt 0.000000 0.838275
vt 0.075752 0.895503
vt 0.316094 0.693605
vt 0.391751 0.661500
vt 0.335612 0.495589
vt 0.841739 0.212491
vt 0.872761 0.450867
vt 0.872761 0.378728
vt 0.841739 0.416361
vt 0.188286 0.876956
vt 0.188286 0.782478
vt 0.135811 0.840661
vt 0.669401 0.170443
vt 0.762008 0.170443
vt 0.395334 0.670281
vt 0.417363 0.578903
vt 0.872847 0.000000
vt 0.864982 0.068315
vt 0.890898 0.068315
vt 0.994758 0.983053
vt 0.877646 0.378728
vt 0.864982 0.000000
vt 0.798321 0.049502
vt 0.858498 0.045372
vt 0.964581 0.632601
vt 0.802879 0.496146
vt 0.847029 0.783245
vt 0.864982 0.126262
vt 0.837047 0.175338
vt 0.939758 0.734412
vt 0.878515 0.742686
vt 0.873751 0.755612
vt 0.235425 0.545114
vt 0.215822 0.602885
vt 0.797529 0.573546
vt 0.222865 0.659374
vt 0.390137 0.653007
vt 0.875270 0.316256
vt 0.875270 0.212491
vt 0.841739 0.266662
vt 0.417363 0.764949
vt 0.390951 0.603189
vn 0.2214 -0.9711 0.0895
vn 0.0644 -0.8587 0.5084
vn 0.2970 -0.9514 -0.0814
vn -0.0820 0.8892 0.4500
vn 0.1479 0.1362 0.9796
vn -0.1058 -0.1981 0.9745
vn 0.5416 -0.3186 0.7779
vn 0.2536 0.7561 0.6032
vn 0.2315 -0.5853 0.7770
vn -0.7877 0.5230 0.3255
vn -0.2835 0.7450 0.6038
vn -0.1245 0.4883 0.8637
vn -0.0284 0.1360 0.9903
vn -0.0452 -0.2712 0.9615
vn -0.3664 -0.6771 0.6382
vn -0.9364 0.2214 0.2723
vn -0.4209 -0.9044 0.0701
vn -0.5361 0.5836 0.6099
vn -0.8507 -0.4252 -0.3089
vn -0.9649 -0.2608 0.0297
vn -0.8227 -0.2987 0.4836
vn -0.9432 0.1141 0.3119
vn 0.0357 0.9820 0.1854
vn -0.5237 0.6291 -0.5744
vn -0.7824 0.6224 0.0201
vn -0.3607 0.7713 -0.5243
vn -0.6861 -0.3725 -0.6248
vn -0.4611 0.8725 -0.1612
vn 0.1688 0.2215 -0.9604
vn -0.1456 0.5376 -0.8305
vn -0.4401 -0.8347 -0.3311
vn 0.0341 -0.7413 -0.6703
vn 0.5884 0.3370 -0.7350
vn -0.0767 0.9052 -0.4179
vn 0.4498 -0.4511 -0.7708
vn 0.9286 -0.1682 0.3307
vn 0.7909 0.3304 0.5150
vn -0.1866 -0.9467 0.2624
vn 0.0160 0.9997 0.0173
vn 0.0247 -0.2354 -0.9716
s 1
f 17/1/1 5/2/2 36/3/3
f 2/4/4 20/5/5 18/6/6
f 16/7/7 18/6/6 17/8/1
f 3/9/8 20/5/5 2/4/4
f 18/6/6 20/5/5 4/10/9
f 3/11/8 23/12/10 21/13/11
f 3/11/8 21/13/11 7/14/12
f 4/10/9 20/5/5 5/15/2
f 3/9/8 7/16/12 22/17/13
f 20/5/5 22/17/13 24/18/14
f 24/18/14 6/19/15 5/15/2
f 21/20/11 26/21/16 7/22/12
f 5/15/2 6/19/15 1/23/17
f 26/24/16 28/25/18 22/26/13
f 24/27/14 22/26/13 28/25/18
f 26/28/16 27/29/19 28/30/18
f 23/31/10 25/32/20 21/33/11
f 24/27/14 28/25/18 8/34/21
f 27/29/19 29/35/22 28/30/18
f 6/36/15 8/34/21 1/37/17
f 28/30/18 29/35/22 31/38/23
f 23/39/10 12/40/24 25/41/20
f 9/42/25 31/43/23 10/44/26
f 8/34/21 9/45/25 30/46/27
f 9/45/25 10/47/26 30/46/27
f 10/48/26 11/49/28 33/50/29
f 25/41/20 14/51/30 11/49/28
f 11/49/28 14/51/30 33/50/29
f 32/52/31 35/53/32 36/3/3
f 14/54/30 39/55/33 33/56/29
f 12/57/24 2/58/4 13/59/34
f 17/1/1 35/53/32 37/60/35
f 17/1/1 36/3/3 35/53/32
f 37/61/35 16/62/7 38/63/36
f 37/60/35 39/64/33 16/65/7
f 1/66/17 36/3/3 5/2/2
f 18/6/6 15/67/37 2/4/4
f 16/7/7 15/67/37 18/6/6
f 40/68/38 16/69/7 17/70/1
f 38/71/36 16/72/7 40/73/38
f 2/58/4 19/74/39 3/75/8
f 17/1/1 18/76/6 4/77/9
f 3/78/8 19/79/39 23/80/10
f 5/2/2 17/1/1 4/77/9
f 20/5/5 3/9/8 22/17/13
f 5/15/2 20/5/5 24/18/14
f 7/81/12 26/24/16 22/26/13
f 21/20/11 25/82/20 26/21/16
f 6/36/15 24/27/14 8/34/21
f 26/83/16 25/84/20 27/85/19
f 8/34/21 28/25/18 9/45/25
f 28/30/18 31/38/23 9/86/25
f 19/87/39 12/40/24 23/39/10
f 8/34/21 30/46/27 1/37/17
f 1/37/17 30/46/27 32/88/31
f 29/89/22 27/85/19 25/84/20
f 31/38/23 29/35/22 11/49/28
f 11/90/28 29/89/22 25/84/20
f 10/48/26 31/38/23 11/49/28
f 30/91/27 10/48/26 34/92/40
f 25/41/20 12/40/24 14/51/30
f 34/92/40 10/48/26 33/50/29
f 32/88/31 30/46/27 35/93/32
f 30/94/27 34/95/40 35/53/32
f 14/51/30 12/40/24 13/96/34
f 33/97/29 39/64/33 34/95/40
f 37/60/35 34/95/40 39/64/33
f 34/95/40 37/60/35 35/53/32
f 1/66/17 32/52/31 36/3/3
f 14/54/30 13/59/34 39/55/33
f 39/55/33 13/59/34 2/58/4
f 17/1/1 37/60/35 38/98/36
f 15/99/37 39/100/33 2/101/4
f 39/64/33 15/102/37 16/65/7
f 38/98/36 40/103/38 17/1/1
f 12/57/24 19/74/39 2/58/4
o Cone.001_Cone.009
v -26.088814 -2.294518 -9.552657
v -26.995672 -1.447496 -11.445918
v -24.925823 -2.200526 -11.095745
v -23.598660 6.519788 -8.908430
vt 0.000000 0.603290
vt 0.190083 0.782478
vt 0.190083 0.522456
vt 0.665321 0.234361
vt 0.552688 0.000000
vt 0.431643 0.234361
vt 0.215822 0.109576
vt 0.431643 0.261228
vt 0.431643 0.000000
vt 0.623920 0.969706
vt 0.830476 0.969706
vt 0.736833 0.755612
vn 0.6441 -0.6297 -0.4344
vn 0.2671 0.9428 0.1992
vn -0.2281 -0.6650 0.7111
vn -0.7913 -0.1403 -0.5951
s 1
f 43/104/41 44/105/42 41/106/43
f 41/107/43 44/108/42 42/109/44
f 42/110/44 44/111/42 43/112/41
f 43/113/41 41/114/43 42/115/44
o Cone.002_Cone.010
v -33.006168 -1.415955 -2.965441
v -33.753830 -0.235703 -4.693763
v -31.935511 -1.559355 -4.596555
v -28.181604 6.079169 -1.682205
vt 0.607446 0.576423
vt 0.797529 0.755612
vt 0.797529 0.495589
vt 0.683178 0.495589
vt 0.570544 0.261228
vt 0.449500 0.495589
vt 0.000000 0.370805
vt 0.215822 0.522456
vt 0.215822 0.261228
vt 0.210807 0.979044
vt 0.417363 0.979044
vt 0.323720 0.764949
vn 0.4152 -0.7363 -0.5343
vn 0.5304 0.8034 0.2703
vn -0.3723 -0.6331 0.6786
vn -0.8305 0.1374 -0.5398
s 1
f 47/116/45 48/117/46 45/118/47
f 45/119/47 48/120/46 46/121/48
f 46/122/48 48/123/46 47/124/45
f 47/125/45 45/126/47 46/127/48
o Cone.003_Cone.011
v -22.027079 -3.978742 10.226982
v -23.589420 -3.567452 8.928282
v -21.722387 -4.231932 8.305339
v -19.255333 4.526532 8.713495
vt 0.417363 0.576423
vt 0.607446 0.755612
vt 0.607446 0.495589
vt 0.449500 0.495589
vt 0.336866 0.261228
vt 0.215822 0.495589
vt 0.000000 0.109576
vt 0.215822 0.261228
vt 0.215822 0.000000
vt 0.417363 0.969706
vt 0.623919 0.969706
vt 0.530277 0.755612
vn 0.3527 -0.7056 -0.6146
vn 0.3524 0.9346 -0.0489
vn 0.1227 -0.5265 0.8412
vn -0.9695 -0.2058 -0.1326
s 1
f 51/128/49 52/129/50 49/130/51
f 49/131/51 52/132/50 50/133/52
f 50/134/52 52/135/50 51/136/49
f 51/137/49 49/138/51 50/139/52
