# Blender v2.91.0 OBJ File: 'bigfish2.blend'
# www.blender.org
o Sphere
v -15.376600 -26.305080 -0.459681
v 32.417084 5.051992 11.809649
v 16.210180 10.550314 9.127274
v 9.674368 -13.148369 12.470655
v -7.351818 -24.286613 7.232068
v -17.388842 -21.539967 11.770820
v -6.391573 9.168772 16.639458
v -31.296961 -15.292995 8.080918
v -38.324951 -5.184125 -0.821482
v -27.811300 -2.142157 -16.218824
v -16.148306 1.107985 -15.152359
v -9.752546 19.390009 -2.177794
v -3.859385 17.577578 -8.627606
v -5.813828 11.142725 -15.217152
v 51.857941 9.526590 30.189100
v 35.195374 -6.404551 14.075902
v 20.227728 -15.295250 0.614107
v 30.600132 -1.852067 12.342366
v -3.654833 23.834738 2.189060
v 7.167253 0.512198 16.054142
v -8.863270 16.957508 7.999886
v -9.331232 -4.164798 19.932386
v -13.062803 20.543856 3.895065
v -11.595785 -9.716553 20.032120
v -17.471334 13.822103 1.872878
v -16.309175 6.324240 12.301641
v -7.820229 6.675112 4.710998
v -22.170141 -3.089146 14.315915
v -7.039940 0.842678 -6.216662
v -27.980028 -14.944339 -14.488713
v -22.954031 -6.962551 -7.493870
v -16.094164 -25.605942 -7.818686
v -5.801069 0.268257 -18.897799
v -10.347113 -11.208028 -20.661814
v -7.935415 -21.981409 -13.133206
v 0.730579 -25.371515 -2.231172
v 17.902592 -12.565455 -8.053872
v 57.011665 -17.514833 24.374529
v 26.652195 1.793370 -1.916983
v 35.089848 -18.971107 11.734923
vt 0.345662 0.600626
vt 0.385899 0.507030
vt 0.339167 0.528492
vt 0.807643 0.265567
vt 0.729088 0.311167
vt 0.813374 0.305623
vt 0.841139 0.326526
vt 0.841739 0.399741
vt 0.751932 0.253331
vt 0.779672 0.385021
vt 0.135811 0.874067
vt 0.104457 0.782478
vt 0.097001 0.816385
vt 0.075752 0.874067
vt 0.782272 0.467966
vt 0.683178 0.276249
vt 0.693877 0.351919
vt 0.702380 0.385803
vt 0.746279 0.464772
vt 0.841739 0.369112
vt 0.877646 0.316256
vt 0.847875 0.318653
vt 0.798032 0.495589
vt 1.000000 0.957405
vt 0.942815 0.952490
vt 0.919977 0.983976
vt 0.889729 0.976323
vt 0.911461 0.507155
vt 0.880187 0.543748
vt 0.964581 0.541762
vt 0.665321 0.206232
vt 0.697347 0.206232
vt 0.679816 0.170443
vt 0.882855 0.894982
vt 0.869282 0.624106
vt 0.837867 0.908843
vt 0.830476 0.826960
vt 0.920941 0.665018
vt 0.828750 0.495589
vt 0.813620 0.531973
vt 0.852785 0.528601
vt 0.214616 0.522456
vt 0.190083 0.558302
vt 0.214616 0.612431
vt 0.956894 0.856919
vt 0.922145 0.757865
vt 1.000000 0.767674
vt 0.890822 0.690157
vt 0.859902 0.665616
vt 0.835993 0.688349
vt 0.805999 0.628715
vt 0.293017 0.508662
vt 0.268164 0.547175
vt 0.676583 0.043233
vt 0.774782 0.061629
vt 0.710147 0.000000
vt 0.665321 0.137759
vt 0.798321 0.128068
vt 0.671067 0.093631
vt 0.296231 0.619768
vt 0.075752 0.782478
vt 0.000000 0.838275
vt 0.075752 0.895503
vt 0.316094 0.693605
vt 0.391751 0.661500
vt 0.335612 0.495589
vt 0.841739 0.212491
vt 0.872761 0.450867
vt 0.872761 0.378728
vt 0.841739 0.416361
vt 0.188286 0.876956
vt 0.188286 0.782478
vt 0.135811 0.840661
vt 0.669401 0.170443
vt 0.762008 0.170443
vt 0.395334 0.670281
vt 0.417363 0.578903
vt 0.872847 0.000000
vt 0.864982 0.068315
vt 0.890898 0.068315
vt 0.994758 0.983053
vt 0.877646 0.378728
vt 0.864982 0.000000
vt 0.798321 0.049502
vt 0.858498 0.045372
vt 0.964581 0.632601
vt 0.802879 0.496146
vt 0.847029 0.783245
vt 0.864982 0.126262
vt 0.837047 0.175338
vt 0.939758 0.734412
vt 0.878515 0.742686
vt 0.873751 0.755612
vt 0.235425 0.545114
vt 0.215822 0.602885
vt 0.797529 0.573546
vt 0.222865 0.659374
vt 0.390137 0.653007
vt 0.875270 0.316256
vt 0.875270 0.212491
vt 0.841739 0.266662
vt 0.417363 0.764949
vt 0.390951 0.603189
vn 0.2535 -0.9643 0.0758
vn 0.1625 -0.8382 0.5206
vn 0.3518 -0.9307 -0.1000
vn -0.1206 0.9081 0.4009
vn 0.1124 0.1570 0.9812
vn -0.2718 -0.1841 0.9445
vn 0.4286 -0.3084 0.8492
vn 0.0626 0.5172 0.8535
vn 0.1870 -0.5521 0.8125
vn -0.5912 0.7462 0.3059
vn -0.1606 0.7312 0.6629
vn -0.0601 0.4867 0.8715
vn -0.0563 0.1527 0.9867
vn -0.0409 -0.2691 0.9622
vn -0.2273 -0.7352 0.6385
vn -0.8916 0.3944 0.2224
vn -0.2646 -0.9613 0.0760
vn -0.6295 0.5152 0.5815
vn -0.9180 -0.2401 -0.3155
vn -0.9915 0.1281 0.0207
vn -0.7424 -0.4714 0.4759
vn -0.9288 0.1912 0.3173
vn -0.1500 0.9681 0.2005
vn -0.3262 0.7839 -0.5282
vn -0.9109 0.4120 0.0207
vn -0.5342 0.6762 -0.5072
vn -0.5993 -0.5028 -0.6229
vn -0.5422 0.8031 -0.2470
vn 0.1609 0.2081 -0.9648
vn -0.0689 0.5655 -0.8218
vn -0.2905 -0.8972 -0.3327
vn 0.1405 -0.7201 -0.6794
vn 0.6825 0.2993 -0.6667
vn 0.1166 0.8735 -0.4727
vn 0.5199 -0.4054 -0.7519
vn 0.8399 -0.1735 0.5142
vn 0.6623 0.3325 0.6713
vn -0.1504 -0.9836 0.0991
vn 0.2279 0.9729 -0.0382
vn 0.0581 -0.2192 -0.9739
s 1
f 17/1/1 5/2/2 36/3/3
f 2/4/4 20/5/5 18/6/6
f 16/7/7 18/6/6 17/8/1
f 3/9/8 20/5/5 2/4/4
f 18/6/6 20/5/5 4/10/9
f 3/11/8 23/12/10 21/13/11
f 3/11/8 21/13/11 7/14/12
f 4/10/9 20/5/5 5/15/2
f 3/9/8 7/16/12 22/17/13
f 20/5/5 22/17/13 24/18/14
f 24/18/14 6/19/15 5/15/2
f 21/20/11 26/21/16 7/22/12
f 5/15/2 6/19/15 1/23/17
f 26/24/16 28/25/18 22/26/13
f 24/27/14 22/26/13 28/25/18
f 26/28/16 27/29/19 28/30/18
f 23/31/10 25/32/20 21/33/11
f 24/27/14 28/25/18 8/34/21
f 27/29/19 29/35/22 28/30/18
f 6/36/15 8/34/21 1/37/17
f 28/30/18 29/35/22 31/38/23
f 23/39/10 12/40/24 25/41/20
f 9/42/25 31/43/23 10/44/26
f 8/34/21 9/45/25 30/46/27
f 9/45/25 10/47/26 30/46/27
f 10/48/26 11/49/28 33/50/29
f 25/41/20 14/51/30 11/49/28
f 11/49/28 14/51/30 33/50/29
f 32/52/31 35/53/32 36/3/3
f 14/54/30 39/55/33 33/56/29
f 12/57/24 2/58/4 13/59/34
f 17/1/1 35/53/32 37/60/35
f 17/1/1 36/3/3 35/53/32
f 37/61/35 16/62/7 38/63/36
f 37/60/35 39/64/33 16/65/7
f 1/66/17 36/3/3 5/2/2
f 18/6/6 15/67/37 2/4/4
f 16/7/7 15/67/37 18/6/6
f 40/68/38 16/69/7 17/70/1
f 38/71/36 16/72/7 40/73/38
f 2/58/4 19/74/39 3/75/8
f 17/1/1 18/76/6 4/77/9
f 3/78/8 19/79/39 23/80/10
f 5/2/2 17/1/1 4/77/9
f 20/5/5 3/9/8 22/17/13
f 5/15/2 20/5/5 24/18/14
f 7/81/12 26/24/16 22/26/13
f 21/20/11 25/82/20 26/21/16
f 6/36/15 24/27/14 8/34/21
f 26/83/16 25/84/20 27/85/19
f 8/34/21 28/25/18 9/45/25
f 28/30/18 31/38/23 9/86/25
f 19/87/39 12/40/24 23/39/10
f 8/34/21 30/46/27 1/37/17
f 1/37/17 30/46/27 32/88/31
f 29/89/22 27/85/19 25/84/20
f 31/38/23 29/35/22 11/49/28
f 11/90/28 29/89/22 25/84/20
f 10/48/26 31/38/23 11/49/28
f 30/91/27 10/48/26 34/92/40
f 25/41/20 12/40/24 14/51/30
f 34/92/40 10/48/26 33/50/29
f 32/88/31 30/46/27 35/93/32
f 30/94/27 34/95/40 35/53/32
f 14/51/30 12/40/24 13/96/34
f 33/97/29 39/64/33 34/95/40
f 37/60/35 34/95/40 39/64/33
f 34/95/40 37/60/35 35/53/32
f 1/66/17 32/52/31 36/3/3
f 14/54/30 13/59/34 39/55/33
f 39/55/33 13/59/34 2/58/4
f 17/1/1 37/60/35 38/98/36
f 15/99/37 39/100/33 2/101/4
f 39/64/33 15/102/37 16/65/7
f 38/98/36 40/103/38 17/1/1
f 12/57/24 19/74/39 2/58/4
o Cone.001_Cone.009
v -26.193638 -5.467635 -9.552656
v -27.217314 -4.866123 -11.445916
v -25.021698 -5.209106 -11.095743
v -25.371115 3.563360 -8.908431
vt 0.000000 0.603290
vt 0.190083 0.782478
vt 0.190083 0.522456
vt 0.665321 0.234361
vt 0.552688 0.000000
vt 0.431643 0.234361
vt 0.215822 0.109576
vt 0.431643 0.261228
vt 0.431643 0.000000
vt 0.623920 0.969706
vt 0.830476 0.969706
vt 0.736833 0.755612
vn 0.7524 -0.5041 -0.4240
vn 0.0866 0.9759 0.2001
vn -0.1138 -0.6832 0.7213
vn -0.7471 -0.2947 -0.5958
s 1
f 43/104/41 44/105/42 41/106/43
f 41/107/43 44/108/42 42/109/44
f 42/110/44 44/111/42 43/112/41
f 43/113/41 41/114/43 42/115/44
o Cone.002_Cone.010
v -32.848763 -6.529750 -2.965441
v -33.831207 -5.536367 -4.693762
v -31.772186 -6.441226 -4.596555
v -29.735903 1.822698 -1.682205
vt 0.607446 0.576423
vt 0.797529 0.755612
vt 0.797529 0.495589
vt 0.683178 0.495589
vt 0.570544 0.261228
vt 0.449500 0.495589
vt 0.000000 0.370805
vt 0.215822 0.522456
vt 0.215822 0.261228
vt 0.210807 0.979044
vt 0.417363 0.979044
vt 0.323720 0.764949
vn 0.5628 -0.6306 -0.5343
vn 0.3467 0.8982 0.2703
vn -0.2285 -0.6980 0.6786
vn -0.8407 -0.0431 -0.5398
s 1
f 47/116/45 48/117/46 45/118/47
f 45/119/47 48/120/46 46/121/48
f 46/122/48 48/123/46 47/124/45
f 47/125/45 45/126/47 46/127/48
o Cone.003_Cone.011
v -22.472195 -5.231685 10.226982
v -24.185360 -4.805608 8.928279
v -22.147133 -5.425764 8.305339
v -20.512802 3.543831 8.713494
vt 0.417363 0.576423
vt 0.607446 0.755612
vt 0.607446 0.495589
vt 0.449500 0.495589
vt 0.336866 0.261228
vt 0.215822 0.495589
vt 0.000000 0.109576
vt 0.215822 0.261228
vt 0.215822 0.000000
vt 0.417363 0.969706
vt 0.623919 0.969706
vt 0.530277 0.755612
vn 0.4112 -0.6779 -0.6093
vn 0.2680 0.9622 -0.0487
vn 0.1770 -0.5391 0.8234
vn -0.9593 -0.2525 -0.1266
s 1
f 51/128/49 52/129/50 49/130/51
f 49/131/51 52/132/50 50/133/52
f 50/134/52 52/135/50 51/136/49
f 51/137/49 49/138/51 50/139/52
