# Blender v2.91.0 OBJ File: 'bigfish2.blend'
# www.blender.org
o Sphere
v -21.243391 -23.587145 0.193849
v 35.726387 5.051992 -5.165812
v 19.444098 11.125346 5.896878
v 13.837788 -13.725827 9.662014
v -11.617434 -23.876448 8.060114
v -21.529310 -18.553436 12.328009
v -6.341429 9.041238 17.129448
v -33.954613 -7.821255 8.080918
v -37.481087 3.974751 -0.821481
v -26.571192 2.521839 -16.218824
v -15.873053 1.668097 -14.514384
v -12.650331 19.130005 -2.091502
v -6.686096 17.948940 -8.323059
v -7.300177 10.996459 -14.867162
v 59.634979 9.526584 -18.375223
v 38.902275 -6.404553 -8.000560
v 18.552040 -15.295250 -5.878442
v 33.911491 -1.852067 -2.179166
v -6.637180 24.210218 2.488660
v 9.607228 0.242374 15.567564
v -11.060846 16.830793 8.328011
v -8.869987 -4.148459 20.335869
v -16.107328 19.851582 3.895064
v -12.222048 -9.028793 20.409658
v -19.609514 12.616128 1.872877
v -15.822741 5.842347 13.147832
v -7.256409 6.490700 6.438492
v -21.353014 -0.285458 14.462441
v -7.180286 0.711818 -5.808372
v -30.544985 -8.798013 -14.488713
v -23.105124 -3.665219 -7.493869
v -22.000330 -22.688049 -7.149489
v -6.629208 0.025522 -18.360973
v -12.656618 -10.529514 -20.063000
v -13.143908 -21.353006 -12.396052
v -2.795229 -26.031212 -1.755944
v 12.066489 -13.086864 -12.285856
v 55.866096 -17.514841 -25.169748
v 22.414640 1.848737 -11.488546
v 37.034798 -18.971109 -7.727154
vt 0.345662 0.600626
vt 0.385899 0.507030
vt 0.339167 0.528492
vt 0.807643 0.265567
vt 0.729088 0.311167
vt 0.813374 0.305623
vt 0.841139 0.326526
vt 0.841739 0.399741
vt 0.751932 0.253331
vt 0.779672 0.385021
vt 0.135811 0.874067
vt 0.104457 0.782478
vt 0.097001 0.816385
vt 0.075752 0.874067
vt 0.782272 0.467966
vt 0.683178 0.276249
vt 0.693877 0.351919
vt 0.702380 0.385803
vt 0.746279 0.464772
vt 0.841739 0.369112
vt 0.877646 0.316256
vt 0.847875 0.318653
vt 0.798032 0.495589
vt 1.000000 0.957405
vt 0.942815 0.952490
vt 0.919977 0.983976
vt 0.889729 0.976323
vt 0.911461 0.507155
vt 0.880187 0.543748
vt 0.964581 0.541762
vt 0.665321 0.206232
vt 0.697347 0.206232
vt 0.679816 0.170443
vt 0.882855 0.894982
vt 0.869282 0.624106
vt 0.837867 0.908843
vt 0.830476 0.826960
vt 0.920941 0.665018
vt 0.828750 0.495589
vt 0.813620 0.531973
vt 0.852785 0.528601
vt 0.214616 0.522456
vt 0.190083 0.558302
vt 0.214616 0.612431
vt 0.956894 0.856919
vt 0.922145 0.757865
vt 1.000000 0.767674
vt 0.890822 0.690157
vt 0.859902 0.665616
vt 0.835993 0.688349
vt 0.805999 0.628715
vt 0.293017 0.508662
vt 0.268164 0.547175
vt 0.676583 0.043233
vt 0.774782 0.061629
vt 0.710147 0.000000
vt 0.665321 0.137759
vt 0.798321 0.128068
vt 0.671067 0.093631
vt 0.296231 0.619768
vt 0.075752 0.782478
vt 0.000000 0.838275
vt 0.075752 0.895503
vt 0.316094 0.693605
vt 0.391751 0.661500
vt 0.335612 0.495589
vt 0.841739 0.212491
vt 0.872761 0.450867
vt 0.872761 0.378728
vt 0.841739 0.416361
vt 0.188286 0.876956
vt 0.188286 0.782478
vt 0.135811 0.840661
vt 0.669401 0.170443
vt 0.762008 0.170443
vt 0.395334 0.670281
vt 0.417363 0.578903
vt 0.872847 0.000000
vt 0.864982 0.068315
vt 0.890898 0.068315
vt 0.994758 0.983053
vt 0.877646 0.378728
vt 0.864982 0.000000
vt 0.798321 0.049502
vt 0.858498 0.045372
vt 0.964581 0.632601
vt 0.802879 0.496146
vt 0.847029 0.783245
vt 0.864982 0.126262
vt 0.837047 0.175338
vt 0.939758 0.734412
vt 0.878515 0.742686
vt 0.873751 0.755612
vt 0.235425 0.545114
vt 0.215822 0.602885
vt 0.797529 0.573546
vt 0.222865 0.659374
vt 0.390137 0.653007
vt 0.875270 0.316256
vt 0.875270 0.212491
vt 0.841739 0.266662
vt 0.417363 0.764949
vt 0.390951 0.603189
vn 0.2630 -0.9604 0.0920
vn 0.0440 -0.8608 0.5069
vn 0.2850 -0.9585 -0.0027
vn 0.3464 0.8090 0.4749
vn 0.2991 0.1568 0.9412
vn 0.5620 -0.2069 0.8008
vn 0.9129 -0.3040 0.2722
vn 0.4934 0.6293 0.6004
vn 0.4289 -0.6174 0.6594
vn -0.6619 0.6831 0.3085
vn -0.1847 0.7549 0.6292
vn -0.0098 0.4811 0.8766
vn 0.0092 0.1242 0.9922
vn -0.0627 -0.2613 0.9632
vn -0.4287 -0.6334 0.6442
vn -0.8690 0.4081 0.2798
vn -0.4885 -0.8692 0.0764
vn -0.4813 0.6359 0.6033
vn -0.9119 -0.2340 -0.3370
vn -0.9987 -0.0303 0.0420
vn -0.8498 -0.2189 0.4794
vn -0.9097 0.2476 0.3333
vn 0.1242 0.9738 0.1902
vn -0.4389 0.7142 -0.5452
vn -0.7146 0.6994 0.0160
vn -0.2828 0.7977 -0.5326
vn -0.7126 -0.3124 -0.6281
vn -0.3683 0.9268 -0.0734
vn 0.0535 0.2290 -0.9720
vn -0.1769 0.5432 -0.8207
vn -0.5174 -0.7972 -0.3110
vn -0.0431 -0.7529 -0.6567
vn 0.1780 0.2751 -0.9448
vn -0.0104 0.8984 -0.4391
vn 0.2032 -0.5174 -0.8312
vn 0.8097 -0.1657 -0.5629
vn 0.8688 0.3280 -0.3708
vn 0.1900 -0.7874 0.5864
vn 0.0254 0.9862 0.1637
vn -0.0341 -0.2527 -0.9669
s 1
f 17/1/1 5/2/2 36/3/3
f 2/4/4 20/5/5 18/6/6
f 16/7/7 18/6/6 17/8/1
f 3/9/8 20/5/5 2/4/4
f 18/6/6 20/5/5 4/10/9
f 3/11/8 23/12/10 21/13/11
f 3/11/8 21/13/11 7/14/12
f 4/10/9 20/5/5 5/15/2
f 3/9/8 7/16/12 22/17/13
f 20/5/5 22/17/13 24/18/14
f 24/18/14 6/19/15 5/15/2
f 21/20/11 26/21/16 7/22/12
f 5/15/2 6/19/15 1/23/17
f 26/24/16 28/25/18 22/26/13
f 24/27/14 22/26/13 28/25/18
f 26/28/16 27/29/19 28/30/18
f 23/31/10 25/32/20 21/33/11
f 24/27/14 28/25/18 8/34/21
f 27/29/19 29/35/22 28/30/18
f 6/36/15 8/34/21 1/37/17
f 28/30/18 29/35/22 31/38/23
f 23/39/10 12/40/24 25/41/20
f 9/42/25 31/43/23 10/44/26
f 8/34/21 9/45/25 30/46/27
f 9/45/25 10/47/26 30/46/27
f 10/48/26 11/49/28 33/50/29
f 25/41/20 14/51/30 11/49/28
f 11/49/28 14/51/30 33/50/29
f 32/52/31 35/53/32 36/3/3
f 14/54/30 39/55/33 33/56/29
f 12/57/24 2/58/4 13/59/34
f 17/1/1 35/53/32 37/60/35
f 17/1/1 36/3/3 35/53/32
f 37/61/35 16/62/7 38/63/36
f 37/60/35 39/64/33 16/65/7
f 1/66/17 36/3/3 5/2/2
f 18/6/6 15/67/37 2/4/4
f 16/7/7 15/67/37 18/6/6
f 40/68/38 16/69/7 17/70/1
f 38/71/36 16/72/7 40/73/38
f 2/58/4 19/74/39 3/75/8
f 17/1/1 18/76/6 4/77/9
f 3/78/8 19/79/39 23/80/10
f 5/2/2 17/1/1 4/77/9
f 20/5/5 3/9/8 22/17/13
f 5/15/2 20/5/5 24/18/14
f 7/81/12 26/24/16 22/26/13
f 21/20/11 25/82/20 26/21/16
f 6/36/15 24/27/14 8/34/21
f 26/83/16 25/84/20 27/85/19
f 8/34/21 28/25/18 9/45/25
f 28/30/18 31/38/23 9/86/25
f 19/87/39 12/40/24 23/39/10
f 8/34/21 30/46/27 1/37/17
f 1/37/17 30/46/27 32/88/31
f 29/89/22 27/85/19 25/84/20
f 31/38/23 29/35/22 11/49/28
f 11/90/28 29/89/22 25/84/20
f 10/48/26 31/38/23 11/49/28
f 30/91/27 10/48/26 34/92/40
f 25/41/20 12/40/24 14/51/30
f 34/92/40 10/48/26 33/50/29
f 32/88/31 30/46/27 35/93/32
f 30/94/27 34/95/40 35/53/32
f 14/51/30 12/40/24 13/96/34
f 33/97/29 39/64/33 34/95/40
f 37/60/35 34/95/40 39/64/33
f 34/95/40 37/60/35 35/53/32
f 1/66/17 32/52/31 36/3/3
f 14/54/30 13/59/34 39/55/33
f 39/55/33 13/59/34 2/58/4
f 17/1/1 37/60/35 38/98/36
f 15/99/37 39/100/33 2/101/4
f 39/64/33 15/102/37 16/65/7
f 38/98/36 40/103/38 17/1/1
f 12/57/24 19/74/39 2/58/4
o Cone.001_Cone.009
v -25.941092 -0.584485 -9.552655
v -26.753578 0.351237 -11.445915
v -24.767834 -0.609753 -11.095743
v -22.550171 7.940648 -8.908429
vt 0.000000 0.603290
vt 0.190083 0.782478
vt 0.190083 0.522456
vt 0.665321 0.234361
vt 0.552688 0.000000
vt 0.431643 0.234361
vt 0.215822 0.109576
vt 0.431643 0.261228
vt 0.431643 0.000000
vt 0.623920 0.969706
vt 0.830476 0.969706
vt 0.736833 0.755612
vn 0.5770 -0.6921 -0.4336
vn 0.3626 0.9105 0.1989
vn -0.2966 -0.6380 0.7106
vn -0.8014 -0.0587 -0.5952
s 1
f 43/104/41 44/105/42 41/106/43
f 41/107/43 44/108/42 42/109/44
f 42/110/44 44/111/42 43/112/41
f 43/113/41 41/114/43 42/115/44
o Cone.002_Cone.010
v -32.697269 0.989059 -2.965441
v -33.321087 2.239204 -4.693761
v -31.646736 0.737565 -4.596555
v -27.135771 7.954908 -1.682204
vt 0.607446 0.576423
vt 0.797529 0.755612
vt 0.797529 0.495589
vt 0.683178 0.495589
vt 0.570544 0.261228
vt 0.449500 0.495589
vt 0.000000 0.370805
vt 0.215822 0.522456
vt 0.215822 0.261228
vt 0.210807 0.979044
vt 0.417363 0.979044
vt 0.323720 0.764949
vn 0.3382 -0.7747 -0.5343
vn 0.6094 0.7454 0.2703
vn -0.4347 -0.5920 0.6786
vn -0.8122 0.2211 -0.5398
s 1
f 47/116/45 48/117/46 45/118/47
f 45/119/47 48/120/46 46/121/48
f 46/122/48 48/123/46 47/124/45
f 47/125/45 45/126/47 46/127/48
o Cone.003_Cone.011
v -22.151539 -2.661445 10.226981
v -23.687237 -2.083325 8.928281
v -21.874683 -2.946220 8.305340
v -18.476931 5.569295 8.713495
vt 0.417363 0.576423
vt 0.607446 0.755612
vt 0.607446 0.495589
vt 0.449500 0.495589
vt 0.336866 0.261228
vt 0.215822 0.495589
vt 0.000000 0.109576
vt 0.215822 0.261228
vt 0.215822 0.000000
vt 0.417363 0.969706
vt 0.623919 0.969706
vt 0.530277 0.755612
vn 0.2785 -0.7390 -0.6134
vn 0.4487 0.8923 -0.0485
vn 0.0698 -0.5377 0.8402
vn -0.9859 -0.1035 -0.1311
s 1
f 51/128/49 52/129/50 49/130/51
f 49/131/51 52/132/50 50/133/52
f 50/134/52 52/135/50 51/136/49
f 51/137/49 49/138/51 50/139/52
