# Blender v2.91.0 OBJ File: 'bigfish2.blend'
# www.blender.org
o Sphere
v -14.011900 -26.639946 -0.494383
v 31.949671 5.051992 12.600756
v 16.444103 9.849277 9.237124
v 9.460081 -13.006409 12.551080
v -6.327393 -24.173714 7.179210
v -16.361559 -21.979803 11.736384
v -5.316641 8.888617 16.601315
v -30.423338 -16.769129 8.080917
v -38.124786 -7.163435 -0.821483
v -27.886652 -3.043960 -16.218824
v -16.142290 1.142603 -15.179600
v -6.545376 19.240007 -2.182137
v -1.248055 16.799837 -8.637415
v -4.445162 10.859697 -15.227357
v 50.065483 9.526587 32.272049
v 34.522957 -6.404552 15.075649
v 20.246210 -15.295250 1.007677
v 30.206581 -1.852067 13.049413
v -0.286430 22.949913 2.170964
v 7.088522 0.354908 16.041304
v -6.176727 16.728512 7.978753
v -9.359081 -4.170214 19.902618
v -9.610651 20.844093 3.895064
v -11.447409 -9.795314 20.005173
v -14.937910 14.824345 1.872877
v -15.592344 6.888891 12.248783
v -7.328850 6.621752 4.607044
v -22.227694 -3.493907 14.306974
v -6.960537 0.826542 -6.235341
v -27.180971 -16.142933 -14.488714
v -22.833632 -7.524300 -7.493870
v -14.753145 -25.992210 -7.850368
v -5.681358 0.241119 -18.912653
v -10.027918 -11.281085 -20.681461
v -6.930027 -21.933945 -13.160446
v 1.415798 -25.096704 -2.252524
v 18.205034 -12.439350 -7.720556
v 55.597908 -17.514839 26.816574
v 26.760111 1.729160 -1.311349
v 34.604385 -18.971109 12.684523
vt 0.345662 0.600626
vt 0.385899 0.507030
vt 0.339167 0.528492
vt 0.807643 0.265567
vt 0.729088 0.311167
vt 0.813374 0.305623
vt 0.841139 0.326526
vt 0.841739 0.399741
vt 0.751932 0.253331
vt 0.779672 0.385021
vt 0.135811 0.874067
vt 0.104457 0.782478
vt 0.097001 0.816385
vt 0.075752 0.874067
vt 0.782272 0.467966
vt 0.683178 0.276249
vt 0.693877 0.351919
vt 0.702380 0.385803
vt 0.746279 0.464772
vt 0.841739 0.369112
vt 0.877646 0.316256
vt 0.847875 0.318653
vt 0.798032 0.495589
vt 1.000000 0.957405
vt 0.942815 0.952490
vt 0.919977 0.983976
vt 0.889729 0.976323
vt 0.911461 0.507155
vt 0.880187 0.543748
vt 0.964581 0.541762
vt 0.665321 0.206232
vt 0.697347 0.206232
vt 0.679816 0.170443
vt 0.882855 0.894982
vt 0.869282 0.624106
vt 0.837867 0.908843
vt 0.830476 0.826960
vt 0.920941 0.665018
vt 0.828750 0.495589
vt 0.813620 0.531973
vt 0.852785 0.528601
vt 0.214616 0.522456
vt 0.190083 0.558302
vt 0.214616 0.612431
vt 0.956894 0.856919
vt 0.922145 0.757865
vt 1.000000 0.767674
vt 0.890822 0.690157
vt 0.859902 0.665616
vt 0.835993 0.688349
vt 0.805999 0.628715
vt 0.293017 0.508662
vt 0.268164 0.547175
vt 0.676583 0.043233
vt 0.774782 0.061629
vt 0.710147 0.000000
vt 0.665321 0.137759
vt 0.798321 0.128068
vt 0.671067 0.093631
vt 0.296231 0.619768
vt 0.075752 0.782478
vt 0.000000 0.838275
vt 0.075752 0.895503
vt 0.316094 0.693605
vt 0.391751 0.661500
vt 0.335612 0.495589
vt 0.841739 0.212491
vt 0.872761 0.450867
vt 0.872761 0.378728
vt 0.841739 0.416361
vt 0.188286 0.876956
vt 0.188286 0.782478
vt 0.135811 0.840661
vt 0.669401 0.170443
vt 0.762008 0.170443
vt 0.395334 0.670281
vt 0.417363 0.578903
vt 0.872847 0.000000
vt 0.864982 0.068315
vt 0.890898 0.068315
vt 0.994758 0.983053
vt 0.877646 0.378728
vt 0.864982 0.000000
vt 0.798321 0.049502
vt 0.858498 0.045372
vt 0.964581 0.632601
vt 0.802879 0.496146
vt 0.847029 0.783245
vt 0.864982 0.126262
vt 0.837047 0.175338
vt 0.939758 0.734412
vt 0.878515 0.742686
vt 0.873751 0.755612
vt 0.235425 0.545114
vt 0.215822 0.602885
vt 0.797529 0.573546
vt 0.222865 0.659374
vt 0.390137 0.653007
vt 0.875270 0.316256
vt 0.875270 0.212491
vt 0.841739 0.266662
vt 0.417363 0.764949
vt 0.390951 0.603189
vn 0.2654 -0.9614 0.0725
vn 0.1918 -0.8295 0.5244
vn 0.3681 -0.9239 -0.1045
vn -0.1288 0.9148 0.3829
vn 0.1012 0.1673 0.9807
vn -0.3228 -0.1787 0.9294
vn 0.3932 -0.3050 0.8674
vn 0.0133 0.4942 0.8692
vn 0.1698 -0.5426 0.8226
vn -0.4934 0.8174 0.2974
vn -0.1176 0.7257 0.6779
vn -0.0341 0.4882 0.8720
vn -0.0650 0.1604 0.9849
vn -0.0408 -0.2675 0.9627
vn -0.1794 -0.7474 0.6397
vn -0.8586 0.4690 0.2068
vn -0.2123 -0.9740 0.0785
vn -0.6519 0.4991 0.5709
vn -0.9349 -0.1441 -0.3242
vn -0.9573 0.2885 0.0162
vn -0.7091 -0.5214 0.4747
vn -0.9185 0.2306 0.3212
vn -0.2083 0.9565 0.2040
vn -0.2319 0.8285 -0.5097
vn -0.9416 0.3361 0.0212
vn -0.5802 0.6412 -0.5022
vn -0.5668 -0.5391 -0.6229
vn -0.5555 0.7904 -0.2581
vn 0.1563 0.2084 -0.9655
vn -0.0342 0.5757 -0.8169
vn -0.2402 -0.9119 -0.3327
vn 0.1736 -0.7103 -0.6821
vn 0.7096 0.2875 -0.6432
vn 0.1878 0.8485 -0.4946
vn 0.5407 -0.3914 -0.7446
vn 0.8054 -0.1758 0.5660
vn 0.6166 0.3333 0.7132
vn -0.1232 -0.9913 0.0460
vn 0.3097 0.9485 -0.0661
vn 0.0679 -0.2123 -0.9748
s 1
f 17/1/1 5/2/2 36/3/3
f 2/4/4 20/5/5 18/6/6
f 16/7/7 18/6/6 17/8/1
f 3/9/8 20/5/5 2/4/4
f 18/6/6 20/5/5 4/10/9
f 3/11/8 23/12/10 21/13/11
f 3/11/8 21/13/11 7/14/12
f 4/10/9 20/5/5 5/15/2
f 3/9/8 7/16/12 22/17/13
f 20/5/5 22/17/13 24/18/14
f 24/18/14 6/19/15 5/15/2
f 21/20/11 26/21/16 7/22/12
f 5/15/2 6/19/15 1/23/17
f 26/24/16 28/25/18 22/26/13
f 24/27/14 22/26/13 28/25/18
f 26/28/16 27/29/19 28/30/18
f 23/31/10 25/32/20 21/33/11
f 24/27/14 28/25/18 8/34/21
f 27/29/19 29/35/22 28/30/18
f 6/36/15 8/34/21 1/37/17
f 28/30/18 29/35/22 31/38/23
f 23/39/10 12/40/24 25/41/20
f 9/42/25 31/43/23 10/44/26
f 8/34/21 9/45/25 30/46/27
f 9/45/25 10/47/26 30/46/27
f 10/48/26 11/49/28 33/50/29
f 25/41/20 14/51/30 11/49/28
f 11/49/28 14/51/30 33/50/29
f 32/52/31 35/53/32 36/3/3
f 14/54/30 39/55/33 33/56/29
f 12/57/24 2/58/4 13/59/34
f 17/1/1 35/53/32 37/60/35
f 17/1/1 36/3/3 35/53/32
f 37/61/35 16/62/7 38/63/36
f 37/60/35 39/64/33 16/65/7
f 1/66/17 36/3/3 5/2/2
f 18/6/6 15/67/37 2/4/4
f 16/7/7 15/67/37 18/6/6
f 40/68/38 16/69/7 17/70/1
f 38/71/36 16/72/7 40/73/38
f 2/58/4 19/74/39 3/75/8
f 17/1/1 18/76/6 4/77/9
f 3/78/8 19/79/39 23/80/10
f 5/2/2 17/1/1 4/77/9
f 20/5/5 3/9/8 22/17/13
f 5/15/2 20/5/5 24/18/14
f 7/81/12 26/24/16 22/26/13
f 21/20/11 25/82/20 26/21/16
f 6/36/15 24/27/14 8/34/21
f 26/83/16 25/84/20 27/85/19
f 8/34/21 28/25/18 9/45/25
f 28/30/18 31/38/23 9/86/25
f 19/87/39 12/40/24 23/39/10
f 8/34/21 30/46/27 1/37/17
f 1/37/17 30/46/27 32/88/31
f 29/89/22 27/85/19 25/84/20
f 31/38/23 29/35/22 11/49/28
f 11/90/28 29/89/22 25/84/20
f 10/48/26 31/38/23 11/49/28
f 30/91/27 10/48/26 34/92/40
f 25/41/20 12/40/24 14/51/30
f 34/92/40 10/48/26 33/50/29
f 32/88/31 30/46/27 35/93/32
f 30/94/27 34/95/40 35/53/32
f 14/51/30 12/40/24 13/96/34
f 33/97/29 39/64/33 34/95/40
f 37/60/35 34/95/40 39/64/33
f 34/95/40 37/60/35 35/53/32
f 1/66/17 32/52/31 36/3/3
f 14/54/30 13/59/34 39/55/33
f 39/55/33 13/59/34 2/58/4
f 17/1/1 37/60/35 38/98/36
f 15/99/37 39/100/33 2/101/4
f 39/64/33 15/102/37 16/65/7
f 38/98/36 40/103/38 17/1/1
f 12/57/24 19/74/39 2/58/4
o Cone.001_Cone.009
v -26.064190 -6.436160 -9.552658
v -27.114302 -5.921196 -11.445918
v -24.900406 -6.132030 -11.095744
v -25.774441 2.565919 -8.908431
vt 0.000000 0.603290
vt 0.190083 0.782478
vt 0.190083 0.522456
vt 0.665321 0.234361
vt 0.552688 0.000000
vt 0.431643 0.234361
vt 0.215822 0.109576
vt 0.431643 0.261228
vt 0.431643 0.000000
vt 0.623920 0.969706
vt 0.830476 0.969706
vt 0.736833 0.755612
vn 0.7805 -0.4618 -0.4213
vn 0.0285 0.9792 0.2011
vn -0.0765 -0.6833 0.7261
vn -0.7268 -0.3415 -0.5959
s 1
f 43/104/41 44/105/42 41/106/43
f 41/107/43 44/108/42 42/109/44
f 42/110/44 44/111/42 43/112/41
f 43/113/41 41/114/43 42/115/44
o Cone.002_Cone.010
v -32.569542 -8.132214 -2.965442
v -33.617493 -7.208193 -4.693763
v -31.501518 -7.970425 -4.596556
v -30.033943 0.413195 -1.682205
vt 0.607446 0.576423
vt 0.797529 0.755612
vt 0.797529 0.495589
vt 0.683178 0.495589
vt 0.570544 0.261228
vt 0.449500 0.495589
vt 0.000000 0.370805
vt 0.215822 0.522456
vt 0.215822 0.261228
vt 0.210807 0.979044
vt 0.417363 0.979044
vt 0.323720 0.764949
vn 0.6045 -0.5907 -0.5343
vn 0.2846 0.9197 0.2703
vn -0.1804 -0.7120 0.6786
vn -0.8358 -0.1003 -0.5398
s 1
f 47/116/45 48/117/46 45/118/47
f 45/119/47 48/120/46 46/121/48
f 46/122/48 48/123/46 47/124/45
f 47/125/45 45/126/47 46/127/48
o Cone.003_Cone.011
v -22.488527 -5.535203 10.226982
v -24.229082 -5.092209 8.928279
v -22.161427 -5.708367 8.305340
v -20.768587 3.212449 8.713494
vt 0.417363 0.576423
vt 0.607446 0.755612
vt 0.607446 0.495589
vt 0.449500 0.495589
vt 0.336866 0.261228
vt 0.215822 0.495589
vt 0.000000 0.109576
vt 0.215822 0.261228
vt 0.215822 0.000000
vt 0.417363 0.969706
vt 0.623919 0.969706
vt 0.530277 0.755612
vn 0.4240 -0.6702 -0.6091
vn 0.2453 0.9682 -0.0491
vn 0.1893 -0.5433 0.8179
vn -0.9573 -0.2603 -0.1256
s 1
f 51/128/49 52/129/50 49/130/51
f 49/131/51 52/132/50 50/133/52
f 50/134/52 52/135/50 51/136/49
f 51/137/49 49/138/51 50/139/52
