# Blender v2.91.0 OBJ File: 'bigfish2.blend'
# www.blender.org
o Sphere
v -13.302916 -26.776281 -0.503131
v 31.827465 5.051992 12.797935
v 16.461422 9.719956 9.264466
v 9.421317 -12.931293 12.570155
v -5.798014 -24.087782 7.165727
v -15.804659 -22.180189 11.727618
v -5.166830 8.833079 16.591486
v -29.934080 -17.505966 8.080917
v -37.968925 -8.177350 -0.821483
v -27.887709 -3.567137 -16.218824
v -16.176542 1.075701 -15.186349
v -5.983936 19.165873 -2.183227
v -0.799343 16.624912 -8.639775
v -4.239611 10.799238 -15.229783
v 49.594093 9.526587 32.781776
v 34.346531 -6.404552 15.323220
v 20.249388 -15.295250 1.108030
v 30.103764 -1.852067 13.226582
v 0.292046 22.744194 2.166363
v 7.051977 0.361829 16.037388
v -5.708637 16.648111 7.973360
v -9.358421 -4.169148 19.894966
v -8.999657 20.845369 3.895064
v -11.325518 -9.833409 19.998260
v -14.477865 14.962660 1.872877
v -15.502623 6.948161 12.235317
v -7.272018 6.609858 4.580623
v -22.222090 -3.793321 14.304700
v -6.960842 0.829857 -6.239997
v -26.737516 -16.738842 -14.488714
v -22.725981 -7.860439 -7.493870
v -14.058634 -26.156019 -7.858287
v -5.677782 0.251858 -18.916159
v -9.842836 -11.309058 -20.686201
v -6.424219 -21.882908 -13.167104
v 1.755741 -24.937492 -2.257838
v 18.291945 -12.372880 -7.634457
v 55.218536 -17.514839 27.421207
v 26.782509 1.717642 -1.156856
v 34.476021 -18.971109 12.921543
vt 0.345662 0.600626
vt 0.385899 0.507030
vt 0.339167 0.528492
vt 0.807643 0.265567
vt 0.729088 0.311167
vt 0.813374 0.305623
vt 0.841139 0.326526
vt 0.841739 0.399741
vt 0.751932 0.253331
vt 0.779672 0.385021
vt 0.135811 0.874067
vt 0.104457 0.782478
vt 0.097001 0.816385
vt 0.075752 0.874067
vt 0.782272 0.467966
vt 0.683178 0.276249
vt 0.693877 0.351919
vt 0.702380 0.385803
vt 0.746279 0.464772
vt 0.841739 0.369112
vt 0.877646 0.316256
vt 0.847875 0.318653
vt 0.798032 0.495589
vt 1.000000 0.957405
vt 0.942815 0.952490
vt 0.919977 0.983976
vt 0.889729 0.976323
vt 0.911461 0.507155
vt 0.880187 0.543748
vt 0.964581 0.541762
vt 0.665321 0.206232
vt 0.697347 0.206232
vt 0.679816 0.170443
vt 0.882855 0.894982
vt 0.869282 0.624106
vt 0.837867 0.908843
vt 0.830476 0.826960
vt 0.920941 0.665018
vt 0.828750 0.495589
vt 0.813620 0.531973
vt 0.852785 0.528601
vt 0.214616 0.522456
vt 0.190083 0.558302
vt 0.214616 0.612431
vt 0.956894 0.856919
vt 0.922145 0.757865
vt 1.000000 0.767674
vt 0.890822 0.690157
vt 0.859902 0.665616
vt 0.835993 0.688349
vt 0.805999 0.628715
vt 0.293017 0.508662
vt 0.268164 0.547175
vt 0.676583 0.043233
vt 0.774782 0.061629
vt 0.710147 0.000000
vt 0.665321 0.137759
vt 0.798321 0.128068
vt 0.671067 0.093631
vt 0.296231 0.619768
vt 0.075752 0.782478
vt 0.000000 0.838275
vt 0.075752 0.895503
vt 0.316094 0.693605
vt 0.391751 0.661500
vt 0.335612 0.495589
vt 0.841739 0.212491
vt 0.872761 0.450867
vt 0.872761 0.378728
vt 0.841739 0.416361
vt 0.188286 0.876956
vt 0.188286 0.782478
vt 0.135811 0.840661
vt 0.669401 0.170443
vt 0.762008 0.170443
vt 0.395334 0.670281
vt 0.417363 0.578903
vt 0.872847 0.000000
vt 0.864982 0.068315
vt 0.890898 0.068315
vt 0.994758 0.983053
vt 0.877646 0.378728
vt 0.864982 0.000000
vt 0.798321 0.049502
vt 0.858498 0.045372
vt 0.964581 0.632601
vt 0.802879 0.496146
vt 0.847029 0.783245
vt 0.864982 0.126262
vt 0.837047 0.175338
vt 0.939758 0.734412
vt 0.878515 0.742686
vt 0.873751 0.755612
vt 0.235425 0.545114
vt 0.215822 0.602885
vt 0.797529 0.573546
vt 0.222865 0.659374
vt 0.390137 0.653007
vt 0.875270 0.316256
vt 0.875270 0.212491
vt 0.841739 0.266662
vt 0.417363 0.764949
vt 0.390951 0.603189
vn 0.2708 -0.9600 0.0707
vn 0.2074 -0.8246 0.5263
vn 0.3758 -0.9207 -0.1054
vn -0.1309 0.9164 0.3782
vn 0.0981 0.1718 0.9802
vn -0.3359 -0.1773 0.9250
vn 0.3837 -0.3016 0.8728
vn 0.0031 0.4928 0.8701
vn 0.1641 -0.5384 0.8265
vn -0.4752 0.8286 0.2959
vn -0.1104 0.7249 0.6799
vn -0.0309 0.4893 0.8715
vn -0.0699 0.1625 0.9842
vn -0.0391 -0.2672 0.9628
vn -0.1543 -0.7522 0.6406
vn -0.8553 0.4769 0.2026
vn -0.1849 -0.9795 0.0800
vn -0.6652 0.4856 0.5672
vn -0.9364 -0.1296 -0.3261
vn -0.9481 0.3175 0.0153
vn -0.6907 -0.5458 0.4743
vn -0.9179 0.2303 0.3230
vn -0.2389 0.9491 0.2053
vn -0.2141 0.8356 -0.5059
vn -0.9543 0.2980 0.0218
vn -0.6021 0.6219 -0.5007
vn -0.5491 -0.5570 -0.6231
vn -0.5700 0.7782 -0.2635
vn 0.1528 0.2110 -0.9655
vn -0.0289 0.5776 -0.8158
vn -0.2139 -0.9185 -0.3324
vn 0.1896 -0.7052 -0.6832
vn 0.7159 0.2858 -0.6369
vn 0.2014 0.8432 -0.4983
vn 0.5473 -0.3855 -0.7429
vn 0.7961 -0.1766 0.5788
vn 0.6047 0.3335 0.7233
vn -0.1151 -0.9928 0.0326
vn 0.3251 0.9429 -0.0725
vn 0.0725 -0.2087 -0.9753
s 1
f 17/1/1 5/2/2 36/3/3
f 2/4/4 20/5/5 18/6/6
f 16/7/7 18/6/6 17/8/1
f 3/9/8 20/5/5 2/4/4
f 18/6/6 20/5/5 4/10/9
f 3/11/8 23/12/10 21/13/11
f 3/11/8 21/13/11 7/14/12
f 4/10/9 20/5/5 5/15/2
f 3/9/8 7/16/12 22/17/13
f 20/5/5 22/17/13 24/18/14
f 24/18/14 6/19/15 5/15/2
f 21/20/11 26/21/16 7/22/12
f 5/15/2 6/19/15 1/23/17
f 26/24/16 28/25/18 22/26/13
f 24/27/14 22/26/13 28/25/18
f 26/28/16 27/29/19 28/30/18
f 23/31/10 25/32/20 21/33/11
f 24/27/14 28/25/18 8/34/21
f 27/29/19 29/35/22 28/30/18
f 6/36/15 8/34/21 1/37/17
f 28/30/18 29/35/22 31/38/23
f 23/39/10 12/40/24 25/41/20
f 9/42/25 31/43/23 10/44/26
f 8/34/21 9/45/25 30/46/27
f 9/45/25 10/47/26 30/46/27
f 10/48/26 11/49/28 33/50/29
f 25/41/20 14/51/30 11/49/28
f 11/49/28 14/51/30 33/50/29
f 32/52/31 35/53/32 36/3/3
f 14/54/30 39/55/33 33/56/29
f 12/57/24 2/58/4 13/59/34
f 17/1/1 35/53/32 37/60/35
f 17/1/1 36/3/3 35/53/32
f 37/61/35 16/62/7 38/63/36
f 37/60/35 39/64/33 16/65/7
f 1/66/17 36/3/3 5/2/2
f 18/6/6 15/67/37 2/4/4
f 16/7/7 15/67/37 18/6/6
f 40/68/38 16/69/7 17/70/1
f 38/71/36 16/72/7 40/73/38
f 2/58/4 19/74/39 3/75/8
f 17/1/1 18/76/6 4/77/9
f 3/78/8 19/79/39 23/80/10
f 5/2/2 17/1/1 4/77/9
f 20/5/5 3/9/8 22/17/13
f 5/15/2 20/5/5 24/18/14
f 7/81/12 26/24/16 22/26/13
f 21/20/11 25/82/20 26/21/16
f 6/36/15 24/27/14 8/34/21
f 26/83/16 25/84/20 27/85/19
f 8/34/21 28/25/18 9/45/25
f 28/30/18 31/38/23 9/86/25
f 19/87/39 12/40/24 23/39/10
f 8/34/21 30/46/27 1/37/17
f 1/37/17 30/46/27 32/88/31
f 29/89/22 27/85/19 25/84/20
f 31/38/23 29/35/22 11/49/28
f 11/90/28 29/89/22 25/84/20
f 10/48/26 31/38/23 11/49/28
f 30/91/27 10/48/26 34/92/40
f 25/41/20 12/40/24 14/51/30
f 34/92/40 10/48/26 33/50/29
f 32/88/31 30/46/27 35/93/32
f 30/94/27 34/95/40 35/53/32
f 14/51/30 12/40/24 13/96/34
f 33/97/29 39/64/33 34/95/40
f 37/60/35 34/95/40 39/64/33
f 34/95/40 37/60/35 35/53/32
f 1/66/17 32/52/31 36/3/3
f 14/54/30 13/59/34 39/55/33
f 39/55/33 13/59/34 2/58/4
f 17/1/1 37/60/35 38/98/36
f 15/99/37 39/100/33 2/101/4
f 39/64/33 15/102/37 16/65/7
f 38/98/36 40/103/38 17/1/1
f 12/57/24 19/74/39 2/58/4
o Cone.001_Cone.009
v -25.957350 -6.962058 -9.552658
v -27.021198 -6.489937 -11.445918
v -24.801775 -6.629006 -11.095744
v -25.957350 2.020420 -8.908431
vt 0.000000 0.603290
vt 0.190083 0.782478
vt 0.190083 0.522456
vt 0.665321 0.234361
vt 0.552688 0.000000
vt 0.431643 0.234361
vt 0.215822 0.109576
vt 0.431643 0.261228
vt 0.431643 0.000000
vt 0.623920 0.969706
vt 0.830476 0.969706
vt 0.736833 0.755612
vn 0.7948 -0.4375 -0.4205
vn -0.0031 0.9795 0.2014
vn -0.0554 -0.6835 0.7278
vn -0.7149 -0.3658 -0.5959
s 1
f 43/104/41 44/105/42 41/106/43
f 41/107/43 44/108/42 42/109/44
f 42/110/44 44/111/42 43/112/41
f 43/113/41 41/114/43 42/115/44
o Cone.002_Cone.010
v -32.383011 -8.949961 -2.965442
v -33.462841 -8.063402 -4.693763
v -31.321342 -8.750673 -4.596555
v -30.149818 -0.320586 -1.682205
vt 0.607446 0.576423
vt 0.797529 0.755612
vt 0.797529 0.495589
vt 0.683178 0.495589
vt 0.570544 0.261228
vt 0.449500 0.495589
vt 0.000000 0.370805
vt 0.215822 0.522456
vt 0.215822 0.261228
vt 0.210807 0.979044
vt 0.417363 0.979044
vt 0.323720 0.764949
vn 0.6250 -0.5691 -0.5343
vn 0.2520 0.9292 0.2703
vn -0.1552 -0.7179 0.6786
vn -0.8317 -0.1297 -0.5398
s 1
f 47/116/45 48/117/46 45/118/47
f 45/119/47 48/120/46 46/121/48
f 46/122/48 48/123/46 47/124/45
f 47/125/45 45/126/47 46/127/48
o Cone.003_Cone.011
v -22.445328 -5.792023 10.226982
v -24.197393 -5.364538 8.928279
v -22.115942 -5.953859 8.305340
v -20.914248 2.952411 8.713494
vt 0.417363 0.576423
vt 0.607446 0.755612
vt 0.607446 0.495589
vt 0.449500 0.495589
vt 0.336866 0.261228
vt 0.215822 0.495589
vt 0.000000 0.109576
vt 0.215822 0.261228
vt 0.215822 0.000000
vt 0.417363 0.969706
vt 0.623919 0.969706
vt 0.530277 0.755612
vn 0.4361 -0.6622 -0.6092
vn 0.2258 0.9729 -0.0493
vn 0.1998 -0.5422 0.8161
vn -0.9534 -0.2744 -0.1255
s 1
f 51/128/49 52/129/50 49/130/51
f 49/131/51 52/132/50 50/133/52
f 50/134/52 52/135/50 51/136/49
f 51/137/49 49/138/51 50/139/52
