# Blender v2.91.0 OBJ File: 'bigfish2.blend'
# www.blender.org
o Sphere
v -21.281782 -23.575752 -0.267499
v 34.498817 5.051991 7.187179
v 14.986439 12.459712 8.453445
v 10.725407 -13.727394 11.894305
v -12.074129 -23.872757 7.507776
v -21.674719 -18.522493 11.952234
v -10.312017 8.564170 16.827473
v -33.959175 -7.796643 8.080918
v -37.473885 4.002871 -0.821481
v -26.332754 2.126616 -16.218824
v -15.608980 0.957978 -14.988796
v -20.933832 16.061665 -2.153294
v -13.796553 17.141956 -8.561108
v -10.886324 10.275290 -15.144590
v 59.424110 9.526587 17.178965
v 38.100712 -6.404552 8.092037
v 19.975693 -15.295250 -1.449945
v 32.379185 -1.852067 8.305419
v -16.253489 22.827148 2.285082
v 7.331755 0.823505 16.051201
v -18.325994 14.512423 8.109811
v -9.213732 -4.098030 20.081266
v -24.542059 15.374928 3.895063
v -12.256651 -8.955805 20.168137
v -24.958040 7.347222 1.872876
v -17.739206 3.301342 12.579196
v -9.451630 6.057593 5.263289
v -21.023642 -0.916608 14.363202
v -7.363337 0.706005 -6.107469
v -30.549906 -8.777579 -14.488713
v -22.755228 -3.974372 -7.493869
v -21.858866 -22.676142 -7.635847
v -6.400875 0.105696 -18.789391
v -11.867620 -10.434525 -20.529739
v -12.602240 -21.331535 -12.959556
v -2.640301 -26.031641 -2.105488
v 16.067575 -13.088303 -9.677813
v 62.159149 -17.514835 9.906441
v 25.736210 1.994598 -5.074510
v 37.091759 -18.971109 6.243564
vt 0.345662 0.600626
vt 0.385899 0.507030
vt 0.339167 0.528492
vt 0.807643 0.265567
vt 0.729088 0.311167
vt 0.813374 0.305623
vt 0.841139 0.326526
vt 0.841739 0.399741
vt 0.751932 0.253331
vt 0.779672 0.385021
vt 0.135811 0.874067
vt 0.104457 0.782478
vt 0.097001 0.816385
vt 0.075752 0.874067
vt 0.782272 0.467966
vt 0.683178 0.276249
vt 0.693877 0.351919
vt 0.702380 0.385803
vt 0.746279 0.464772
vt 0.841739 0.369112
vt 0.877646 0.316256
vt 0.847875 0.318653
vt 0.798032 0.495589
vt 1.000000 0.957405
vt 0.942815 0.952490
vt 0.919977 0.983976
vt 0.889729 0.976323
vt 0.911461 0.507155
vt 0.880187 0.543748
vt 0.964581 0.541762
vt 0.665321 0.206232
vt 0.697347 0.206232
vt 0.679816 0.170443
vt 0.882855 0.894982
vt 0.869282 0.624106
vt 0.837867 0.908843
vt 0.830476 0.826960
vt 0.920941 0.665018
vt 0.828750 0.495589
vt 0.813620 0.531973
vt 0.852785 0.528601
vt 0.214616 0.522456
vt 0.190083 0.558302
vt 0.214616 0.612431
vt 0.956894 0.856919
vt 0.922145 0.757865
vt 1.000000 0.767674
vt 0.890822 0.690157
vt 0.859902 0.665616
vt 0.835993 0.688349
vt 0.805999 0.628715
vt 0.293017 0.508662
vt 0.268164 0.547175
vt 0.676583 0.043233
vt 0.774782 0.061629
vt 0.710147 0.000000
vt 0.665321 0.137759
vt 0.798321 0.128068
vt 0.671067 0.093631
vt 0.296231 0.619768
vt 0.075752 0.782478
vt 0.000000 0.838275
vt 0.075752 0.895503
vt 0.316094 0.693605
vt 0.391751 0.661500
vt 0.335612 0.495589
vt 0.841739 0.212491
vt 0.872761 0.450867
vt 0.872761 0.378728
vt 0.841739 0.416361
vt 0.188286 0.876956
vt 0.188286 0.782478
vt 0.135811 0.840661
vt 0.669401 0.170443
vt 0.762008 0.170443
vt 0.395334 0.670281
vt 0.417363 0.578903
vt 0.872847 0.000000
vt 0.864982 0.068315
vt 0.890898 0.068315
vt 0.994758 0.983053
vt 0.877646 0.378728
vt 0.864982 0.000000
vt 0.798321 0.049502
vt 0.858498 0.045372
vt 0.964581 0.632601
vt 0.802879 0.496146
vt 0.847029 0.783245
vt 0.864982 0.126262
vt 0.837047 0.175338
vt 0.939758 0.734412
vt 0.878515 0.742686
vt 0.873751 0.755612
vt 0.235425 0.545114
vt 0.215822 0.602885
vt 0.797529 0.573546
vt 0.222865 0.659374
vt 0.390137 0.653007
vt 0.875270 0.316256
vt 0.875270 0.212491
vt 0.841739 0.266662
vt 0.417363 0.764949
vt 0.390951 0.603189
vn 0.2101 -0.9728 0.0977
vn 0.0166 -0.8641 0.5029
vn 0.2690 -0.9607 -0.0679
vn -0.0458 0.8780 0.4764
vn 0.1702 0.1309 0.9767
vn 0.0013 -0.2043 0.9789
vn 0.6114 -0.3209 0.7233
vn 0.2995 0.8431 0.4466
vn 0.2553 -0.6024 0.7562
vn -0.8539 0.3990 0.3341
vn -0.3523 0.7451 0.5662
vn -0.1584 0.4915 0.8563
vn -0.0134 0.1285 0.9916
vn -0.0477 -0.2707 0.9615
vn -0.4258 -0.6397 0.6399
vn -0.9414 0.1672 0.2928
vn -0.4904 -0.8687 0.0687
vn -0.4716 0.6265 0.6206
vn -0.8116 -0.4913 -0.3159
vn -0.9036 -0.4272 0.0309
vn -0.8467 -0.2101 0.4888
vn -0.9451 0.0821 0.3161
vn 0.1244 0.9765 0.1756
vn -0.5959 0.5405 -0.5939
vn -0.7074 0.7065 0.0203
vn -0.2635 0.8039 -0.5331
vn -0.7177 -0.3030 -0.6270
vn -0.4194 0.9010 -0.1105
vn 0.1665 0.2362 -0.9573
vn -0.1827 0.5229 -0.8325
vn -0.5069 -0.7968 -0.3288
vn -0.0190 -0.7467 -0.6648
vn 0.5239 0.3574 -0.7732
vn -0.1712 0.9046 -0.3902
vn 0.4055 -0.4758 -0.7805
vn 0.9654 -0.1662 0.2010
vn 0.8561 0.3293 0.3982
vn -0.1734 -0.9192 0.3536
vn -0.0874 0.9953 0.0412
vn 0.0063 -0.2409 -0.9705
s 1
f 17/1/1 5/2/2 36/3/3
f 2/4/4 20/5/5 18/6/6
f 16/7/7 18/6/6 17/8/1
f 3/9/8 20/5/5 2/4/4
f 18/6/6 20/5/5 4/10/9
f 3/11/8 23/12/10 21/13/11
f 3/11/8 21/13/11 7/14/12
f 4/10/9 20/5/5 5/15/2
f 3/9/8 7/16/12 22/17/13
f 20/5/5 22/17/13 24/18/14
f 24/18/14 6/19/15 5/15/2
f 21/20/11 26/21/16 7/22/12
f 5/15/2 6/19/15 1/23/17
f 26/24/16 28/25/18 22/26/13
f 24/27/14 22/26/13 28/25/18
f 26/28/16 27/29/19 28/30/18
f 23/31/10 25/32/20 21/33/11
f 24/27/14 28/25/18 8/34/21
f 27/29/19 29/35/22 28/30/18
f 6/36/15 8/34/21 1/37/17
f 28/30/18 29/35/22 31/38/23
f 23/39/10 12/40/24 25/41/20
f 9/42/25 31/43/23 10/44/26
f 8/34/21 9/45/25 30/46/27
f 9/45/25 10/47/26 30/46/27
f 10/48/26 11/49/28 33/50/29
f 25/41/20 14/51/30 11/49/28
f 11/49/28 14/51/30 33/50/29
f 32/52/31 35/53/32 36/3/3
f 14/54/30 39/55/33 33/56/29
f 12/57/24 2/58/4 13/59/34
f 17/1/1 35/53/32 37/60/35
f 17/1/1 36/3/3 35/53/32
f 37/61/35 16/62/7 38/63/36
f 37/60/35 39/64/33 16/65/7
f 1/66/17 36/3/3 5/2/2
f 18/6/6 15/67/37 2/4/4
f 16/7/7 15/67/37 18/6/6
f 40/68/38 16/69/7 17/70/1
f 38/71/36 16/72/7 40/73/38
f 2/58/4 19/74/39 3/75/8
f 17/1/1 18/76/6 4/77/9
f 3/78/8 19/79/39 23/80/10
f 5/2/2 17/1/1 4/77/9
f 20/5/5 3/9/8 22/17/13
f 5/15/2 20/5/5 24/18/14
f 7/81/12 26/24/16 22/26/13
f 21/20/11 25/82/20 26/21/16
f 6/36/15 24/27/14 8/34/21
f 26/83/16 25/84/20 27/85/19
f 8/34/21 28/25/18 9/45/25
f 28/30/18 31/38/23 9/86/25
f 19/87/39 12/40/24 23/39/10
f 8/34/21 30/46/27 1/37/17
f 1/37/17 30/46/27 32/88/31
f 29/89/22 27/85/19 25/84/20
f 31/38/23 29/35/22 11/49/28
f 11/90/28 29/89/22 25/84/20
f 10/48/26 31/38/23 11/49/28
f 30/91/27 10/48/26 34/92/40
f 25/41/20 12/40/24 14/51/30
f 34/92/40 10/48/26 33/50/29
f 32/88/31 30/46/27 35/93/32
f 30/94/27 34/95/40 35/53/32
f 14/51/30 12/40/24 13/96/34
f 33/97/29 39/64/33 34/95/40
f 37/60/35 34/95/40 39/64/33
f 34/95/40 37/60/35 35/53/32
f 1/66/17 32/52/31 36/3/3
f 14/54/30 13/59/34 39/55/33
f 39/55/33 13/59/34 2/58/4
f 17/1/1 37/60/35 38/98/36
f 15/99/37 39/100/33 2/101/4
f 39/64/33 15/102/37 16/65/7
f 38/98/36 40/103/38 17/1/1
f 12/57/24 19/74/39 2/58/4
o Cone.001_Cone.009
v -25.758760 -0.774443 -9.552655
v -26.594660 0.175614 -11.445916
v -24.619833 -0.763012 -11.095743
v -22.506365 7.785438 -8.908431
vt 0.000000 0.603290
vt 0.190083 0.782478
vt 0.190083 0.522456
vt 0.665321 0.234361
vt 0.552688 0.000000
vt 0.431643 0.234361
vt 0.215822 0.109576
vt 0.431643 0.261228
vt 0.431643 0.000000
vt 0.623920 0.969706
vt 0.830476 0.969706
vt 0.736833 0.755612
vn 0.5824 -0.6832 -0.4404
vn 0.3504 0.9151 0.1996
vn -0.2796 -0.6480 0.7084
vn -0.8014 -0.0642 -0.5946
s 1
f 43/104/41 44/105/42 41/106/43
f 41/107/43 44/108/42 42/109/44
f 42/110/44 44/111/42 43/112/41
f 43/113/41 41/114/43 42/115/44
o Cone.002_Cone.010
v -32.693039 1.012416 -2.965440
v -33.315609 2.263180 -4.693762
v -31.642761 0.759873 -4.596555
v -27.124603 7.972718 -1.682205
vt 0.607446 0.576423
vt 0.797529 0.755612
vt 0.797529 0.495589
vt 0.683178 0.495589
vt 0.570544 0.261228
vt 0.449500 0.495589
vt 0.000000 0.370805
vt 0.215822 0.522456
vt 0.215822 0.261228
vt 0.210807 0.979044
vt 0.417363 0.979044
vt 0.323720 0.764949
vn 0.3374 -0.7750 -0.5343
vn 0.6101 0.7447 0.2703
vn -0.4353 -0.5915 0.6786
vn -0.8120 0.2219 -0.5398
s 1
f 47/116/45 48/117/46 45/118/47
f 45/119/47 48/120/46 46/121/48
f 46/122/48 48/123/46 47/124/45
f 47/125/45 45/126/47 46/127/48
o Cone.003_Cone.011
v -21.589855 -3.331716 10.226981
v -23.049189 -2.928306 8.928281
v -21.300467 -3.608860 8.305340
v -18.462368 4.884706 8.713495
vt 0.417363 0.576423
vt 0.607446 0.755612
vt 0.607446 0.495589
vt 0.449500 0.495589
vt 0.336866 0.261228
vt 0.215822 0.495589
vt 0.000000 0.109576
vt 0.215822 0.261228
vt 0.215822 0.000000
vt 0.417363 0.969706
vt 0.623919 0.969706
vt 0.530277 0.755612
vn 0.3189 -0.7171 -0.6197
vn 0.3943 0.9176 -0.0497
vn 0.0913 -0.5175 0.8508
vn -0.9741 -0.1794 -0.1374
s 1
f 51/128/49 52/129/50 49/130/51
f 49/131/51 52/132/50 50/133/52
f 50/134/52 52/135/50 51/136/49
f 51/137/49 49/138/51 50/139/52
