# Blender v2.91.0 OBJ File: 'bigfish2.blend'
# www.blender.org
o Sphere
v -22.520906 -22.674627 -0.002737
v 35.895187 5.051992 0.262943
v 15.862969 12.714536 7.202368
v 12.467702 -13.839726 10.758728
v -12.947626 -23.554157 7.843446
v -22.421408 -17.606770 12.178080
v -10.892912 8.072827 17.026260
v -34.230034 -5.940140 8.080918
v -36.854294 6.088786 -0.821481
v -25.729239 3.083933 -16.218824
v -15.523935 0.887578 -14.730489
v -23.172194 14.485218 -2.118343
v -16.113554 16.310081 -8.437878
v -12.163111 9.666352 -15.002996
v 62.761726 9.526587 -3.159470
v 39.681236 -6.404552 -1.007038
v 19.288744 -15.295250 -4.052119
v 33.744686 -1.852067 2.420341
v -18.925676 21.657177 2.406506
v 8.153194 0.845106 15.855003
v -20.159895 13.256277 8.242827
v -9.004827 -4.072317 20.244923
v -26.703287 13.366708 3.895061
v -12.231771 -8.696003 20.321247
v -26.134905 5.348356 1.872874
v -17.621389 2.434020 12.922193
v -9.509432 5.745574 5.963426
v -20.530657 -0.403483 14.422591
v -7.509148 0.635792 -5.942129
v -30.860598 -7.232876 -14.488714
v -22.521223 -3.235903 -7.493869
v -23.142111 -21.738625 -7.364829
v -6.862719 0.019104 -18.572226
v -12.468729 -10.159064 -20.287428
v -13.918665 -20.975517 -12.661192
v -3.536074 -26.034126 -1.913052
v 13.728571 -13.192054 -11.373571
v 61.710381 -17.514839 -10.857827
v 23.965143 2.029436 -8.936366
v 37.917435 -18.971109 -1.733605
vt 0.345662 0.600626
vt 0.385899 0.507030
vt 0.339167 0.528492
vt 0.807643 0.265567
vt 0.729088 0.311167
vt 0.813374 0.305623
vt 0.841139 0.326526
vt 0.841739 0.399741
vt 0.751932 0.253331
vt 0.779672 0.385021
vt 0.135811 0.874067
vt 0.104457 0.782478
vt 0.097001 0.816385
vt 0.075752 0.874067
vt 0.782272 0.467966
vt 0.683178 0.276249
vt 0.693877 0.351919
vt 0.702380 0.385803
vt 0.746279 0.464772
vt 0.841739 0.369112
vt 0.877646 0.316256
vt 0.847875 0.318653
vt 0.798032 0.495589
vt 1.000000 0.957405
vt 0.942815 0.952490
vt 0.919977 0.983976
vt 0.889729 0.976323
vt 0.911461 0.507155
vt 0.880187 0.543748
vt 0.964581 0.541762
vt 0.665321 0.206232
vt 0.697347 0.206232
vt 0.679816 0.170443
vt 0.882855 0.894982
vt 0.869282 0.624106
vt 0.837867 0.908843
vt 0.830476 0.826960
vt 0.920941 0.665018
vt 0.828750 0.495589
vt 0.813620 0.531973
vt 0.852785 0.528601
vt 0.214616 0.522456
vt 0.190083 0.558302
vt 0.214616 0.612431
vt 0.956894 0.856919
vt 0.922145 0.757865
vt 1.000000 0.767674
vt 0.890822 0.690157
vt 0.859902 0.665616
vt 0.835993 0.688349
vt 0.805999 0.628715
vt 0.293017 0.508662
vt 0.268164 0.547175
vt 0.676583 0.043233
vt 0.774782 0.061629
vt 0.710147 0.000000
vt 0.665321 0.137759
vt 0.798321 0.128068
vt 0.671067 0.093631
vt 0.296231 0.619768
vt 0.075752 0.782478
vt 0.000000 0.838275
vt 0.075752 0.895503
vt 0.316094 0.693605
vt 0.391751 0.661500
vt 0.335612 0.495589
vt 0.841739 0.212491
vt 0.872761 0.450867
vt 0.872761 0.378728
vt 0.841739 0.416361
vt 0.188286 0.876956
vt 0.188286 0.782478
vt 0.135811 0.840661
vt 0.669401 0.170443
vt 0.762008 0.170443
vt 0.395334 0.670281
vt 0.417363 0.578903
vt 0.872847 0.000000
vt 0.864982 0.068315
vt 0.890898 0.068315
vt 0.994758 0.983053
vt 0.877646 0.378728
vt 0.864982 0.000000
vt 0.798321 0.049502
vt 0.858498 0.045372
vt 0.964581 0.632601
vt 0.802879 0.496146
vt 0.847029 0.783245
vt 0.864982 0.126262
vt 0.837047 0.175338
vt 0.939758 0.734412
vt 0.878515 0.742686
vt 0.873751 0.755612
vt 0.235425 0.545114
vt 0.215822 0.602885
vt 0.797529 0.573546
vt 0.222865 0.659374
vt 0.390137 0.653007
vt 0.875270 0.316256
vt 0.875270 0.212491
vt 0.841739 0.266662
vt 0.417363 0.764949
vt 0.390951 0.603189
vn 0.2263 -0.9684 0.1047
vn -0.0065 -0.8647 0.5023
vn 0.2528 -0.9671 -0.0275
vn 0.1477 0.8417 0.5193
vn 0.2442 0.1394 0.9596
vn 0.3411 -0.2115 0.9159
vn 0.8119 -0.3135 0.4925
vn 0.3491 0.8326 0.4299
vn 0.3474 -0.6191 0.7043
vn -0.8883 0.3097 0.3390
vn -0.4050 0.7393 0.5378
vn -0.1653 0.5018 0.8490
vn 0.0076 0.1219 0.9925
vn -0.0516 -0.2658 0.9626
vn -0.4657 -0.6052 0.6456
vn -0.9171 0.2197 0.3327
vn -0.5384 -0.8395 0.0728
vn -0.4102 0.6666 0.6224
vn -0.7926 -0.5058 -0.3404
vn -0.8441 -0.5352 0.0320
vn -0.8587 -0.1444 0.4917
vn -0.9410 0.0629 0.3325
vn 0.1870 0.9675 0.1700
vn -0.6454 0.4678 -0.6037
vn -0.6491 0.7604 0.0200
vn -0.1878 0.8191 -0.5421
vn -0.7344 -0.2514 -0.6305
vn -0.4027 0.9110 -0.0889
vn 0.1156 0.2543 -0.9602
vn -0.2337 0.4982 -0.8350
vn -0.5586 -0.7659 -0.3184
vn -0.0696 -0.7507 -0.6569
vn 0.3183 0.3596 -0.8771
vn -0.2423 0.9057 -0.3479
vn 0.2817 -0.5145 -0.8099
vn 0.9533 -0.1646 -0.2532
vn 0.9440 0.3272 -0.0424
vn 0.0004 -0.8359 0.5488
vn -0.1926 0.9760 0.1017
vn -0.0247 -0.2466 -0.9688
s 1
f 17/1/1 5/2/2 36/3/3
f 2/4/4 20/5/5 18/6/6
f 16/7/7 18/6/6 17/8/1
f 3/9/8 20/5/5 2/4/4
f 18/6/6 20/5/5 4/10/9
f 3/11/8 23/12/10 21/13/11
f 3/11/8 21/13/11 7/14/12
f 4/10/9 20/5/5 5/15/2
f 3/9/8 7/16/12 22/17/13
f 20/5/5 22/17/13 24/18/14
f 24/18/14 6/19/15 5/15/2
f 21/20/11 26/21/16 7/22/12
f 5/15/2 6/19/15 1/23/17
f 26/24/16 28/25/18 22/26/13
f 24/27/14 22/26/13 28/25/18
f 26/28/16 27/29/19 28/30/18
f 23/31/10 25/32/20 21/33/11
f 24/27/14 28/25/18 8/34/21
f 27/29/19 29/35/22 28/30/18
f 6/36/15 8/34/21 1/37/17
f 28/30/18 29/35/22 31/38/23
f 23/39/10 12/40/24 25/41/20
f 9/42/25 31/43/23 10/44/26
f 8/34/21 9/45/25 30/46/27
f 9/45/25 10/47/26 30/46/27
f 10/48/26 11/49/28 33/50/29
f 25/41/20 14/51/30 11/49/28
f 11/49/28 14/51/30 33/50/29
f 32/52/31 35/53/32 36/3/3
f 14/54/30 39/55/33 33/56/29
f 12/57/24 2/58/4 13/59/34
f 17/1/1 35/53/32 37/60/35
f 17/1/1 36/3/3 35/53/32
f 37/61/35 16/62/7 38/63/36
f 37/60/35 39/64/33 16/65/7
f 1/66/17 36/3/3 5/2/2
f 18/6/6 15/67/37 2/4/4
f 16/7/7 15/67/37 18/6/6
f 40/68/38 16/69/7 17/70/1
f 38/71/36 16/72/7 40/73/38
f 2/58/4 19/74/39 3/75/8
f 17/1/1 18/76/6 4/77/9
f 3/78/8 19/79/39 23/80/10
f 5/2/2 17/1/1 4/77/9
f 20/5/5 3/9/8 22/17/13
f 5/15/2 20/5/5 24/18/14
f 7/81/12 26/24/16 22/26/13
f 21/20/11 25/82/20 26/21/16
f 6/36/15 24/27/14 8/34/21
f 26/83/16 25/84/20 27/85/19
f 8/34/21 28/25/18 9/45/25
f 28/30/18 31/38/23 9/86/25
f 19/87/39 12/40/24 23/39/10
f 8/34/21 30/46/27 1/37/17
f 1/37/17 30/46/27 32/88/31
f 29/89/22 27/85/19 25/84/20
f 31/38/23 29/35/22 11/49/28
f 11/90/28 29/89/22 25/84/20
f 10/48/26 31/38/23 11/49/28
f 30/91/27 10/48/26 34/92/40
f 25/41/20 12/40/24 14/51/30
f 34/92/40 10/48/26 33/50/29
f 32/88/31 30/46/27 35/93/32
f 30/94/27 34/95/40 35/53/32
f 14/51/30 12/40/24 13/96/34
f 33/97/29 39/64/33 34/95/40
f 37/60/35 34/95/40 39/64/33
f 34/95/40 37/60/35 35/53/32
f 1/66/17 32/52/31 36/3/3
f 14/54/30 13/59/34 39/55/33
f 39/55/33 13/59/34 2/58/4
f 17/1/1 37/60/35 38/98/36
f 15/99/37 39/100/33 2/101/4
f 39/64/33 15/102/37 16/65/7
f 38/98/36 40/103/38 17/1/1
f 12/57/24 19/74/39 2/58/4
o Cone.001_Cone.009
v -25.409710 0.320195 -9.552658
v -26.188236 1.338328 -11.445918
v -24.295750 0.270443 -11.095744
v -21.622688 8.635801 -8.908430
vt 0.000000 0.603290
vt 0.190083 0.782478
vt 0.190083 0.522456
vt 0.665321 0.234361
vt 0.552688 0.000000
vt 0.431643 0.234361
vt 0.215822 0.109576
vt 0.431643 0.261228
vt 0.431643 0.000000
vt 0.623920 0.969706
vt 0.830476 0.969706
vt 0.736833 0.755612
vn 0.5334 -0.7193 -0.4450
vn 0.4097 0.8900 0.2001
vn -0.3160 -0.6323 0.7074
vn -0.8042 -0.0082 -0.5943
s 1
f 43/104/41 44/105/42 41/106/43
f 41/107/43 44/108/42 42/109/44
f 42/110/44 44/111/42 43/112/41
f 43/113/41 41/114/43 42/115/44
o Cone.002_Cone.010
v -32.309975 2.749855 -2.965441
v -32.837463 4.043596 -4.693762
v -31.281477 2.419631 -4.596555
v -26.237589 9.275146 -1.682205
vt 0.607446 0.576423
vt 0.797529 0.755612
vt 0.797529 0.495589
vt 0.683178 0.495589
vt 0.570544 0.261228
vt 0.449500 0.495589
vt 0.000000 0.370805
vt 0.215822 0.522456
vt 0.215822 0.261228
vt 0.210807 0.979044
vt 0.417363 0.979044
vt 0.323720 0.764949
vn 0.2786 -0.7980 -0.5343
vn 0.6640 0.6971 0.2703
vn -0.4783 -0.5574 0.6786
vn -0.7932 0.2819 -0.5398
s 1
f 47/116/45 48/117/46 45/118/47
f 45/119/47 48/120/46 46/121/48
f 46/122/48 48/123/46 47/124/45
f 47/125/45 45/126/47 46/127/48
o Cone.003_Cone.011
v -21.190779 -2.842033 10.226982
v -22.564539 -2.443103 8.928281
v -20.914749 -3.134727 8.305341
v -17.815933 5.102925 8.713495
vt 0.417363 0.576423
vt 0.607446 0.755612
vt 0.607446 0.495589
vt 0.449500 0.495589
vt 0.336866 0.261228
vt 0.215822 0.495589
vt 0.000000 0.109576
vt 0.215822 0.261228
vt 0.215822 0.000000
vt 0.417363 0.969706
vt 0.623919 0.969706
vt 0.530277 0.755612
vn 0.2909 -0.7247 -0.6246
vn 0.4265 0.9031 -0.0505
vn 0.0654 -0.5094 0.8580
vn -0.9774 -0.1570 -0.1415
s 1
f 51/128/49 52/129/50 49/130/51
f 49/131/51 52/132/50 50/133/52
f 50/134/52 52/135/50 51/136/49
f 51/137/49 49/138/51 50/139/52
