# Blender v2.91.0 OBJ File: 'bigfish2.blend'
# www.blender.org
o Sphere
v -15.874098 -26.155560 0.284429
v 35.268536 5.051991 -7.713564
v 20.627239 10.184237 5.155936
v 14.793914 -13.200305 9.079764
v -7.069555 -24.310595 8.150107
v -17.436815 -21.348227 12.391724
v -4.796923 9.002019 17.163572
v -31.598719 -14.723740 8.080918
v -38.365135 -4.437955 -0.821482
v -27.784918 -1.651002 -16.218824
v -16.533880 1.307026 -14.407464
v -8.060047 19.367544 -2.078869
v -2.944519 17.208702 -8.263110
v -5.641804 10.980935 -14.795301
v 56.578682 9.526585 -24.995356
v 37.953915 -6.404553 -11.186626
v 18.142454 -15.295251 -6.707153
v 33.722420 -1.852067 -4.361216
v -1.676279 23.423780 2.524093
v 10.127007 0.332927 15.392276
v -7.142265 16.883810 8.363154
v -8.722418 -4.170548 20.368538
v -11.229059 20.765688 3.895065
v -11.235601 -9.666435 20.442759
v -16.139624 14.401459 1.872878
v -15.202299 6.700608 13.243024
v -6.544786 6.633471 6.643855
v -22.088064 -2.694580 14.479519
v -7.191338 0.811560 -5.743419
v -28.258696 -14.480529 -14.488714
v -23.054007 -6.607739 -7.493869
v -16.866571 -25.437799 -7.046004
v -6.740108 0.204619 -18.248524
v -11.443232 -11.172156 -19.946138
v -9.193922 -21.984581 -12.260710
v 0.187691 -25.462921 -1.679257
v 11.565389 -12.611758 -12.617543
v 51.691010 -17.514841 -31.035276
v 21.541838 1.759446 -12.585068
v 36.182976 -18.971109 -10.448771
vt 0.345662 0.600626
vt 0.385899 0.507030
vt 0.339167 0.528492
vt 0.807643 0.265567
vt 0.729088 0.311167
vt 0.813374 0.305623
vt 0.841139 0.326526
vt 0.841739 0.399741
vt 0.751932 0.253331
vt 0.779672 0.385021
vt 0.135811 0.874067
vt 0.104457 0.782478
vt 0.097001 0.816385
vt 0.075752 0.874067
vt 0.782272 0.467966
vt 0.683178 0.276249
vt 0.693877 0.351919
vt 0.702380 0.385803
vt 0.746279 0.464772
vt 0.841739 0.369112
vt 0.877646 0.316256
vt 0.847875 0.318653
vt 0.798032 0.495589
vt 1.000000 0.957405
vt 0.942815 0.952490
vt 0.919977 0.983976
vt 0.889729 0.976323
vt 0.911461 0.507155
vt 0.880187 0.543748
vt 0.964581 0.541762
vt 0.665321 0.206232
vt 0.697347 0.206232
vt 0.679816 0.170443
vt 0.882855 0.894982
vt 0.869282 0.624106
vt 0.837867 0.908843
vt 0.830476 0.826960
vt 0.920941 0.665018
vt 0.828750 0.495589
vt 0.813620 0.531973
vt 0.852785 0.528601
vt 0.214616 0.522456
vt 0.190083 0.558302
vt 0.214616 0.612431
vt 0.956894 0.856919
vt 0.922145 0.757865
vt 1.000000 0.767674
vt 0.890822 0.690157
vt 0.859902 0.665616
vt 0.835993 0.688349
vt 0.805999 0.628715
vt 0.293017 0.508662
vt 0.268164 0.547175
vt 0.676583 0.043233
vt 0.774782 0.061629
vt 0.710147 0.000000
vt 0.665321 0.137759
vt 0.798321 0.128068
vt 0.671067 0.093631
vt 0.296231 0.619768
vt 0.075752 0.782478
vt 0.000000 0.838275
vt 0.075752 0.895503
vt 0.316094 0.693605
vt 0.391751 0.661500
vt 0.335612 0.495589
vt 0.841739 0.212491
vt 0.872761 0.450867
vt 0.872761 0.378728
vt 0.841739 0.416361
vt 0.188286 0.876956
vt 0.188286 0.782478
vt 0.135811 0.840661
vt 0.669401 0.170443
vt 0.762008 0.170443
vt 0.395334 0.670281
vt 0.417363 0.578903
vt 0.872847 0.000000
vt 0.864982 0.068315
vt 0.890898 0.068315
vt 0.994758 0.983053
vt 0.877646 0.378728
vt 0.864982 0.000000
vt 0.798321 0.049502
vt 0.858498 0.045372
vt 0.964581 0.632601
vt 0.802879 0.496146
vt 0.847029 0.783245
vt 0.864982 0.126262
vt 0.837047 0.175338
vt 0.939758 0.734412
vt 0.878515 0.742686
vt 0.873751 0.755612
vt 0.235425 0.545114
vt 0.215822 0.602885
vt 0.797529 0.573546
vt 0.222865 0.659374
vt 0.390137 0.653007
vt 0.875270 0.316256
vt 0.875270 0.212491
vt 0.841739 0.266662
vt 0.417363 0.764949
vt 0.390951 0.603189
vn 0.2988 -0.9524 0.0606
vn 0.1924 -0.8321 0.5202
vn 0.3664 -0.9304 -0.0081
vn 0.4285 0.7937 0.4317
vn 0.3192 0.2093 0.9243
vn 0.6515 -0.2019 0.7312
vn 0.9430 -0.2907 0.1621
vn 0.5622 0.5463 0.6208
vn 0.4941 -0.5807 0.6470
vn -0.5263 0.7973 0.2953
vn -0.0993 0.7611 0.6409
vn 0.0417 0.4751 0.8790
vn -0.0230 0.1454 0.9891
vn -0.0528 -0.2564 0.9651
vn -0.2562 -0.7162 0.6491
vn -0.8563 0.4611 0.2328
vn -0.2834 -0.9555 0.0819
vn -0.6139 0.5413 0.5745
vn -0.9265 -0.1527 -0.3439
vn -0.9792 0.1974 0.0457
vn -0.7570 -0.4524 0.4714
vn -0.9041 0.2419 0.3522
vn -0.1363 0.9677 0.2121
vn -0.3276 0.7927 -0.5140
vn -0.9004 0.4347 0.0194
vn -0.5163 0.6816 -0.5184
vn -0.6005 -0.4926 -0.6298
vn -0.5275 0.8320 -0.1715
vn 0.0008 0.2446 -0.9696
vn -0.1614 0.5772 -0.8004
vn -0.3214 -0.8941 -0.3119
vn 0.0876 -0.7357 -0.6716
vn 0.1006 0.2562 -0.9614
vn 0.0651 0.8760 -0.4779
vn 0.1820 -0.4782 -0.8592
vn 0.7072 -0.1682 -0.6867
vn 0.7943 0.3287 -0.5109
vn 0.2825 -0.7678 0.5751
vn 0.1048 0.9727 0.2068
vn -0.0021 -0.2389 -0.9710
s 1
f 17/1/1 5/2/2 36/3/3
f 2/4/4 20/5/5 18/6/6
f 16/7/7 18/6/6 17/8/1
f 3/9/8 20/5/5 2/4/4
f 18/6/6 20/5/5 4/10/9
f 3/11/8 23/12/10 21/13/11
f 3/11/8 21/13/11 7/14/12
f 4/10/9 20/5/5 5/15/2
f 3/9/8 7/16/12 22/17/13
f 20/5/5 22/17/13 24/18/14
f 24/18/14 6/19/15 5/15/2
f 21/20/11 26/21/16 7/22/12
f 5/15/2 6/19/15 1/23/17
f 26/24/16 28/25/18 22/26/13
f 24/27/14 22/26/13 28/25/18
f 26/28/16 27/29/19 28/30/18
f 23/31/10 25/32/20 21/33/11
f 24/27/14 28/25/18 8/34/21
f 27/29/19 29/35/22 28/30/18
f 6/36/15 8/34/21 1/37/17
f 28/30/18 29/35/22 31/38/23
f 23/39/10 12/40/24 25/41/20
f 9/42/25 31/43/23 10/44/26
f 8/34/21 9/45/25 30/46/27
f 9/45/25 10/47/26 30/46/27
f 10/48/26 11/49/28 33/50/29
f 25/41/20 14/51/30 11/49/28
f 11/49/28 14/51/30 33/50/29
f 32/52/31 35/53/32 36/3/3
f 14/54/30 39/55/33 33/56/29
f 12/57/24 2/58/4 13/59/34
f 17/1/1 35/53/32 37/60/35
f 17/1/1 36/3/3 35/53/32
f 37/61/35 16/62/7 38/63/36
f 37/60/35 39/64/33 16/65/7
f 1/66/17 36/3/3 5/2/2
f 18/6/6 15/67/37 2/4/4
f 16/7/7 15/67/37 18/6/6
f 40/68/38 16/69/7 17/70/1
f 38/71/36 16/72/7 40/73/38
f 2/58/4 19/74/39 3/75/8
f 17/1/1 18/76/6 4/77/9
f 3/78/8 19/79/39 23/80/10
f 5/2/2 17/1/1 4/77/9
f 20/5/5 3/9/8 22/17/13
f 5/15/2 20/5/5 24/18/14
f 7/81/12 26/24/16 22/26/13
f 21/20/11 25/82/20 26/21/16
f 6/36/15 24/27/14 8/34/21
f 26/83/16 25/84/20 27/85/19
f 8/34/21 28/25/18 9/45/25
f 28/30/18 31/38/23 9/86/25
f 19/87/39 12/40/24 23/39/10
f 8/34/21 30/46/27 1/37/17
f 1/37/17 30/46/27 32/88/31
f 29/89/22 27/85/19 25/84/20
f 31/38/23 29/35/22 11/49/28
f 11/90/28 29/89/22 25/84/20
f 10/48/26 31/38/23 11/49/28
f 30/91/27 10/48/26 34/92/40
f 25/41/20 12/40/24 14/51/30
f 34/92/40 10/48/26 33/50/29
f 32/88/31 30/46/27 35/93/32
f 30/94/27 34/95/40 35/53/32
f 14/51/30 12/40/24 13/96/34
f 33/97/29 39/64/33 34/95/40
f 37/60/35 34/95/40 39/64/33
f 34/95/40 37/60/35 35/53/32
f 1/66/17 32/52/31 36/3/3
f 14/54/30 13/59/34 39/55/33
f 39/55/33 13/59/34 2/58/4
f 17/1/1 37/60/35 38/98/36
f 15/99/37 39/100/33 2/101/4
f 39/64/33 15/102/37 16/65/7
f 38/98/36 40/103/38 17/1/1
f 12/57/24 19/74/39 2/58/4
o Cone.001_Cone.009
v -26.253086 -5.016638 -9.552658
v -27.259684 -4.390310 -11.445918
v -25.073343 -4.791178 -11.095744
v -25.190592 3.985549 -8.908431
vt 0.000000 0.603290
vt 0.190083 0.782478
vt 0.190083 0.522456
vt 0.665321 0.234361
vt 0.552688 0.000000
vt 0.431643 0.234361
vt 0.215822 0.109576
vt 0.431643 0.261228
vt 0.431643 0.000000
vt 0.623920 0.969706
vt 0.830476 0.969706
vt 0.736833 0.755612
vn 0.7388 -0.5241 -0.4236
vn 0.1125 0.9733 0.2002
vn -0.1323 -0.6795 0.7216
vn -0.7545 -0.2750 -0.5958
s 1
f 43/104/41 44/105/42 41/106/43
f 41/107/43 44/108/42 42/109/44
f 42/110/44 44/111/42 43/112/41
f 43/113/41 41/114/43 42/115/44
o Cone.002_Cone.010
v -32.925255 -5.923579 -2.965441
v -33.881901 -4.905329 -4.693762
v -31.846769 -5.862694 -4.596555
v -29.599220 2.346289 -1.682205
vt 0.607446 0.576423
vt 0.797529 0.755612
vt 0.797529 0.495589
vt 0.683178 0.495589
vt 0.570544 0.261228
vt 0.449500 0.495589
vt 0.000000 0.370805
vt 0.215822 0.522456
vt 0.215822 0.261228
vt 0.210807 0.979044
vt 0.417363 0.979044
vt 0.323720 0.764949
vn 0.5465 -0.6449 -0.5343
vn 0.3696 0.8890 0.2703
vn -0.2463 -0.6919 0.6786
vn -0.8415 -0.0215 -0.5398
s 1
f 47/116/45 48/117/46 45/118/47
f 45/119/47 48/120/46 46/121/48
f 46/122/48 48/123/46 47/124/45
f 47/125/45 45/126/47 46/127/48
o Cone.003_Cone.011
v -22.543186 -4.840162 10.226981
v -24.246813 -4.358002 8.928279
v -22.224144 -5.042806 8.305340
v -20.324305 3.874024 8.713495
vt 0.417363 0.576423
vt 0.607446 0.755612
vt 0.607446 0.495589
vt 0.449500 0.495589
vt 0.336866 0.261228
vt 0.215822 0.495589
vt 0.000000 0.109576
vt 0.215822 0.261228
vt 0.215822 0.000000
vt 0.417363 0.969706
vt 0.623919 0.969706
vt 0.530277 0.755612
vn 0.3907 -0.6901 -0.6092
vn 0.2966 0.9537 -0.0487
vn 0.1610 -0.5450 0.8228
vn -0.9667 -0.2225 -0.1263
s 1
f 51/128/49 52/129/50 49/130/51
f 49/131/51 52/132/50 50/133/52
f 50/134/52 52/135/50 51/136/49
f 51/137/49 49/138/51 50/139/52
