# Blender v2.91.0 OBJ File: 'uglyfish.blend'
# www.blender.org
o Cylinder
v 2.169980 1.723806 2.693598
v 10.481229 1.565035 -1.352400
v 2.544779 -3.322734 3.613254
v 10.734387 -0.434533 -0.987089
v 3.281396 -3.322733 5.345196
v 11.245080 -0.434533 -0.256444
v 3.615645 1.723807 6.141481
v 11.499572 1.565035 0.111075
v 3.296793 6.770345 5.368321
v 11.288918 3.564603 -0.151183
v 2.560278 6.770345 3.648074
v 10.793406 3.564603 -0.903097
v 13.126006 1.565035 -3.029052
v 13.340623 -0.106012 -2.722003
v 13.769853 -0.106012 -2.107904
v 13.984469 1.565036 -1.800855
v 13.771816 3.236083 -2.104288
v 13.343086 3.236083 -2.719060
v -4.128434 0.975311 2.959115
v -3.827797 -2.118986 4.672775
v -3.252015 -2.118985 8.142894
v -2.947065 0.975311 9.881852
v -3.220391 4.069606 8.170321
v -3.841563 4.069606 4.716654
v -7.714159 -0.000001 7.018953
v 16.781971 -2.374179 -5.875175
v 15.092845 1.565036 -4.886917
v 17.913479 -2.374179 -4.256332
v 16.405018 1.565036 -3.009601
v 18.043613 5.345479 -4.347292
v 16.912106 5.345478 -5.966133
v 5.032207 10.749131 3.502100
v 11.961723 5.289737 -1.144227
v 5.559288 -3.084553 3.962345
v 4.748458 -3.084553 2.644437
v 3.295337 -3.322733 5.327075
v 2.512247 -3.322734 3.509785
v 5.564127 -3.084553 3.917943
v 4.708450 -3.084553 2.625319
v 5.921157 -5.632799 2.821676
vt 0.372143 0.472148
vt 0.258325 0.720793
vt 0.242460 0.386736
vt 0.938486 0.528774
vt 0.905700 0.292486
vt 0.929640 0.292486
vt 0.203802 0.721635
vt 0.105289 0.388938
vt 0.306368 0.829334
vt 0.262558 0.830351
vt 0.870744 0.639560
vt 0.846803 0.639560
vt 0.857904 0.590685
vt 0.478534 0.611220
vt 0.632337 0.279114
vt 0.613955 0.613343
vt 0.169546 0.150388
vt 0.256430 0.149534
vt 0.578685 0.278296
vt 0.636952 0.169521
vt 0.216987 0.831053
vt 0.907609 0.194789
vt 0.927731 0.194789
vt 0.882302 0.194789
vt 0.860270 0.294001
vt 0.858361 0.194789
vt 0.686048 0.280212
vt 0.681838 0.170439
vt 0.268107 0.000000
vt 0.335054 0.147203
vt 0.916289 0.194789
vt 0.843809 0.000000
vt 0.938291 0.000000
vt 0.843809 0.103162
vt 0.749499 0.337643
vt 0.793422 0.101177
vt 0.707151 0.852771
vt 0.623966 0.850736
vt 0.375218 0.383745
vt 0.541008 0.849806
vt 0.749499 0.618796
vt 0.796740 0.502900
vt 0.843981 0.618796
vt 0.644178 0.999890
vt 0.843809 0.341358
vt 0.781534 0.502900
vt 0.880392 0.294001
vt 0.843809 0.463147
vt 0.954752 0.000000
vt 0.991336 0.126436
vt 0.938291 0.126436
vt 0.942721 0.419028
vt 1.000000 0.321878
vt 0.995765 0.419028
vt 0.896854 0.528774
vt 0.954132 0.625992
vt 0.901088 0.625992
vt 0.267392 0.924248
vt 0.640864 0.075648
vt 0.749499 0.009260
vt 0.592114 0.168838
vt 0.168996 1.000000
vt 0.829081 0.000000
vt 0.375218 0.527636
vt 0.534033 0.238664
vt 0.000000 0.472521
vt 0.000000 0.000000
vt 0.000000 0.000000
vt 0.000000 0.000000
vt 0.000000 0.000000
vt 0.000000 0.000000
vt 0.000000 0.000000
vt 0.000000 0.000000
vt 0.000000 0.000000
vt 0.746827 0.527628
vt 0.938291 0.181252
vt 0.959108 0.126436
vt 0.979924 0.181252
vt 0.987690 0.321878
vt 0.938486 0.239353
vt 0.987690 0.194789
vt 0.938486 0.517826
vt 0.988328 0.419028
vt 0.988328 0.523040
vt 0.896854 0.590685
vt 0.846803 0.545461
vt 0.896854 0.463147
vt 0.310754 0.719577
vt 0.896854 0.528774
vt 0.865811 0.194789
vt 0.749499 0.616056
vt 0.896853 0.463147
vt 0.974874 0.000000
vt 0.938486 0.321878
vt 0.958367 0.528774
vt 0.375218 0.990468
vt 0.542486 0.000000
vt 0.158164 0.761249
vn 0.6021 -0.1147 0.7902
vn 0.2874 -0.9365 -0.2009
vn 0.6032 0.1579 0.7818
vn 0.5951 -0.2185 0.7734
vn 0.7025 -0.5405 -0.4630
vn -0.4258 0.1998 -0.8825
vn 0.3956 0.4710 0.7884
vn -0.5165 0.2637 -0.8147
vn 0.6232 0.1659 0.7643
vn 0.0856 -0.9945 -0.0598
vn 0.0872 0.9945 -0.0575
vn -0.5215 -0.2185 -0.8248
vn -0.4034 -0.4177 0.8141
vn -0.1807 -0.9831 0.0300
vn -0.3271 0.9346 0.1400
vn 0.0205 -0.4829 -0.8755
vn 0.2645 -0.4922 0.8294
vn -0.2422 0.1984 -0.9497
vn -0.4429 -0.8936 0.0735
vn -0.6261 -0.4234 -0.6547
vn -0.5326 0.3732 0.7597
vn -0.7357 0.3848 -0.5574
vn -0.6833 0.7197 0.1229
vn -0.3309 0.9150 0.2307
vn -0.3608 -0.8979 0.2522
vn 0.7345 0.4438 -0.5134
vn 0.7158 -0.4873 -0.5003
vn 0.4362 -0.2165 0.8734
vn -0.7164 -0.1355 -0.6844
vn -0.6701 0.2186 -0.7094
vn 0.4028 0.1452 0.9037
vn -0.7933 0.5053 0.3396
vn -0.4463 0.1797 -0.8767
vn 0.5950 0.1136 0.7956
vn 0.1119 -0.9936 0.0122
vn 0.0000 -1.0000 0.0000
vn -0.0958 0.9949 0.0301
vn -0.4353 -0.2148 -0.8743
vn -0.8025 -0.3350 0.4937
vn -0.5189 0.2868 -0.8053
vn -0.5137 -0.8279 0.2250
vn 0.3702 0.2329 0.8993
vn 0.5244 -0.1665 0.8351
vn 0.6449 -0.2168 0.7329
vn 0.3015 -0.9352 -0.1855
vn 0.6012 0.1659 0.7817
vn 0.5954 -0.2179 0.7733
vn -0.3879 0.2593 -0.8845
vn 0.3318 0.1633 0.9291
vn -0.5468 0.2209 -0.8076
vn 0.5954 0.2163 0.7738
vn 0.0850 0.9946 -0.0593
vn -0.5227 -0.2168 -0.8245
vn -0.1537 -0.9860 0.0654
vn -0.3781 0.9232 0.0680
vn -0.1958 -0.1899 -0.9621
vn 0.5025 -0.1671 0.8483
vn -0.0955 0.4983 -0.8617
vn -0.3305 0.9151 0.2310
vn 0.3966 -0.1355 0.9079
vn -0.6704 -0.2165 -0.7097
vn -0.7116 0.1463 -0.6872
vn 0.4364 0.2142 0.8739
vn -0.4053 0.2192 -0.8875
vn 0.6414 0.1793 0.7460
vn 0.1904 -0.9707 0.1465
vn -0.0558 0.9916 0.1168
vn -0.0000 1.0000 -0.0000
vn -0.3773 -0.1931 -0.9057
vn -0.4302 -0.2218 -0.8751
s off
f 34/1/1 8/2/1 7/3/1
f 34/4/2 4/5/2 6/6/2
f 7/3/3 10/7/3 9/8/3
f 8/2/4 15/9/4 16/10/4
f 10/11/5 12/12/5 33/13/5
f 11/14/6 2/15/6 1/16/6
f 7/3/7 23/17/7 22/18/7
f 12/19/8 13/20/8 2/15/8
f 8/2/9 17/21/9 10/7/9
f 6/6/10 14/22/10 15/23/10
f 10/24/11 18/25/11 12/26/11
f 4/27/12 13/20/12 14/28/12
f 22/18/13 25/29/13 21/30/13
f 3/31/14 21/32/14 20/33/14
f 11/34/15 23/35/15 9/36/15
f 1/16/16 20/37/16 19/38/16
f 5/39/17 22/18/17 21/30/17
f 1/16/18 24/40/18 11/14/18
f 21/41/19 25/42/19 20/43/19
f 20/37/20 25/44/20 19/38/20
f 23/17/21 25/29/21 22/18/21
f 19/38/22 25/44/22 24/40/22
f 24/45/23 25/46/23 23/35/23
f 17/47/24 31/48/24 18/25/24
f 15/49/25 26/50/25 28/51/25
f 26/52/26 29/53/26 28/54/26
f 29/55/27 31/56/27 30/57/27
f 15/9/28 29/58/28 16/10/28
f 14/28/29 27/59/29 26/60/29
f 18/61/30 27/59/30 13/20/30
f 17/21/31 29/58/31 30/62/31
f 11/34/32 9/36/32 32/63/32
f 12/19/33 32/64/33 33/65/33
f 10/7/34 32/66/34 9/8/34
f 34/67/35 36/68/35 38/69/35
f 3/70/36 36/68/36 5/71/36
f 3/70/37 39/72/37 37/73/37
f 35/74/36 38/69/36 39/72/36
f 2/15/38 4/27/38 35/75/38
f 35/76/39 40/77/39 34/78/39
f 5/79/40 34/80/40 40/81/40
f 3/82/41 40/83/41 36/84/41
f 40/85/42 35/86/42 3/87/42
f 7/3/43 5/39/43 34/1/43
f 34/1/44 6/88/44 8/2/44
f 34/4/45 35/89/45 4/5/45
f 7/3/46 8/2/46 10/7/46
f 8/2/47 6/88/47 15/9/47
f 11/14/48 12/19/48 2/15/48
f 7/3/49 9/8/49 23/17/49
f 12/19/50 18/61/50 13/20/50
f 8/2/51 16/10/51 17/21/51
f 6/6/10 4/5/10 14/22/10
f 10/24/52 17/47/52 18/25/52
f 4/27/53 2/15/53 13/20/53
f 3/31/54 5/90/54 21/32/54
f 11/34/55 24/45/55 23/35/55
f 1/16/56 3/91/56 20/37/56
f 5/39/57 7/3/57 22/18/57
f 1/16/58 19/38/58 24/40/58
f 17/47/59 30/92/59 31/48/59
f 15/49/25 14/93/25 26/50/25
f 26/52/26 27/94/26 29/53/26
f 29/55/27 27/95/27 31/56/27
f 15/9/60 28/96/60 29/58/60
f 14/28/61 13/20/61 27/59/61
f 18/61/62 31/97/62 27/59/62
f 17/21/63 16/10/63 29/58/63
f 12/19/64 11/14/64 32/64/64
f 10/7/65 33/98/65 32/66/65
f 34/67/66 5/71/66 36/68/66
f 3/70/36 37/73/36 36/68/36
f 3/70/67 35/74/67 39/72/67
f 35/74/68 34/67/68 38/69/68
f 35/75/69 3/91/69 1/16/69
f 1/16/70 2/15/70 35/75/70
