# Blender v2.91.0 OBJ File: 'uglyfish.blend'
# www.blender.org
o Cylinder
v 1.847584 1.723806 2.121549
v 9.917317 1.565035 -2.564521
v 2.292508 -3.322734 3.012205
v 10.170337 -0.434533 -2.193218
v 3.157732 -3.322732 4.684117
v 10.663049 -0.434533 -1.450330
v 3.551748 1.723807 5.447079
v 10.911824 1.565035 -1.085642
v 3.153522 6.770345 4.683730
v 10.714744 3.564603 -1.389865
v 2.300939 6.770345 3.029719
v 10.195973 3.564603 -2.126390
v 12.611070 1.565035 -4.176218
v 12.818128 -0.106012 -3.864023
v 13.232247 -0.106012 -3.239634
v 13.439307 1.565036 -2.927439
v 13.225971 3.236083 -3.250482
v 12.810385 3.236083 -3.872782
v -4.347750 0.975311 2.790143
v -3.955075 -2.118986 4.482632
v -3.194670 -2.118985 7.916425
v -2.795457 0.975311 9.636386
v -3.157989 4.069606 7.944291
v -3.967065 4.069606 4.531797
v -7.712999 -0.000001 7.025365
v 16.335392 -2.374179 -6.932283
v 14.622657 1.565036 -5.985538
v 17.427063 -2.374178 -5.286315
v 15.888629 1.565036 -4.076762
v 17.559380 5.345479 -5.374071
v 16.467709 5.345478 -7.020041
v 4.728589 10.749131 2.665499
v 11.356386 5.289737 -2.405379
v 5.293237 -3.084553 3.090159
v 4.390971 -3.084554 1.833961
v 3.170313 -3.322732 4.662116
v 2.249140 -3.322734 2.905255
v 5.323514 -3.084553 3.075947
v 4.369842 -3.084554 1.853830
v 5.572450 -5.632798 1.925921
vt 0.372143 0.472148
vt 0.258325 0.720793
vt 0.242460 0.386736
vt 0.938486 0.528774
vt 0.905700 0.292486
vt 0.929640 0.292486
vt 0.203802 0.721635
vt 0.105289 0.388938
vt 0.306368 0.829334
vt 0.262558 0.830351
vt 0.870744 0.639560
vt 0.846803 0.639560
vt 0.857904 0.590685
vt 0.478534 0.611220
vt 0.632337 0.279114
vt 0.613955 0.613343
vt 0.169546 0.150388
vt 0.256430 0.149534
vt 0.578685 0.278296
vt 0.636952 0.169521
vt 0.216987 0.831053
vt 0.907609 0.194789
vt 0.927731 0.194789
vt 0.882302 0.194789
vt 0.860270 0.294001
vt 0.858361 0.194789
vt 0.686048 0.280212
vt 0.681838 0.170439
vt 0.268107 0.000000
vt 0.335054 0.147203
vt 0.916289 0.194789
vt 0.843809 0.000000
vt 0.938291 0.000000
vt 0.843809 0.103162
vt 0.749499 0.337643
vt 0.793422 0.101177
vt 0.707151 0.852771
vt 0.623966 0.850736
vt 0.375218 0.383745
vt 0.541008 0.849806
vt 0.749499 0.618796
vt 0.796740 0.502900
vt 0.843981 0.618796
vt 0.644178 0.999890
vt 0.843809 0.341358
vt 0.781534 0.502900
vt 0.880392 0.294001
vt 0.843809 0.463147
vt 0.954752 0.000000
vt 0.991336 0.126436
vt 0.938291 0.126436
vt 0.942721 0.419028
vt 1.000000 0.321878
vt 0.995765 0.419028
vt 0.896854 0.528774
vt 0.954132 0.625992
vt 0.901088 0.625992
vt 0.267392 0.924248
vt 0.640864 0.075648
vt 0.749499 0.009260
vt 0.592114 0.168838
vt 0.168996 1.000000
vt 0.829081 0.000000
vt 0.375218 0.527636
vt 0.534033 0.238664
vt 0.000000 0.472521
vt 0.000000 0.000000
vt 0.000000 0.000000
vt 0.000000 0.000000
vt 0.000000 0.000000
vt 0.000000 0.000000
vt 0.000000 0.000000
vt 0.000000 0.000000
vt 0.000000 0.000000
vt 0.746827 0.527628
vt 0.938291 0.181252
vt 0.959108 0.126436
vt 0.979924 0.181252
vt 0.987690 0.321878
vt 0.938486 0.239353
vt 0.987690 0.194789
vt 0.938486 0.517826
vt 0.988328 0.419028
vt 0.988328 0.523040
vt 0.896854 0.590685
vt 0.846803 0.545461
vt 0.896854 0.463147
vt 0.310754 0.719577
vt 0.896854 0.528774
vt 0.865811 0.194789
vt 0.749499 0.616056
vt 0.896853 0.463147
vt 0.974874 0.000000
vt 0.938486 0.321878
vt 0.958367 0.528774
vt 0.375218 0.990468
vt 0.542486 0.000000
vt 0.158164 0.761249
vn 0.6570 -0.1264 0.7432
vn 0.2956 -0.9350 -0.1961
vn 0.6590 0.1631 0.7343
vn 0.5747 -0.2185 0.7886
vn 0.6877 -0.5409 -0.4843
vn -0.4894 0.1968 -0.8495
vn 0.4474 0.4689 0.7616
vn -0.4970 0.2513 -0.8306
vn 0.6007 0.1778 0.7794
vn 0.0870 -0.9945 -0.0577
vn 0.0850 0.9946 -0.0599
vn -0.5012 -0.2185 -0.8373
vn -0.3602 -0.4173 0.8343
vn -0.1800 -0.9829 0.0399
vn -0.3159 0.9347 0.1628
vn -0.0360 -0.4831 -0.8748
vn 0.3191 -0.4916 0.8103
vn -0.3073 0.1952 -0.9314
vn -0.4382 -0.8936 0.0970
vn -0.6592 -0.4235 -0.6213
vn -0.4918 0.3727 0.7869
vn -0.7636 0.3855 -0.5180
vn -0.6754 0.7198 0.1601
vn -0.3352 0.9152 0.2239
vn -0.3668 -0.8979 0.2433
vn 0.7468 0.4438 -0.4953
vn 0.7277 -0.4873 -0.4827
vn 0.4147 -0.2165 0.8838
vn -0.6995 -0.1355 -0.7017
vn -0.6538 0.2100 -0.7269
vn 0.3764 0.1475 0.9146
vn -0.7675 0.5045 0.3956
vn -0.4910 0.1929 -0.8495
vn 0.6524 0.1212 0.7481
vn 0.1767 0.9095 0.3764
vn 0.0000 -1.0000 0.0000
vn -0.0930 0.9949 0.0377
vn -0.4884 -0.2187 -0.8448
vn -0.7653 -0.3350 0.5497
vn -0.5941 0.2795 -0.7542
vn -0.4956 -0.8276 0.2637
vn 0.4541 0.2415 0.8576
vn 0.6017 -0.1651 0.7815
vn 0.6899 -0.2121 0.6921
vn 0.2860 -0.9359 -0.2054
vn 0.6555 0.1763 0.7343
vn 0.5765 -0.2155 0.7882
vn -0.4559 0.2507 -0.8540
vn 0.3948 0.1678 0.9033
vn -0.5242 0.2123 -0.8247
vn 0.5738 0.2255 0.7874
vn 0.0870 0.9945 -0.0581
vn -0.5010 -0.2189 -0.8373
vn -0.1479 -0.9860 0.0765
vn -0.3760 0.9223 0.0892
vn -0.2595 -0.1900 -0.9469
vn 0.5568 -0.1665 0.8138
vn -0.1524 0.4989 -0.8531
vn -0.3362 0.9150 0.2230
vn 0.3743 -0.1355 0.9173
vn -0.6529 -0.2165 -0.7259
vn -0.6919 0.1441 -0.7075
vn 0.4141 0.2234 0.8824
vn -0.4732 0.2104 -0.8554
vn 0.6818 0.1659 0.7125
vn 0.1899 -0.9758 0.1086
vn 0.2605 -0.9249 0.2771
vn -0.0000 1.0000 -0.0000
vn -0.4635 -0.1935 -0.8647
vn -0.4940 -0.2108 -0.8435
s off
f 34/1/1 8/2/1 7/3/1
f 34/4/2 4/5/2 6/6/2
f 7/3/3 10/7/3 9/8/3
f 8/2/4 15/9/4 16/10/4
f 10/11/5 12/12/5 33/13/5
f 11/14/6 2/15/6 1/16/6
f 7/3/7 23/17/7 22/18/7
f 12/19/8 13/20/8 2/15/8
f 8/2/9 17/21/9 10/7/9
f 6/6/10 14/22/10 15/23/10
f 10/24/11 18/25/11 12/26/11
f 4/27/12 13/20/12 14/28/12
f 22/18/13 25/29/13 21/30/13
f 3/31/14 21/32/14 20/33/14
f 11/34/15 23/35/15 9/36/15
f 1/16/16 20/37/16 19/38/16
f 5/39/17 22/18/17 21/30/17
f 1/16/18 24/40/18 11/14/18
f 21/41/19 25/42/19 20/43/19
f 20/37/20 25/44/20 19/38/20
f 23/17/21 25/29/21 22/18/21
f 19/38/22 25/44/22 24/40/22
f 24/45/23 25/46/23 23/35/23
f 17/47/24 31/48/24 18/25/24
f 15/49/25 26/50/25 28/51/25
f 26/52/26 29/53/26 28/54/26
f 29/55/27 31/56/27 30/57/27
f 15/9/28 29/58/28 16/10/28
f 14/28/29 27/59/29 26/60/29
f 18/61/30 27/59/30 13/20/30
f 17/21/31 29/58/31 30/62/31
f 11/34/32 9/36/32 32/63/32
f 12/19/33 32/64/33 33/65/33
f 10/7/34 32/66/34 9/8/34
f 34/67/35 36/68/35 38/69/35
f 3/70/36 36/68/36 5/71/36
f 3/70/37 39/72/37 37/73/37
f 35/74/36 38/69/36 39/72/36
f 2/15/38 4/27/38 35/75/38
f 35/76/39 40/77/39 34/78/39
f 5/79/40 34/80/40 40/81/40
f 3/82/41 40/83/41 36/84/41
f 40/85/42 35/86/42 3/87/42
f 7/3/43 5/39/43 34/1/43
f 34/1/44 6/88/44 8/2/44
f 34/4/45 35/89/45 4/5/45
f 7/3/46 8/2/46 10/7/46
f 8/2/47 6/88/47 15/9/47
f 11/14/48 12/19/48 2/15/48
f 7/3/49 9/8/49 23/17/49
f 12/19/50 18/61/50 13/20/50
f 8/2/51 16/10/51 17/21/51
f 6/6/10 4/5/10 14/22/10
f 10/24/52 17/47/52 18/25/52
f 4/27/53 2/15/53 13/20/53
f 3/31/54 5/90/54 21/32/54
f 11/34/55 24/45/55 23/35/55
f 1/16/56 3/91/56 20/37/56
f 5/39/57 7/3/57 22/18/57
f 1/16/58 19/38/58 24/40/58
f 17/47/59 30/92/59 31/48/59
f 15/49/25 14/93/25 26/50/25
f 26/52/26 27/94/26 29/53/26
f 29/55/27 27/95/27 31/56/27
f 15/9/60 28/96/60 29/58/60
f 14/28/61 13/20/61 27/59/61
f 18/61/62 31/97/62 27/59/62
f 17/21/63 16/10/63 29/58/63
f 12/19/64 11/14/64 32/64/64
f 10/7/65 33/98/65 32/66/65
f 34/67/66 5/71/66 36/68/66
f 3/70/36 37/73/36 36/68/36
f 3/70/67 35/74/67 39/72/67
f 35/74/68 34/67/68 38/69/68
f 35/75/69 3/91/69 1/16/69
f 1/16/70 2/15/70 35/75/70
