# Blender v2.91.0 OBJ File: 'uglyfish.blend'
# www.blender.org
o Cylinder
v 1.946873 1.723808 -10.141168
v 12.114545 1.565038 -9.479716
v 2.184403 -3.322732 -9.291276
v 12.019366 -0.434529 -9.033437
v 2.625765 -3.322731 -7.481397
v 11.795695 -0.434529 -8.170525
v 2.891441 1.723808 -6.494566
v 11.705176 1.565039 -7.750121
v 2.616960 6.770347 -7.583024
v 11.856888 3.564606 -8.386944
v 2.187033 6.770347 -9.371332
v 11.944988 3.564606 -9.250271
v 15.125463 1.565039 -8.541875
v 15.031465 -0.106008 -8.179240
v 14.843472 -0.106008 -7.453972
v 14.749475 1.565040 -7.091338
v 14.852795 3.236087 -7.494858
v 15.032431 3.236087 -8.218344
v -5.478635 0.975311 -9.245180
v -4.717042 -2.118986 -7.649035
v -3.175162 -2.118985 -4.495023
v -2.419037 0.975312 -2.920133
v -3.204053 4.069607 -4.516158
v -4.708417 4.069607 -7.687401
v -7.702412 -0.000001 -4.159818
v 19.664299 -2.374174 -7.611568
v 17.815636 1.565040 -8.253637
v 19.168724 -2.374174 -5.699668
v 17.240936 1.565040 -6.036470
v 19.322414 5.345483 -5.659830
v 19.817989 5.345483 -7.571730
v 4.686408 10.749133 -9.070971
v 12.992933 5.289741 -8.781018
v 4.933211 -3.084551 -8.096736
v 4.878982 -3.084552 -9.630920
v 2.614624 -3.322731 -7.477550
v 2.195161 -3.322732 -9.187372
v 4.900679 -3.084551 -7.950504
v 4.893354 -3.084552 -9.500666
v 5.807224 -5.632796 -8.886927
vt 0.372143 0.472148
vt 0.258325 0.720793
vt 0.242460 0.386736
vt 0.929640 0.292486
vt 0.896854 0.528774
vt 0.905700 0.292486
vt 0.203802 0.721635
vt 0.105289 0.388938
vt 0.310754 0.719577
vt 0.262558 0.830351
vt 0.870744 0.639560
vt 0.846803 0.639560
vt 0.857904 0.590685
vt 0.578685 0.278296
vt 0.613955 0.613343
vt 0.478534 0.611220
vt 0.256430 0.149534
vt 0.632337 0.279114
vt 0.592114 0.168838
vt 0.636952 0.169521
vt 0.216987 0.831053
vt 0.927731 0.194789
vt 0.858361 0.194789
vt 0.880392 0.294001
vt 0.860270 0.294001
vt 0.681838 0.170439
vt 0.686048 0.280212
vt 0.268107 0.000000
vt 0.335054 0.147203
vt 0.916289 0.194789
vt 0.843809 0.000000
vt 0.938291 0.000000
vt 0.843809 0.103162
vt 0.749499 0.337643
vt 0.793422 0.101177
vt 0.707151 0.852771
vt 0.623966 0.850736
vt 0.375218 0.383745
vt 0.541008 0.849806
vt 0.749499 0.618796
vt 0.796740 0.502900
vt 0.843981 0.618796
vt 0.644178 0.999890
vt 0.169546 0.150388
vt 0.843809 0.341358
vt 0.781534 0.502900
vt 0.896853 0.463147
vt 0.843809 0.463147
vt 0.974874 0.000000
vt 0.938291 0.126436
vt 0.954752 0.000000
vt 0.938486 0.321878
vt 0.995765 0.419028
vt 0.942721 0.419028
vt 0.901088 0.625992
vt 0.958367 0.528774
vt 0.954132 0.625992
vt 0.306368 0.829334
vt 0.267392 0.924248
vt 0.640864 0.075648
vt 0.749499 0.009260
vt 0.168996 1.000000
vt 0.829081 0.000000
vt 0.375218 0.527636
vt 0.534033 0.238664
vt 0.000000 0.472521
vt 0.000000 0.000000
vt 0.000000 0.000000
vt 0.000000 0.000000
vt 0.000000 0.000000
vt 0.000000 0.000000
vt 0.000000 0.000000
vt 0.000000 0.000000
vt 0.000000 0.000000
vt 0.746827 0.527628
vt 0.938291 0.181252
vt 0.959108 0.126436
vt 0.979924 0.181252
vt 0.987690 0.321878
vt 0.938486 0.239353
vt 0.987690 0.194789
vt 0.938486 0.517826
vt 0.988328 0.419028
vt 0.988328 0.523040
vt 0.896854 0.590685
vt 0.846803 0.545461
vt 0.896854 0.463147
vt 0.938486 0.528774
vt 0.907609 0.194789
vt 0.882302 0.194789
vt 0.865811 0.194789
vt 0.749499 0.616056
vt 0.991336 0.126436
vt 1.000000 0.321878
vt 0.896854 0.528774
vt 0.375218 0.990468
vt 0.542486 0.000000
vt 0.158164 0.761249
vn 0.1314 -0.2627 0.9559
vn 0.3401 -0.9362 0.0882
vn 0.1589 0.2164 0.9633
vn -0.2068 -0.2103 0.9555
vn 0.8410 -0.5342 0.0858
vn 0.0608 0.1477 -0.9872
vn 0.5261 0.2065 0.8249
vn 0.2915 0.1974 -0.9360
vn -0.2525 0.2418 0.9369
vn 0.1010 -0.9945 0.0262
vn 0.0978 0.9949 0.0243
vn 0.2883 -0.2216 -0.9315
vn -0.1320 -0.4238 0.8961
vn -0.1539 -0.9852 0.0753
vn -0.3792 0.9208 0.0912
vn -0.0590 -0.4691 -0.8812
vn 0.3162 -0.4906 0.8120
vn -0.2922 0.1578 -0.9433
vn -0.4036 -0.8934 0.1973
vn -0.7998 -0.4187 -0.4301
vn -0.2775 0.3839 0.8807
vn -0.8740 0.3739 -0.3105
vn -0.6274 0.7196 0.2976
vn -0.3898 0.9153 -0.1010
vn -0.4261 -0.8979 -0.1104
vn 0.8675 0.4438 0.2249
vn 0.8453 -0.4873 0.2191
vn -0.3806 -0.2165 0.8990
vn 0.0549 -0.1355 -0.9893
vn 0.1045 0.1946 -0.9753
vn -0.4358 0.1515 0.8872
vn -0.8363 0.5101 0.2010
vn 0.1486 0.1745 -0.9734
vn 0.1742 0.2642 0.9486
vn -0.1090 0.9937 -0.0243
vn -0.0000 1.0000 0.0000
vn 0.0869 -0.9962 -0.0090
vn 0.1629 -0.2223 -0.9613
vn -0.9422 -0.3335 0.0333
vn -0.2716 0.1988 -0.9416
vn -0.5433 -0.8296 0.1289
vn 0.0919 0.3098 0.9464
vn 0.2716 -0.1984 0.9417
vn 0.0882 -0.2011 0.9756
vn 0.3601 -0.9328 -0.0127
vn 0.1401 0.2908 0.9465
vn -0.2010 -0.2185 0.9549
vn 0.0663 0.1193 -0.9906
vn 0.2171 0.4904 0.8440
vn 0.3270 0.1351 -0.9353
vn -0.2010 0.3111 0.9289
vn 0.1058 0.9943 0.0108
vn 0.2902 -0.2185 -0.9317
vn -0.1811 -0.9825 0.0442
vn -0.3272 0.9321 0.1552
vn -0.2564 -0.1722 -0.9511
vn 0.5665 -0.1868 0.8026
vn -0.1524 0.4744 -0.8670
vn -0.3918 0.9149 -0.0973
vn -0.4326 -0.1355 0.8914
vn 0.1040 -0.2165 -0.9707
vn 0.0716 0.1402 -0.9875
vn -0.3786 0.2393 0.8941
vn 0.0308 0.0560 -0.9980
vn 0.0790 0.1723 0.9819
vn -0.2033 0.7822 -0.5889
vn 0.0868 -0.9962 -0.0096
vn 0.0000 -1.0000 0.0000
vn -0.1084 -0.1701 -0.9795
vn 0.0637 -0.0668 -0.9957
s off
f 34/1/1 8/2/1 7/3/1
f 6/4/2 35/5/2 4/6/2
f 7/3/3 10/7/3 9/8/3
f 6/9/4 16/10/4 8/2/4
f 10/11/5 12/12/5 33/13/5
f 12/14/6 1/15/6 11/16/6
f 9/8/7 22/17/7 7/3/7
f 2/18/8 18/19/8 13/20/8
f 10/7/9 16/10/9 17/21/9
f 4/6/10 15/22/10 6/4/10
f 12/23/11 17/24/11 18/25/11
f 2/18/12 14/26/12 4/27/12
f 22/17/13 25/28/13 21/29/13
f 3/30/14 21/31/14 20/32/14
f 11/33/15 23/34/15 9/35/15
f 1/15/16 20/36/16 19/37/16
f 5/38/17 22/17/17 21/29/17
f 1/15/18 24/39/18 11/16/18
f 21/40/19 25/41/19 20/42/19
f 20/36/20 25/43/20 19/37/20
f 23/44/21 25/28/21 22/17/21
f 19/37/22 25/43/22 24/39/22
f 24/45/23 25/46/23 23/34/23
f 18/25/24 30/47/24 31/48/24
f 14/49/25 28/50/25 15/51/25
f 27/52/26 28/53/26 26/54/26
f 30/55/27 27/56/27 31/57/27
f 15/58/28 29/59/28 16/10/28
f 14/26/29 27/60/29 26/61/29
f 18/19/30 27/60/30 13/20/30
f 17/21/31 29/59/31 30/62/31
f 11/33/32 9/35/32 32/63/32
f 12/14/33 32/64/33 33/65/33
f 10/7/34 32/66/34 9/8/34
f 5/67/35 38/68/35 34/69/35
f 5/67/36 37/70/36 36/71/36
f 35/72/37 37/70/37 3/73/37
f 35/72/36 38/68/36 39/74/36
f 2/18/38 4/27/38 35/75/38
f 35/76/39 40/77/39 34/78/39
f 5/79/40 34/80/40 40/81/40
f 3/82/41 40/83/41 36/84/41
f 40/85/42 35/86/42 3/87/42
f 7/3/43 5/38/43 34/1/43
f 34/1/44 6/9/44 8/2/44
f 6/4/45 34/88/45 35/5/45
f 7/3/46 8/2/46 10/7/46
f 6/9/47 15/58/47 16/10/47
f 12/14/48 2/18/48 1/15/48
f 9/8/49 23/44/49 22/17/49
f 2/18/50 12/14/50 18/19/50
f 10/7/51 8/2/51 16/10/51
f 4/6/10 14/89/10 15/22/10
f 12/23/52 10/90/52 17/24/52
f 2/18/53 13/20/53 14/26/53
f 3/30/54 5/91/54 21/31/54
f 11/33/55 24/45/55 23/34/55
f 1/15/56 3/92/56 20/36/56
f 5/38/57 7/3/57 22/17/57
f 1/15/58 19/37/58 24/39/58
f 18/25/59 17/24/59 30/47/59
f 14/49/25 26/93/25 28/50/25
f 27/52/26 29/94/26 28/53/26
f 30/55/27 29/95/27 27/56/27
f 15/58/60 28/96/60 29/59/60
f 14/26/61 13/20/61 27/60/61
f 18/19/62 31/97/62 27/60/62
f 17/21/63 16/10/63 29/59/63
f 12/14/64 11/16/64 32/64/64
f 10/7/65 33/98/65 32/66/65
f 5/67/66 36/71/66 38/68/66
f 5/67/36 3/73/36 37/70/36
f 35/72/67 39/74/67 37/70/67
f 35/72/68 34/69/68 38/68/68
f 35/75/69 3/92/69 1/15/69
f 1/15/70 2/18/70 35/75/70
