# Blender v2.91.0 OBJ File: 'uglyfish.blend'
# www.blender.org
o Cylinder
v 2.472362 1.723806 3.346492
v 10.994903 1.565035 -0.008903
v 2.771593 -3.322734 4.291106
v 11.244433 -0.434533 0.352826
v 3.368349 -3.322732 6.075589
v 11.764106 -0.434533 1.077111
v 3.637052 1.723807 6.900882
v 12.019563 1.565035 1.449461
v 3.400204 6.770345 6.121537
v 11.797121 3.564602 1.223243
v 2.792429 6.770345 4.342330
v 11.332175 3.564602 0.454866
v 13.610665 1.565035 -1.718505
v 13.829055 -0.106012 -1.414128
v 14.265834 -0.106012 -0.805374
v 14.484223 1.565035 -0.500998
v 14.274496 3.236083 -0.788020
v 13.840183 3.236083 -1.399863
v -3.892106 0.975310 3.165433
v -3.696082 -2.118986 4.896231
v -3.329947 -2.118985 8.395121
v -3.131616 0.975311 10.149199
v -3.302938 4.069606 8.422084
v -3.711402 4.069606 4.935258
v -7.715063 -0.000001 7.011647
v 17.231216 -2.374179 -4.609541
v 15.554421 1.565036 -3.600508
v 18.382622 -2.374179 -3.004789
v 16.889668 1.565036 -1.739531
v 18.511623 5.345478 -3.097347
v 17.360222 5.345478 -4.702096
v 5.289953 10.749131 4.424085
v 12.506014 5.289736 0.260992
v 5.774357 -3.084553 4.919007
v 5.065407 -3.084554 3.543821
v 3.383301 -3.322732 6.061131
v 2.749357 -3.322734 4.191181
v 5.758001 -3.084553 4.845618
v 5.010546 -3.084554 3.487542
v 6.221467 -5.632799 3.810180
vt 0.372143 0.472148
vt 0.258325 0.720793
vt 0.242460 0.386736
vt 0.938486 0.528774
vt 0.905700 0.292486
vt 0.929640 0.292486
vt 0.203802 0.721635
vt 0.105289 0.388938
vt 0.306368 0.829334
vt 0.262558 0.830351
vt 0.870744 0.639560
vt 0.846803 0.639560
vt 0.857904 0.590685
vt 0.478534 0.611220
vt 0.632337 0.279114
vt 0.613955 0.613343
vt 0.169546 0.150388
vt 0.256430 0.149534
vt 0.578685 0.278296
vt 0.636952 0.169521
vt 0.216987 0.831053
vt 0.907609 0.194789
vt 0.927731 0.194789
vt 0.882302 0.194789
vt 0.860270 0.294001
vt 0.858361 0.194789
vt 0.686048 0.280212
vt 0.681838 0.170439
vt 0.268107 0.000000
vt 0.335054 0.147203
vt 0.916289 0.194789
vt 0.843809 0.000000
vt 0.938291 0.000000
vt 0.843809 0.103162
vt 0.749499 0.337643
vt 0.793422 0.101177
vt 0.707151 0.852771
vt 0.623966 0.850736
vt 0.375218 0.383745
vt 0.541008 0.849806
vt 0.749499 0.618796
vt 0.796740 0.502900
vt 0.843981 0.618796
vt 0.644178 0.999890
vt 0.843809 0.341358
vt 0.781534 0.502900
vt 0.880392 0.294001
vt 0.843809 0.463147
vt 0.954752 0.000000
vt 0.991336 0.126436
vt 0.938291 0.126436
vt 0.942721 0.419028
vt 1.000000 0.321878
vt 0.995765 0.419028
vt 0.896854 0.528774
vt 0.954132 0.625992
vt 0.901088 0.625992
vt 0.267392 0.924248
vt 0.640864 0.075648
vt 0.749499 0.009260
vt 0.592114 0.168838
vt 0.168996 1.000000
vt 0.829081 0.000000
vt 0.375218 0.527636
vt 0.534033 0.238664
vt 0.000000 0.472521
vt 0.000000 0.000000
vt 0.000000 0.000000
vt 0.000000 0.000000
vt 0.000000 0.000000
vt 0.000000 0.000000
vt 0.000000 0.000000
vt 0.000000 0.000000
vt 0.000000 0.000000
vt 0.746827 0.527628
vt 0.938291 0.181252
vt 0.959108 0.126436
vt 0.979924 0.181252
vt 0.987690 0.321878
vt 0.938486 0.239353
vt 0.987690 0.194789
vt 0.938486 0.517826
vt 0.988328 0.419028
vt 0.988328 0.523040
vt 0.896854 0.590685
vt 0.846803 0.545461
vt 0.896854 0.463147
vt 0.310754 0.719577
vt 0.896854 0.528774
vt 0.865811 0.194789
vt 0.749499 0.616056
vt 0.896853 0.463147
vt 0.974874 0.000000
vt 0.938486 0.321878
vt 0.958367 0.528774
vt 0.375218 0.990468
vt 0.542486 0.000000
vt 0.158164 0.761249
vn 0.5409 -0.1036 0.8347
vn 0.2839 -0.9370 -0.2037
vn 0.5409 0.1531 0.8270
vn 0.6056 -0.2185 0.7652
vn 0.7205 -0.5393 -0.4360
vn -0.3555 0.2026 -0.9125
vn 0.3382 0.4729 0.8136
vn -0.5259 0.2754 -0.8047
vn 0.6350 0.1562 0.7566
vn 0.0848 -0.9945 -0.0609
vn 0.0900 0.9945 -0.0545
vn -0.5316 -0.2185 -0.8183
vn -0.4509 -0.4181 0.7886
vn -0.1812 -0.9833 0.0190
vn -0.3370 0.9344 0.1151
vn 0.0816 -0.4826 -0.8720
vn 0.2044 -0.4926 0.8459
vn -0.1715 0.2012 -0.9644
vn -0.4465 -0.8936 0.0467
vn -0.5866 -0.4233 -0.6904
vn -0.5768 0.3736 0.7265
vn -0.7017 0.3842 -0.6000
vn -0.6896 0.7197 0.0808
vn -0.3291 0.9149 0.2336
vn -0.3576 -0.8979 0.2566
vn 0.7281 0.4438 -0.5224
vn 0.7095 -0.4873 -0.5091
vn 0.4469 -0.2165 0.8680
vn -0.7248 -0.1355 -0.6755
vn -0.6775 0.2265 -0.6998
vn 0.4178 0.1430 0.8972
vn -0.8160 0.5065 0.2787
vn -0.3948 0.1671 -0.9034
vn 0.5310 0.1064 0.8406
vn 0.0896 -0.9958 -0.0200
vn 0.0000 -1.0000 0.0000
vn -0.0980 0.9949 0.0218
vn -0.3759 -0.2102 -0.9025
vn -0.8375 -0.3348 0.4318
vn -0.4376 0.2931 -0.8500
vn -0.5293 -0.8285 0.1829
vn 0.2806 0.2249 0.9331
vn 0.4405 -0.1677 0.8819
vn 0.5938 -0.2200 0.7740
vn 0.3165 -0.9345 -0.1632
vn 0.5407 0.1537 0.8270
vn 0.6048 -0.2198 0.7654
vn -0.3155 0.2646 -0.9113
vn 0.2625 0.1593 0.9517
vn -0.5593 0.2288 -0.7968
vn 0.6070 0.2079 0.7670
vn 0.0837 0.9947 -0.0594
vn -0.5343 -0.2146 -0.8176
vn -0.1588 -0.9859 0.0531
vn -0.3797 0.9241 0.0445
vn -0.1264 -0.1897 -0.9737
vn 0.4415 -0.1677 0.8814
vn -0.0339 0.4977 -0.8667
vn -0.3275 0.9152 0.2350
vn 0.4078 -0.1355 0.9030
vn -0.6791 -0.2165 -0.7014
vn -0.7224 0.1483 -0.6754
vn 0.4480 0.2057 0.8701
vn -0.3316 0.2270 -0.9157
vn 0.5949 0.1910 0.7807
vn 0.1894 -0.9622 0.1959
vn -0.0783 0.9940 0.0764
vn -0.0000 1.0000 -0.0000
vn -0.2858 -0.1927 -0.9387
vn -0.3601 -0.2313 -0.9038
s off
f 34/1/1 8/2/1 7/3/1
f 34/4/2 4/5/2 6/6/2
f 7/3/3 10/7/3 9/8/3
f 8/2/4 15/9/4 16/10/4
f 10/11/5 12/12/5 33/13/5
f 11/14/6 2/15/6 1/16/6
f 7/3/7 23/17/7 22/18/7
f 12/19/8 13/20/8 2/15/8
f 8/2/9 17/21/9 10/7/9
f 6/6/10 14/22/10 15/23/10
f 10/24/11 18/25/11 12/26/11
f 4/27/12 13/20/12 14/28/12
f 22/18/13 25/29/13 21/30/13
f 3/31/14 21/32/14 20/33/14
f 11/34/15 23/35/15 9/36/15
f 1/16/16 20/37/16 19/38/16
f 5/39/17 22/18/17 21/30/17
f 1/16/18 24/40/18 11/14/18
f 21/41/19 25/42/19 20/43/19
f 20/37/20 25/44/20 19/38/20
f 23/17/21 25/29/21 22/18/21
f 19/38/22 25/44/22 24/40/22
f 24/45/23 25/46/23 23/35/23
f 17/47/24 31/48/24 18/25/24
f 15/49/25 26/50/25 28/51/25
f 26/52/26 29/53/26 28/54/26
f 29/55/27 31/56/27 30/57/27
f 15/9/28 29/58/28 16/10/28
f 14/28/29 27/59/29 26/60/29
f 18/61/30 27/59/30 13/20/30
f 17/21/31 29/58/31 30/62/31
f 11/34/32 9/36/32 32/63/32
f 12/19/33 32/64/33 33/65/33
f 10/7/34 32/66/34 9/8/34
f 34/67/35 36/68/35 38/69/35
f 3/70/36 36/68/36 5/71/36
f 3/70/37 39/72/37 37/73/37
f 35/74/36 38/69/36 39/72/36
f 2/15/38 4/27/38 35/75/38
f 35/76/39 40/77/39 34/78/39
f 5/79/40 34/80/40 40/81/40
f 3/82/41 40/83/41 36/84/41
f 40/85/42 35/86/42 3/87/42
f 7/3/43 5/39/43 34/1/43
f 34/1/44 6/88/44 8/2/44
f 34/4/45 35/89/45 4/5/45
f 7/3/46 8/2/46 10/7/46
f 8/2/47 6/88/47 15/9/47
f 11/14/48 12/19/48 2/15/48
f 7/3/49 9/8/49 23/17/49
f 12/19/50 18/61/50 13/20/50
f 8/2/51 16/10/51 17/21/51
f 6/6/10 4/5/10 14/22/10
f 10/24/52 17/47/52 18/25/52
f 4/27/53 2/15/53 13/20/53
f 3/31/54 5/90/54 21/32/54
f 11/34/55 24/45/55 23/35/55
f 1/16/56 3/91/56 20/37/56
f 5/39/57 7/3/57 22/18/57
f 1/16/58 19/38/58 24/40/58
f 17/47/59 30/92/59 31/48/59
f 15/49/25 14/93/25 26/50/25
f 26/52/26 27/94/26 29/53/26
f 29/55/27 27/95/27 31/56/27
f 15/9/60 28/96/60 29/58/60
f 14/28/61 13/20/61 27/59/61
f 18/61/62 31/97/62 27/59/62
f 17/21/63 16/10/63 29/58/63
f 12/19/64 11/14/64 32/64/64
f 10/7/65 33/98/65 32/66/65
f 34/67/66 5/71/66 36/68/66
f 3/70/36 37/73/36 36/68/36
f 3/70/67 35/74/67 39/72/67
f 35/74/68 34/67/68 38/69/68
f 35/75/69 3/91/69 1/16/69
f 1/16/70 2/15/70 35/75/70
