# Blender v2.91.0 OBJ File: 'uglyfish.blend'
# www.blender.org
o Cylinder
v 1.325658 1.723808 -6.201182
v 11.269950 1.565040 -7.410980
v 1.629885 -3.322732 -5.356209
v 11.273353 -0.434528 -6.954840
v 2.250947 -3.322731 -3.599090
v 11.242007 -0.434528 -6.063961
v 2.590468 1.723809 -2.652175
v 11.244437 1.565040 -5.633593
v 2.228138 6.770347 -3.691034
v 11.279498 3.564608 -6.217932
v 1.615479 6.770347 -5.433127
v 11.185109 3.564608 -7.090185
v 14.412158 1.565041 -7.148113
v 14.398986 -0.106006 -6.773726
v 14.372642 -0.106006 -6.024952
v 14.359469 1.565042 -5.650565
v 14.372976 3.236089 -6.066087
v 14.391689 3.236089 -6.811397
v -6.019457 0.975311 -4.606460
v -5.095944 -2.118986 -3.097491
v -3.232402 -2.118985 -0.123547
v -2.317121 0.975311 1.362653
v -3.266342 4.069607 -0.143729
v -5.090493 4.069607 -3.140526
v -7.695881 -0.000001 0.691158
v 19.044739 -2.374171 -7.223571
v 17.100868 1.565042 -7.449739
v 18.975288 -2.374171 -5.249708
v 17.020329 1.565043 -5.160717
v 19.133961 5.345486 -5.244125
v 19.203411 5.345486 -7.217987
v 4.125673 10.749133 -5.405236
v 12.318527 5.289742 -6.826616
v 4.538408 -3.084550 -4.508073
v 4.194235 -3.084551 -6.011498
v 2.248743 -3.322731 -3.581554
v 1.663764 -3.322732 -5.278747
v 4.547850 -3.084550 -4.385022
v 4.212233 -3.084551 -5.898436
v 5.248795 -5.632796 -5.458859
vt 0.372143 0.472148
vt 0.258325 0.720793
vt 0.242460 0.386736
vt 0.938486 0.528774
vt 0.905700 0.292486
vt 0.929640 0.292486
vt 0.203802 0.721635
vt 0.105289 0.388938
vt 0.306368 0.829334
vt 0.262558 0.830351
vt 0.870744 0.639560
vt 0.846803 0.639560
vt 0.857904 0.590685
vt 0.578685 0.278296
vt 0.613955 0.613343
vt 0.478534 0.611220
vt 0.256430 0.149534
vt 0.632337 0.279114
vt 0.592114 0.168838
vt 0.636952 0.169521
vt 0.216987 0.831053
vt 0.927731 0.194789
vt 0.882302 0.194789
vt 0.860270 0.294001
vt 0.858361 0.194789
vt 0.681838 0.170439
vt 0.686048 0.280212
vt 0.268107 0.000000
vt 0.335054 0.147203
vt 0.916289 0.194789
vt 0.843809 0.000000
vt 0.938291 0.000000
vt 0.843809 0.103162
vt 0.749499 0.337643
vt 0.793422 0.101177
vt 0.707151 0.852771
vt 0.623966 0.850736
vt 0.375218 0.383745
vt 0.541008 0.849806
vt 0.749499 0.618796
vt 0.796740 0.502900
vt 0.843981 0.618796
vt 0.644178 0.999890
vt 0.169546 0.150388
vt 0.843809 0.341358
vt 0.781534 0.502900
vt 0.896853 0.463147
vt 0.843809 0.463147
vt 0.974874 0.000000
vt 0.938291 0.126436
vt 0.954752 0.000000
vt 0.938486 0.321878
vt 0.995765 0.419028
vt 0.942721 0.419028
vt 0.901088 0.625992
vt 0.958367 0.528774
vt 0.954132 0.625992
vt 0.267392 0.924248
vt 0.640864 0.075648
vt 0.749499 0.009260
vt 0.168996 1.000000
vt 0.829081 0.000000
vt 0.375218 0.527636
vt 0.534033 0.238664
vt 0.000000 0.472521
vt 0.000000 0.000000
vt 0.000000 0.000000
vt 0.000000 0.000000
vt 0.000000 0.000000
vt 0.000000 0.000000
vt 0.000000 0.000000
vt 0.000000 0.000000
vt 0.000000 0.000000
vt 0.746827 0.527628
vt 0.938291 0.181252
vt 0.959108 0.126436
vt 0.979924 0.181252
vt 0.987690 0.321878
vt 0.938486 0.239353
vt 0.987690 0.194789
vt 0.938486 0.517826
vt 0.988328 0.419028
vt 0.988328 0.523040
vt 0.896854 0.590685
vt 0.846803 0.545461
vt 0.896854 0.463147
vt 0.310754 0.719577
vt 0.896854 0.528774
vt 0.907609 0.194789
vt 0.880392 0.294001
vt 0.865811 0.194789
vt 0.749499 0.616056
vt 0.991336 0.126436
vt 1.000000 0.321878
vt 0.896854 0.528774
vt 0.375218 0.990468
vt 0.542486 0.000000
vt 0.158164 0.761249
vn 0.3133 -0.2288 0.9217
vn 0.3702 -0.9289 0.0130
vn 0.3320 0.2130 0.9189
vn 0.0053 -0.2186 0.9758
vn 0.8386 -0.5371 -0.0907
vn -0.1176 0.1560 -0.9807
vn 0.6014 0.2023 0.7729
vn 0.0817 0.1978 -0.9768
vn -0.0173 0.2807 0.9596
vn 0.1043 -0.9945 0.0037
vn 0.1029 0.9946 -0.0111
vn 0.0796 -0.2216 -0.9719
vn -0.0361 -0.4240 0.9050
vn -0.1457 -0.9851 0.0913
vn -0.3687 0.9205 0.1297
vn -0.1417 -0.4678 -0.8724
vn 0.3875 -0.4897 0.7810
vn -0.3766 0.1605 -0.9124
vn -0.3806 -0.8934 0.2385
vn -0.8410 -0.4183 -0.3431
vn -0.1827 0.3845 0.9049
vn -0.9020 0.3734 -0.2167
vn -0.5931 0.7196 0.3610
vn -0.4025 0.9153 -0.0142
vn -0.4399 -0.8979 -0.0155
vn 0.8956 0.4438 0.0315
vn 0.8727 -0.4873 0.0307
vn -0.1768 -0.2165 0.9601
vn -0.1608 -0.1355 -0.9776
vn -0.1093 0.1951 -0.9747
vn -0.2329 0.1514 0.9606
vn -0.8115 0.5100 0.2854
vn -0.0490 0.1822 -0.9820
vn 0.3370 0.2324 0.9124
vn -0.1005 0.9949 0.0077
vn -0.0000 1.0000 0.0000
vn 0.0832 -0.9959 -0.0364
vn 0.0000 -1.0000 -0.0000
vn -0.0466 -0.2222 -0.9739
vn -0.9186 -0.3346 0.2103
vn -0.3800 0.2285 -0.8963
vn -0.5253 -0.8310 0.1832
vn 0.2116 0.2900 0.9334
vn 0.3797 -0.1952 0.9043
vn 0.2963 -0.2013 0.9336
vn 0.3404 -0.9370 -0.0779
vn 0.3187 0.2607 0.9113
vn 0.0099 -0.2104 0.9776
vn -0.1170 0.1525 -0.9814
vn 0.2903 0.4894 0.8223
vn 0.1019 0.1618 -0.9815
vn 0.0053 0.2413 0.9704
vn 0.1055 0.9944 0.0026
vn 0.0814 -0.2185 -0.9724
vn -0.1762 -0.9824 0.0623
vn -0.3106 0.9316 0.1890
vn -0.3415 -0.1752 -0.9234
vn 0.6391 -0.1832 0.7470
vn -0.2327 0.4726 -0.8500
vn -0.4036 0.9149 -0.0101
vn -0.2291 -0.1355 0.9639
vn -0.1088 -0.2165 -0.9702
vn -0.1443 0.1403 -0.9795
vn -0.1758 0.2389 0.9550
vn -0.1390 0.0946 -0.9858
vn 0.2760 0.1677 0.9464
vn -0.1077 0.9941 -0.0136
vn 0.0896 -0.9959 -0.0143
vn -0.2286 -0.1742 -0.9578
vn -0.1218 -0.1116 -0.9863
s off
f 34/1/1 8/2/1 7/3/1
f 34/4/2 4/5/2 6/6/2
f 7/3/3 10/7/3 9/8/3
f 8/2/4 15/9/4 16/10/4
f 10/11/5 12/12/5 33/13/5
f 12/14/6 1/15/6 11/16/6
f 9/8/7 22/17/7 7/3/7
f 2/18/8 18/19/8 13/20/8
f 8/2/9 17/21/9 10/7/9
f 4/5/10 15/22/10 6/6/10
f 10/23/11 18/24/11 12/25/11
f 2/18/12 14/26/12 4/27/12
f 22/17/13 25/28/13 21/29/13
f 3/30/14 21/31/14 20/32/14
f 11/33/15 23/34/15 9/35/15
f 1/15/16 20/36/16 19/37/16
f 5/38/17 22/17/17 21/29/17
f 1/15/18 24/39/18 11/16/18
f 21/40/19 25/41/19 20/42/19
f 20/36/20 25/43/20 19/37/20
f 23/44/21 25/28/21 22/17/21
f 19/37/22 25/43/22 24/39/22
f 24/45/23 25/46/23 23/34/23
f 18/24/24 30/47/24 31/48/24
f 14/49/25 28/50/25 15/51/25
f 27/52/26 28/53/26 26/54/26
f 30/55/27 27/56/27 31/57/27
f 15/9/28 29/58/28 16/10/28
f 14/26/29 27/59/29 26/60/29
f 18/19/30 27/59/30 13/20/30
f 17/21/31 29/58/31 30/61/31
f 11/33/32 9/35/32 32/62/32
f 12/14/33 32/63/33 33/64/33
f 10/7/34 32/65/34 9/8/34
f 5/66/35 38/67/35 34/68/35
f 5/66/36 37/69/36 36/70/36
f 35/71/37 37/69/37 3/72/37
f 34/68/38 39/73/38 35/71/38
f 2/18/39 4/27/39 35/74/39
f 35/75/40 40/76/40 34/77/40
f 5/78/41 34/79/41 40/80/41
f 3/81/42 40/82/42 36/83/42
f 40/84/43 35/85/43 3/86/43
f 7/3/44 5/38/44 34/1/44
f 34/1/45 6/87/45 8/2/45
f 34/4/46 35/88/46 4/5/46
f 7/3/47 8/2/47 10/7/47
f 8/2/48 6/87/48 15/9/48
f 12/14/49 2/18/49 1/15/49
f 9/8/50 23/44/50 22/17/50
f 2/18/51 12/14/51 18/19/51
f 8/2/52 16/10/52 17/21/52
f 4/5/10 14/89/10 15/22/10
f 10/23/53 17/90/53 18/24/53
f 2/18/54 13/20/54 14/26/54
f 3/30/55 5/91/55 21/31/55
f 11/33/56 24/45/56 23/34/56
f 1/15/57 3/92/57 20/36/57
f 5/38/58 7/3/58 22/17/58
f 1/15/59 19/37/59 24/39/59
f 18/24/60 17/90/60 30/47/60
f 14/49/25 26/93/25 28/50/25
f 27/52/26 29/94/26 28/53/26
f 30/55/27 29/95/27 27/56/27
f 15/9/61 28/96/61 29/58/61
f 14/26/62 13/20/62 27/59/62
f 18/19/63 31/97/63 27/59/63
f 17/21/64 16/10/64 29/58/64
f 12/14/65 11/16/65 32/63/65
f 10/7/66 33/98/66 32/65/66
f 5/66/67 36/70/67 38/67/67
f 5/66/38 3/72/38 37/69/38
f 35/71/68 39/73/68 37/69/68
f 34/68/38 38/67/38 39/73/38
f 35/74/69 3/92/69 1/15/69
f 1/15/70 2/18/70 35/74/70
