# Blender v2.91.0 OBJ File: 'uglyfish.blend'
# www.blender.org
o Cylinder
v 1.796549 1.723807 0.407005
v 10.411761 1.565037 -3.575882
v 2.205828 -3.322733 1.289605
v 10.612462 -0.434531 -3.171710
v 3.016536 -3.322732 2.988441
v 10.992810 -0.434531 -2.365494
v 3.395791 1.723808 3.796909
v 11.188104 1.565037 -1.972568
v 3.002311 6.770346 2.967671
v 11.028619 3.564605 -2.352649
v 2.204745 6.770346 1.283158
v 10.600030 3.564604 -3.140655
v 13.313815 1.565037 -4.781726
v 13.473655 -0.106010 -4.442918
v 13.793332 -0.106010 -3.765303
v 13.953170 1.565038 -3.426494
v 13.785540 3.236085 -3.783617
v 13.463144 3.236085 -4.458222
v -4.741462 0.975311 1.294696
v -4.205729 -2.118986 2.959522
v -3.146655 -2.118985 6.315300
v -2.607047 0.975311 7.994508
v -3.126881 4.069606 6.329421
v -4.211286 4.069606 2.985632
v -7.710086 -0.000001 5.861466
v 17.396885 -2.374176 -6.971481
v 15.565450 1.565038 -6.281813
v 18.239594 -2.374176 -5.185202
v 16.542713 1.565039 -4.210323
v 18.383190 5.345481 -5.252944
v 17.540478 5.345481 -7.039224
v 4.657438 10.749132 1.011529
v 11.780188 5.289739 -3.293803
v 5.199106 -3.084552 1.557400
v 4.413053 -3.084553 0.224019
v 3.024295 -3.322732 2.978740
v 2.183486 -3.322733 1.228145
v 5.235800 -3.084552 1.574211
v 4.408214 -3.084553 0.263425
v 5.583613 -5.632797 0.424307
vt 0.372143 0.472148
vt 0.258325 0.720793
vt 0.242460 0.386736
vt 0.938486 0.528774
vt 0.905700 0.292486
vt 0.929640 0.292486
vt 0.203802 0.721635
vt 0.105289 0.388938
vt 0.306368 0.829334
vt 0.262558 0.830351
vt 0.870744 0.639560
vt 0.846803 0.639560
vt 0.857904 0.590685
vt 0.478534 0.611220
vt 0.632337 0.279114
vt 0.613955 0.613343
vt 0.169546 0.150388
vt 0.256430 0.149534
vt 0.578685 0.278296
vt 0.636952 0.169521
vt 0.216987 0.831053
vt 0.907609 0.194789
vt 0.927731 0.194789
vt 0.882302 0.194789
vt 0.860270 0.294001
vt 0.858361 0.194789
vt 0.686048 0.280212
vt 0.681838 0.170439
vt 0.268107 0.000000
vt 0.335054 0.147203
vt 0.916289 0.194789
vt 0.843809 0.000000
vt 0.938291 0.000000
vt 0.843809 0.103162
vt 0.749499 0.337643
vt 0.793422 0.101177
vt 0.707151 0.852771
vt 0.623966 0.850736
vt 0.375218 0.383745
vt 0.541008 0.849806
vt 0.749499 0.618796
vt 0.796740 0.502900
vt 0.843981 0.618796
vt 0.644178 0.999890
vt 0.843809 0.341358
vt 0.781534 0.502900
vt 0.880392 0.294001
vt 0.843809 0.463147
vt 0.954752 0.000000
vt 0.991336 0.126436
vt 0.938291 0.126436
vt 0.942721 0.419028
vt 1.000000 0.321878
vt 0.995765 0.419028
vt 0.896854 0.528774
vt 0.954132 0.625992
vt 0.901088 0.625992
vt 0.267392 0.924248
vt 0.640864 0.075648
vt 0.749499 0.009260
vt 0.592114 0.168838
vt 0.168996 1.000000
vt 0.829081 0.000000
vt 0.375218 0.527636
vt 0.534033 0.238664
vt 0.000000 0.472521
vt 0.000000 0.000000
vt 0.000000 0.000000
vt 0.000000 0.000000
vt 0.000000 0.000000
vt 0.000000 0.000000
vt 0.000000 0.000000
vt 0.000000 0.000000
vt 0.000000 0.000000
vt 0.746827 0.527628
vt 0.938291 0.181252
vt 0.959108 0.126436
vt 0.979924 0.181252
vt 0.987690 0.321878
vt 0.938486 0.239353
vt 0.987690 0.194789
vt 0.938486 0.517826
vt 0.988328 0.419028
vt 0.988328 0.523040
vt 0.896854 0.590685
vt 0.846803 0.545461
vt 0.896854 0.463147
vt 0.310754 0.719577
vt 0.896854 0.528774
vt 0.865811 0.194789
vt 0.749499 0.616056
vt 0.896853 0.463147
vt 0.974874 0.000000
vt 0.938486 0.321878
vt 0.958367 0.528774
vt 0.375218 0.990468
vt 0.542486 0.000000
vt 0.158164 0.761249
vn 0.5863 -0.1509 0.7960
vn 0.3237 -0.9338 -0.1527
vn 0.5917 0.1754 0.7869
vn 0.4542 -0.2186 0.8637
vn 0.7388 -0.5411 -0.4018
vn -0.4093 0.1881 -0.8928
vn 0.4621 0.4792 0.7462
vn -0.3734 0.2307 -0.8985
vn 0.4700 0.2009 0.8595
vn 0.0944 -0.9945 -0.0445
vn 0.0913 0.9946 -0.0496
vn -0.3751 -0.2185 -0.9008
vn -0.2807 -0.4195 0.8633
vn -0.1707 -0.9839 0.0539
vn -0.3262 0.9326 0.1545
vn -0.0636 -0.4814 -0.8742
vn 0.3364 -0.4938 0.8019
vn -0.3248 0.1872 -0.9271
vn -0.4283 -0.8935 0.1352
vn -0.7158 -0.4229 -0.5556
vn -0.4176 0.3752 0.8276
vn -0.8100 0.3820 -0.4450
vn -0.6607 0.7194 0.2143
vn -0.3635 0.9152 0.1737
vn -0.3981 -0.8979 0.1878
vn 0.8105 0.4438 -0.3824
vn 0.7898 -0.4873 -0.3726
vn 0.2828 -0.2165 0.9344
vn -0.5909 -0.1355 -0.7953
vn -0.5425 0.2061 -0.8143
vn 0.2386 0.1485 0.9597
vn -0.7797 0.5058 0.3691
vn -0.3962 0.1913 -0.8980
vn 0.5867 0.1474 0.7963
vn -0.0449 0.9942 0.0980
vn 0.0000 -1.0000 0.0000
vn -0.0920 0.9952 0.0335
vn -0.3946 -0.2199 -0.8921
vn -0.8116 -0.3352 0.4785
vn -0.5484 0.2693 -0.7917
vn -0.5040 -0.8284 0.2442
vn 0.3985 0.2523 0.8818
vn 0.5532 -0.1721 0.8151
vn 0.6121 -0.2096 0.7625
vn 0.3025 -0.9363 -0.1784
vn 0.5861 0.1962 0.7862
vn 0.4567 -0.2143 0.8634
vn -0.3832 0.2308 -0.8944
vn 0.4114 0.1789 0.8937
vn -0.3890 0.2085 -0.8973
vn 0.4530 0.2295 0.8615
vn 0.0949 0.9944 -0.0454
vn -0.3743 -0.2197 -0.9009
vn -0.1531 -0.9855 0.0730
vn -0.3589 0.9261 0.1164
vn -0.2804 -0.1874 -0.9414
vn 0.5788 -0.1712 0.7973
vn -0.1723 0.4949 -0.8517
vn -0.3648 0.9150 0.1721
vn 0.2380 -0.1355 0.9618
vn -0.5413 -0.2165 -0.8125
vn -0.5812 0.1431 -0.8011
vn 0.2821 0.2275 0.9320
vn -0.4014 0.1862 -0.8968
vn 0.6000 0.1656 0.7827
vn 0.2201 -0.9595 0.1760
vn 0.1140 -0.9934 0.0140
vn 0.0000 1.0000 -0.0000
vn -0.4103 -0.1893 -0.8921
vn -0.4148 -0.1918 -0.8895
s off
f 34/1/1 8/2/1 7/3/1
f 34/4/2 4/5/2 6/6/2
f 7/3/3 10/7/3 9/8/3
f 8/2/4 15/9/4 16/10/4
f 10/11/5 12/12/5 33/13/5
f 11/14/6 2/15/6 1/16/6
f 7/3/7 23/17/7 22/18/7
f 12/19/8 13/20/8 2/15/8
f 8/2/9 17/21/9 10/7/9
f 6/6/10 14/22/10 15/23/10
f 10/24/11 18/25/11 12/26/11
f 4/27/12 13/20/12 14/28/12
f 22/18/13 25/29/13 21/30/13
f 3/31/14 21/32/14 20/33/14
f 11/34/15 23/35/15 9/36/15
f 1/16/16 20/37/16 19/38/16
f 5/39/17 22/18/17 21/30/17
f 1/16/18 24/40/18 11/14/18
f 21/41/19 25/42/19 20/43/19
f 20/37/20 25/44/20 19/38/20
f 23/17/21 25/29/21 22/18/21
f 19/38/22 25/44/22 24/40/22
f 24/45/23 25/46/23 23/35/23
f 17/47/24 31/48/24 18/25/24
f 15/49/25 26/50/25 28/51/25
f 26/52/26 29/53/26 28/54/26
f 29/55/27 31/56/27 30/57/27
f 15/9/28 29/58/28 16/10/28
f 14/28/29 27/59/29 26/60/29
f 18/61/30 27/59/30 13/20/30
f 17/21/31 29/58/31 30/62/31
f 11/34/32 9/36/32 32/63/32
f 12/19/33 32/64/33 33/65/33
f 10/7/34 32/66/34 9/8/34
f 34/67/35 36/68/35 38/69/35
f 3/70/36 36/68/36 5/71/36
f 3/70/37 39/72/37 37/73/37
f 35/74/36 38/69/36 39/72/36
f 2/15/38 4/27/38 35/75/38
f 35/76/39 40/77/39 34/78/39
f 5/79/40 34/80/40 40/81/40
f 3/82/41 40/83/41 36/84/41
f 40/85/42 35/86/42 3/87/42
f 7/3/43 5/39/43 34/1/43
f 34/1/44 6/88/44 8/2/44
f 34/4/45 35/89/45 4/5/45
f 7/3/46 8/2/46 10/7/46
f 8/2/47 6/88/47 15/9/47
f 11/14/48 12/19/48 2/15/48
f 7/3/49 9/8/49 23/17/49
f 12/19/50 18/61/50 13/20/50
f 8/2/51 16/10/51 17/21/51
f 6/6/10 4/5/10 14/22/10
f 10/24/52 17/47/52 18/25/52
f 4/27/53 2/15/53 13/20/53
f 3/31/54 5/90/54 21/32/54
f 11/34/55 24/45/55 23/35/55
f 1/16/56 3/91/56 20/37/56
f 5/39/57 7/3/57 22/18/57
f 1/16/58 19/38/58 24/40/58
f 17/47/59 30/92/59 31/48/59
f 15/49/25 14/93/25 26/50/25
f 26/52/26 27/94/26 29/53/26
f 29/55/27 27/95/27 31/56/27
f 15/9/60 28/96/60 29/58/60
f 14/28/61 13/20/61 27/59/61
f 18/61/62 31/97/62 27/59/62
f 17/21/63 16/10/63 29/58/63
f 12/19/64 11/14/64 32/64/64
f 10/7/65 33/98/65 32/66/65
f 34/67/66 5/71/66 36/68/66
f 3/70/36 37/73/36 36/68/36
f 3/70/67 35/74/67 39/72/67
f 35/74/68 34/67/68 38/69/68
f 35/75/69 3/91/69 1/16/69
f 1/16/70 2/15/70 35/75/70
