# Blender v2.91.0 OBJ File: 'uglyfish.blend'
# www.blender.org
o Cylinder
v 1.479968 1.723808 -9.229946
v 11.628198 1.565039 -9.435575
v 1.763520 -3.322732 -8.392464
v 11.574321 -0.434529 -8.982385
v 2.318528 -3.322731 -6.615754
v 11.430388 -0.434529 -8.102652
v 2.640680 1.723808 -5.645488
v 11.378781 1.565039 -7.675858
v 2.301908 6.770347 -6.716456
v 11.477157 3.564606 -8.304802
v 1.756971 6.770347 -8.474448
v 11.486569 3.564606 -9.175083
v 14.712329 1.565040 -8.776530
v 14.651841 -0.106008 -8.406826
v 14.530866 -0.106008 -7.667421
v 14.470378 1.565040 -7.297718
v 14.536415 3.236087 -7.709312
v 14.649172 3.236087 -8.446153
v -5.921202 0.975311 -7.793029
v -5.026937 -2.118986 -6.266307
v -3.220294 -2.118985 -3.257973
v -2.334008 0.975312 -1.754991
v -3.254924 4.069607 -3.279641
v -5.020292 4.069607 -6.310688
v -7.697112 -0.000001 -2.525514
v 19.317154 -2.374174 -8.264603
v 17.417583 1.565040 -8.735168
v 18.998249 -2.374174 -6.315434
v 17.047760 1.565040 -6.474782
v 19.154938 5.345483 -6.289798
v 19.473843 5.345483 -8.238965
v 4.270610 10.749133 -8.338275
v 12.575035 5.289741 -8.796418
v 4.602449 -3.084551 -7.384077
v 4.415329 -3.084552 -8.910059
v 2.310622 -3.322731 -6.604945
v 1.789306 -3.322732 -8.291376
v 4.587061 -3.084551 -7.241266
v 4.435118 -3.084552 -8.783981
v 5.405472 -5.632796 -8.249862
vt 0.372143 0.472148
vt 0.258325 0.720793
vt 0.242460 0.386736
vt 0.929640 0.292486
vt 0.896854 0.528774
vt 0.905700 0.292486
vt 0.203802 0.721635
vt 0.105289 0.388938
vt 0.310754 0.719577
vt 0.262558 0.830351
vt 0.870744 0.639560
vt 0.846803 0.639560
vt 0.857904 0.590685
vt 0.578685 0.278296
vt 0.613955 0.613343
vt 0.478534 0.611220
vt 0.256430 0.149534
vt 0.632337 0.279114
vt 0.592114 0.168838
vt 0.636952 0.169521
vt 0.216987 0.831053
vt 0.927731 0.194789
vt 0.858361 0.194789
vt 0.880392 0.294001
vt 0.860270 0.294001
vt 0.681838 0.170439
vt 0.686048 0.280212
vt 0.268107 0.000000
vt 0.335054 0.147203
vt 0.916289 0.194789
vt 0.843809 0.000000
vt 0.938291 0.000000
vt 0.843809 0.103162
vt 0.749499 0.337643
vt 0.793422 0.101177
vt 0.707151 0.852771
vt 0.623966 0.850736
vt 0.375218 0.383745
vt 0.541008 0.849806
vt 0.749499 0.618796
vt 0.796740 0.502900
vt 0.843981 0.618796
vt 0.644178 0.999890
vt 0.169546 0.150388
vt 0.843809 0.341358
vt 0.781534 0.502900
vt 0.896853 0.463147
vt 0.843809 0.463147
vt 0.974874 0.000000
vt 0.938291 0.126436
vt 0.954752 0.000000
vt 0.938486 0.321878
vt 0.995765 0.419028
vt 0.942721 0.419028
vt 0.901088 0.625992
vt 0.958367 0.528774
vt 0.954132 0.625992
vt 0.306368 0.829334
vt 0.267392 0.924248
vt 0.640864 0.075648
vt 0.749499 0.009260
vt 0.168996 1.000000
vt 0.829081 0.000000
vt 0.375218 0.527636
vt 0.534033 0.238664
vt 0.000000 0.472521
vt 0.000000 0.000000
vt 0.000000 0.000000
vt 0.000000 0.000000
vt 0.000000 0.000000
vt 0.000000 0.000000
vt 0.000000 0.000000
vt 0.000000 0.000000
vt 0.000000 0.000000
vt 0.746827 0.527628
vt 0.938291 0.181252
vt 0.959108 0.126436
vt 0.979924 0.181252
vt 0.987690 0.321878
vt 0.938486 0.239353
vt 0.987690 0.194789
vt 0.938486 0.517826
vt 0.988328 0.419028
vt 0.988328 0.523040
vt 0.896854 0.590685
vt 0.846803 0.545461
vt 0.896854 0.463147
vt 0.938486 0.528774
vt 0.907609 0.194789
vt 0.882302 0.194789
vt 0.865811 0.194789
vt 0.749499 0.616056
vt 0.991336 0.126436
vt 1.000000 0.321878
vt 0.896854 0.528774
vt 0.375218 0.990468
vt 0.542486 0.000000
vt 0.158164 0.761249
vn 0.2146 -0.2535 0.9432
vn 0.3471 -0.9361 0.0568
vn 0.2396 0.2169 0.9463
vn -0.1187 -0.2102 0.9704
vn 0.8448 -0.5350 0.0091
vn -0.0220 0.1492 -0.9886
vn 0.5834 0.2059 0.7856
vn 0.2049 0.1973 -0.9587
vn -0.1603 0.2420 0.9569
vn 0.1030 -0.9945 0.0169
vn 0.0998 0.9949 0.0153
vn 0.2021 -0.2217 -0.9540
vn -0.0528 -0.4240 0.9041
vn -0.1470 -0.9852 0.0883
vn -0.3751 0.9197 0.1163
vn -0.1227 -0.4674 -0.8755
vn 0.3718 -0.4896 0.7887
vn -0.3567 0.1574 -0.9208
vn -0.3851 -0.8935 0.2312
vn -0.8345 -0.4182 -0.3588
vn -0.1994 0.3847 0.9012
vn -0.8978 0.3733 -0.2336
vn -0.6000 0.7197 0.3494
vn -0.3974 0.9153 -0.0650
vn -0.4344 -0.8979 -0.0711
vn 0.8844 0.4438 0.1447
vn 0.8618 -0.4873 0.1410
vn -0.2969 -0.2165 0.9300
vn -0.0357 -0.1355 -0.9901
vn 0.0150 0.1945 -0.9808
vn -0.3530 0.1516 0.9233
vn -0.8215 0.5103 0.2546
vn 0.0619 0.1766 -0.9823
vn 0.2511 0.2562 0.9334
vn -0.1076 0.9941 -0.0116
vn -0.0000 1.0000 0.0000
vn 0.0852 -0.9961 -0.0217
vn 0.0725 -0.2223 -0.9723
vn -0.9356 -0.3338 0.1147
vn -0.3313 0.2083 -0.9203
vn -0.5330 -0.8302 0.1631
vn 0.1561 0.3041 0.9398
vn 0.3310 -0.1985 0.9225
vn 0.1793 -0.2009 0.9631
vn 0.3575 -0.9329 -0.0438
vn 0.2220 0.2826 0.9332
vn -0.1129 -0.2185 0.9693
vn -0.0181 0.1279 -0.9916
vn 0.2741 0.4895 0.8278
vn 0.2363 0.1420 -0.9613
vn -0.1157 0.3032 0.9459
vn 0.1065 0.9943 0.0012
vn 0.2039 -0.2185 -0.9543
vn -0.1795 -0.9822 0.0561
vn -0.3132 0.9320 0.1824
vn -0.3221 -0.1726 -0.9309
vn 0.6225 -0.1859 0.7602
vn -0.2138 0.4720 -0.8553
vn -0.3991 0.9149 -0.0611
vn -0.3494 -0.1355 0.9271
vn 0.0149 -0.2165 -0.9762
vn -0.0188 0.1401 -0.9900
vn -0.2953 0.2395 0.9249
vn -0.0501 0.0658 -0.9966
vn 0.1660 0.1711 0.9712
vn -0.1298 0.9870 -0.0949
vn 0.0871 -0.9961 -0.0137
vn 0.0000 -1.0000 0.0000
vn -0.1740 -0.1707 -0.9698
vn -0.0214 -0.0794 -0.9966
s off
f 34/1/1 8/2/1 7/3/1
f 6/4/2 35/5/2 4/6/2
f 7/3/3 10/7/3 9/8/3
f 6/9/4 16/10/4 8/2/4
f 10/11/5 12/12/5 33/13/5
f 12/14/6 1/15/6 11/16/6
f 9/8/7 22/17/7 7/3/7
f 2/18/8 18/19/8 13/20/8
f 10/7/9 16/10/9 17/21/9
f 4/6/10 15/22/10 6/4/10
f 12/23/11 17/24/11 18/25/11
f 2/18/12 14/26/12 4/27/12
f 22/17/13 25/28/13 21/29/13
f 3/30/14 21/31/14 20/32/14
f 11/33/15 23/34/15 9/35/15
f 1/15/16 20/36/16 19/37/16
f 5/38/17 22/17/17 21/29/17
f 1/15/18 24/39/18 11/16/18
f 21/40/19 25/41/19 20/42/19
f 20/36/20 25/43/20 19/37/20
f 23/44/21 25/28/21 22/17/21
f 19/37/22 25/43/22 24/39/22
f 24/45/23 25/46/23 23/34/23
f 18/25/24 30/47/24 31/48/24
f 14/49/25 28/50/25 15/51/25
f 27/52/26 28/53/26 26/54/26
f 30/55/27 27/56/27 31/57/27
f 15/58/28 29/59/28 16/10/28
f 14/26/29 27/60/29 26/61/29
f 18/19/30 27/60/30 13/20/30
f 17/21/31 29/59/31 30/62/31
f 11/33/32 9/35/32 32/63/32
f 12/14/33 32/64/33 33/65/33
f 10/7/34 32/66/34 9/8/34
f 5/67/35 38/68/35 34/69/35
f 5/67/36 37/70/36 36/71/36
f 35/72/37 37/70/37 3/73/37
f 35/72/36 38/68/36 39/74/36
f 2/18/38 4/27/38 35/75/38
f 35/76/39 40/77/39 34/78/39
f 5/79/40 34/80/40 40/81/40
f 3/82/41 40/83/41 36/84/41
f 40/85/42 35/86/42 3/87/42
f 7/3/43 5/38/43 34/1/43
f 34/1/44 6/9/44 8/2/44
f 6/4/45 34/88/45 35/5/45
f 7/3/46 8/2/46 10/7/46
f 6/9/47 15/58/47 16/10/47
f 12/14/48 2/18/48 1/15/48
f 9/8/49 23/44/49 22/17/49
f 2/18/50 12/14/50 18/19/50
f 10/7/51 8/2/51 16/10/51
f 4/6/10 14/89/10 15/22/10
f 12/23/52 10/90/52 17/24/52
f 2/18/53 13/20/53 14/26/53
f 3/30/54 5/91/54 21/31/54
f 11/33/55 24/45/55 23/34/55
f 1/15/56 3/92/56 20/36/56
f 5/38/57 7/3/57 22/17/57
f 1/15/58 19/37/58 24/39/58
f 18/25/59 17/24/59 30/47/59
f 14/49/25 26/93/25 28/50/25
f 27/52/26 29/94/26 28/53/26
f 30/55/27 29/95/27 27/56/27
f 15/58/60 28/96/60 29/59/60
f 14/26/61 13/20/61 27/60/61
f 18/19/62 31/97/62 27/60/62
f 17/21/63 16/10/63 29/59/63
f 12/14/64 11/16/64 32/64/64
f 10/7/65 33/98/65 32/66/65
f 5/67/66 36/71/66 38/68/66
f 5/67/36 3/73/36 37/70/36
f 35/72/67 39/74/67 37/70/67
f 35/72/68 34/69/68 38/68/68
f 35/75/69 3/92/69 1/15/69
f 1/15/70 2/18/70 35/75/70
