# Blender v2.91.0 OBJ File: 'uglyfish.blend'
# www.blender.org
o Cylinder
v 2.753337 1.723806 4.140687
v 11.465940 1.565034 1.555236
v 2.968085 -3.322734 5.106347
v 11.704442 -0.434534 1.919015
v 3.406792 -3.322733 6.935731
v 12.215163 -0.434534 2.649639
v 3.601272 1.723807 7.784844
v 12.462495 1.565035 3.031320
v 3.449422 6.770345 7.002148
v 12.233257 3.564602 2.828845
v 2.991137 6.770345 5.171883
v 11.811941 3.564602 2.039582
v 14.095977 1.565035 -0.123045
v 14.310605 -0.106013 0.183996
v 14.739861 -0.106013 0.798078
v 14.954490 1.565035 1.105118
v 14.752623 3.236083 0.827249
v 14.327663 3.236083 0.208308
v -3.620414 0.975310 3.440623
v -3.552810 -2.118986 5.182601
v -3.444417 -2.118985 8.699190
v -3.376417 0.975311 10.462923
v -3.421399 4.069606 8.726207
v -3.569934 4.069606 5.217631
v -7.715581 -0.000001 7.002611
v 17.751827 -2.374179 -2.969316
v 16.062744 1.565035 -1.980989
v 18.883400 -2.374178 -1.350519
v 17.374989 1.565036 -0.103726
v 19.013531 5.345478 -1.441482
v 17.881958 5.345478 -3.060278
v 5.489283 10.749130 5.496519
v 12.990154 5.289736 1.910941
v 5.924533 -3.084553 6.026206
v 5.333856 -3.084554 4.597036
v 3.422541 -3.322733 6.924408
v 2.955780 -3.322734 5.009158
v 5.894602 -3.084553 5.927469
v 5.270807 -3.084554 4.508336
v 6.463091 -5.632799 4.960291
vt 0.372143 0.472148
vt 0.258325 0.720793
vt 0.242460 0.386736
vt 0.938486 0.528774
vt 0.905700 0.292486
vt 0.929640 0.292486
vt 0.203802 0.721635
vt 0.105289 0.388938
vt 0.306368 0.829334
vt 0.262558 0.830351
vt 0.870744 0.639560
vt 0.846803 0.639560
vt 0.857904 0.590685
vt 0.478534 0.611220
vt 0.632337 0.279114
vt 0.613955 0.613343
vt 0.169546 0.150388
vt 0.256430 0.149534
vt 0.578685 0.278296
vt 0.636952 0.169521
vt 0.216987 0.831053
vt 0.907609 0.194789
vt 0.927731 0.194789
vt 0.882302 0.194789
vt 0.860270 0.294001
vt 0.858361 0.194789
vt 0.686048 0.280212
vt 0.681838 0.170439
vt 0.268107 0.000000
vt 0.335054 0.147203
vt 0.916289 0.194789
vt 0.843809 0.000000
vt 0.938291 0.000000
vt 0.843809 0.103162
vt 0.749499 0.337643
vt 0.793422 0.101177
vt 0.707151 0.852771
vt 0.623966 0.850736
vt 0.375218 0.383745
vt 0.541008 0.849806
vt 0.749499 0.618796
vt 0.796740 0.502900
vt 0.843981 0.618796
vt 0.644178 0.999890
vt 0.843809 0.341358
vt 0.781534 0.502900
vt 0.880392 0.294001
vt 0.843809 0.463147
vt 0.954752 0.000000
vt 0.991336 0.126436
vt 0.938291 0.126436
vt 0.942721 0.419028
vt 1.000000 0.321878
vt 0.995765 0.419028
vt 0.896854 0.528774
vt 0.954132 0.625992
vt 0.901088 0.625992
vt 0.267392 0.924248
vt 0.640864 0.075648
vt 0.749499 0.009260
vt 0.592114 0.168838
vt 0.168996 1.000000
vt 0.829081 0.000000
vt 0.375218 0.527636
vt 0.534033 0.238664
vt 0.000000 0.472521
vt 0.000000 0.000000
vt 0.000000 0.000000
vt 0.000000 0.000000
vt 0.000000 0.000000
vt 0.000000 0.000000
vt 0.000000 0.000000
vt 0.000000 0.000000
vt 0.000000 0.000000
vt 0.746827 0.527628
vt 0.938291 0.181252
vt 0.959108 0.126436
vt 0.979924 0.181252
vt 0.987690 0.321878
vt 0.938486 0.239353
vt 0.987690 0.194789
vt 0.938486 0.517826
vt 0.988328 0.419028
vt 0.988328 0.523040
vt 0.896854 0.590685
vt 0.846803 0.545461
vt 0.896854 0.463147
vt 0.310754 0.719577
vt 0.896854 0.528774
vt 0.865811 0.194789
vt 0.749499 0.616056
vt 0.896853 0.463147
vt 0.974874 0.000000
vt 0.938486 0.321878
vt 0.958367 0.528774
vt 0.375218 0.990468
vt 0.542486 0.000000
vt 0.158164 0.761249
vn 0.4693 -0.0944 0.8780
vn 0.2869 -0.9367 -0.2006
vn 0.4682 0.1492 0.8709
vn 0.5968 -0.2185 0.7721
vn 0.7438 -0.5376 -0.3971
vn -0.2750 0.2049 -0.9394
vn 0.2707 0.4742 0.8378
vn -0.5156 0.2850 -0.8080
vn 0.6269 0.1493 0.7646
vn 0.0856 -0.9945 -0.0598
vn 0.0935 0.9944 -0.0499
vn -0.5215 -0.2185 -0.8248
vn -0.5069 -0.4184 0.7536
vn -0.1815 -0.9834 0.0056
vn -0.3456 0.9344 0.0865
vn 0.1514 -0.4824 -0.8628
vn 0.2175 -0.1701 0.9611
vn -0.0906 0.2035 -0.9749
vn -0.4488 -0.8935 0.0138
vn -0.5351 -0.4233 -0.7311
vn -0.6282 0.3739 0.6824
vn -0.6564 0.3837 -0.6496
vn -0.6938 0.7196 0.0294
vn -0.3328 0.9149 0.2285
vn -0.3608 -0.8979 0.2522
vn 0.7345 0.4438 -0.5134
vn 0.7157 -0.4873 -0.5003
vn 0.4362 -0.2165 0.8734
vn -0.7164 -0.1355 -0.6844
vn -0.6678 0.2328 -0.7070
vn 0.4099 0.1412 0.9011
vn -0.8358 0.5077 0.2093
vn -0.3309 0.1566 -0.9306
vn 0.4566 0.1004 0.8840
vn 0.0855 -0.9960 -0.0259
vn 0.0000 -1.0000 -0.0000
vn -0.0996 0.9949 0.0126
vn -0.3053 -0.2056 -0.9298
vn -0.8709 -0.3346 0.3599
vn -0.3491 0.2979 -0.8885
vn -0.5424 -0.8291 0.1356
vn 0.1843 0.2183 0.9583
vn 0.3490 -0.1686 0.9219
vn 0.5320 -0.2218 0.8172
vn 0.3309 -0.9337 -0.1368
vn 0.4699 0.1421 0.8712
vn 0.5953 -0.2211 0.7725
vn -0.2348 0.2670 -0.9346
vn 0.1823 0.1560 0.9708
vn -0.5518 0.2352 -0.8002
vn 0.5990 0.2012 0.7750
vn 0.0839 0.9948 -0.0576
vn -0.5256 -0.2126 -0.8237
vn -0.1631 -0.9858 0.0391
vn -0.3805 0.9246 0.0161
vn -0.0465 -0.1896 -0.9808
vn 0.3600 -0.4680 0.8071
vn 0.0368 0.4972 -0.8668
vn -0.3302 0.9153 0.2308
vn 0.3966 -0.1355 0.9079
vn -0.6704 -0.2165 -0.7097
vn -0.7160 0.1499 -0.6818
vn 0.4379 0.1987 0.8768
vn -0.2491 0.2331 -0.9400
vn 0.5373 0.2002 0.8193
vn 0.1808 -0.9508 0.2514
vn -0.0868 0.9943 0.0617
vn -0.0000 1.0000 -0.0000
vn -0.1880 -0.1923 -0.9632
vn -0.2803 -0.2387 -0.9298
s off
f 34/1/1 8/2/1 7/3/1
f 34/4/2 4/5/2 6/6/2
f 7/3/3 10/7/3 9/8/3
f 8/2/4 15/9/4 16/10/4
f 10/11/5 12/12/5 33/13/5
f 11/14/6 2/15/6 1/16/6
f 7/3/7 23/17/7 22/18/7
f 12/19/8 13/20/8 2/15/8
f 8/2/9 17/21/9 10/7/9
f 6/6/10 14/22/10 15/23/10
f 10/24/11 18/25/11 12/26/11
f 4/27/12 13/20/12 14/28/12
f 22/18/13 25/29/13 21/30/13
f 3/31/14 21/32/14 20/33/14
f 11/34/15 23/35/15 9/36/15
f 1/16/16 20/37/16 19/38/16
f 7/3/17 21/30/17 5/39/17
f 1/16/18 24/40/18 11/14/18
f 21/41/19 25/42/19 20/43/19
f 20/37/20 25/44/20 19/38/20
f 23/17/21 25/29/21 22/18/21
f 19/38/22 25/44/22 24/40/22
f 24/45/23 25/46/23 23/35/23
f 17/47/24 31/48/24 18/25/24
f 15/49/25 26/50/25 28/51/25
f 26/52/26 29/53/26 28/54/26
f 29/55/27 31/56/27 30/57/27
f 15/9/28 29/58/28 16/10/28
f 14/28/29 27/59/29 26/60/29
f 18/61/30 27/59/30 13/20/30
f 17/21/31 29/58/31 30/62/31
f 11/34/32 9/36/32 32/63/32
f 12/19/33 32/64/33 33/65/33
f 10/7/34 32/66/34 9/8/34
f 34/67/35 36/68/35 38/69/35
f 3/70/36 36/68/36 5/71/36
f 3/70/37 39/72/37 37/73/37
f 35/74/36 38/69/36 39/72/36
f 2/15/38 4/27/38 35/75/38
f 35/76/39 40/77/39 34/78/39
f 5/79/40 34/80/40 40/81/40
f 3/82/41 40/83/41 36/84/41
f 40/85/42 35/86/42 3/87/42
f 7/3/43 5/39/43 34/1/43
f 34/1/44 6/88/44 8/2/44
f 34/4/45 35/89/45 4/5/45
f 7/3/46 8/2/46 10/7/46
f 8/2/47 6/88/47 15/9/47
f 11/14/48 12/19/48 2/15/48
f 7/3/49 9/8/49 23/17/49
f 12/19/50 18/61/50 13/20/50
f 8/2/51 16/10/51 17/21/51
f 6/6/10 4/5/10 14/22/10
f 10/24/52 17/47/52 18/25/52
f 4/27/53 2/15/53 13/20/53
f 3/31/54 5/90/54 21/32/54
f 11/34/55 24/45/55 23/35/55
f 1/16/56 3/91/56 20/37/56
f 7/3/57 22/18/57 21/30/57
f 1/16/58 19/38/58 24/40/58
f 17/47/59 30/92/59 31/48/59
f 15/49/25 14/93/25 26/50/25
f 26/52/26 27/94/26 29/53/26
f 29/55/27 27/95/27 31/56/27
f 15/9/60 28/96/60 29/58/60
f 14/28/61 13/20/61 27/59/61
f 18/61/62 31/97/62 27/59/62
f 17/21/63 16/10/63 29/58/63
f 12/19/64 11/14/64 32/64/64
f 10/7/65 33/98/65 32/66/65
f 34/67/66 5/71/66 36/68/66
f 3/70/36 37/73/36 36/68/36
f 3/70/67 35/74/67 39/72/67
f 35/74/68 34/67/68 38/69/68
f 35/75/69 3/91/69 1/16/69
f 1/16/70 2/15/70 35/75/70
