# Blender v2.91.0 OBJ File: 'uglyfish.blend'
# www.blender.org
o Cylinder
v 2.961238 1.723806 -1.407585
v 10.609353 1.565034 3.804335
v 2.473589 -3.322734 -0.605874
v 10.505202 -0.434534 4.220459
v 1.521858 -3.322733 1.007356
v 10.326171 -0.434534 5.093726
v 1.025762 1.723807 1.817853
v 10.210395 1.565034 5.537189
v 1.502531 6.770346 1.095221
v 10.212863 3.564601 5.183755
v 2.447957 6.770345 -0.559234
v 10.526599 3.564601 4.358090
v 13.632457 1.565034 4.551751
v 13.557220 -0.106014 4.918737
v 13.406745 -0.106014 5.652708
v 13.331508 1.565034 6.019694
v 13.386215 3.236081 5.695420
v 13.546345 3.236081 4.961580
v -2.343638 0.975311 -6.255559
v -3.134787 -2.118986 -4.679191
v -4.699908 -2.118986 -1.530957
v -5.485827 0.975311 0.037904
v -4.701085 4.069607 -1.545830
v -3.120322 4.069606 -4.686896
v -7.702816 -0.000001 -4.955055
v 18.213100 -2.374181 5.247581
v 16.333889 1.565034 4.701362
v 17.816433 -2.374181 7.182423
v 15.873885 1.565034 6.945132
v 17.971970 5.345476 7.214310
v 18.368637 5.345476 5.279468
v 3.974642 10.749131 1.510112
v 11.403049 5.289736 5.142889
v 3.761294 -3.084553 2.290651
v 4.483874 -3.084554 0.921316
v 1.514954 -3.322733 1.020013
v 2.477372 -3.322734 -0.589325
v 3.798542 -3.084553 2.171472
v 4.534090 -3.084554 0.806911
v 4.922664 -5.632799 2.029394
vt 0.372143 0.472148
vt 0.258325 0.720793
vt 0.242460 0.386736
vt 0.929640 0.292486
vt 0.896854 0.528774
vt 0.905700 0.292486
vt 0.203802 0.721635
vt 0.105289 0.388938
vt 0.310754 0.719577
vt 0.262558 0.830351
vt 0.870744 0.639560
vt 0.846803 0.639560
vt 0.857904 0.590685
vt 0.578685 0.278296
vt 0.613955 0.613343
vt 0.478534 0.611220
vt 0.169546 0.150388
vt 0.256430 0.149534
vt 0.632337 0.279114
vt 0.592114 0.168838
vt 0.636952 0.169521
vt 0.216987 0.831053
vt 0.927731 0.194789
vt 0.858361 0.194789
vt 0.880392 0.294001
vt 0.860270 0.294001
vt 0.681838 0.170439
vt 0.686048 0.280212
vt 0.268107 0.000000
vt 0.335054 0.147203
vt 0.865811 0.194789
vt 0.938291 0.000000
vt 0.916289 0.194789
vt 0.793422 0.101177
vt 0.843809 0.341358
vt 0.749499 0.337643
vt 0.749499 0.616056
vt 0.623966 0.850736
vt 0.375218 0.383745
vt 0.541008 0.849806
vt 0.749499 0.618796
vt 0.796740 0.502900
vt 0.843981 0.618796
vt 0.707151 0.852771
vt 0.644178 0.999890
vt 0.781534 0.502900
vt 0.896853 0.463147
vt 0.843809 0.463147
vt 0.974874 0.000000
vt 0.938291 0.126436
vt 0.954752 0.000000
vt 0.938486 0.321878
vt 0.995765 0.419028
vt 0.942721 0.419028
vt 0.901088 0.625992
vt 0.958367 0.528774
vt 0.954132 0.625992
vt 0.306368 0.829334
vt 0.267392 0.924248
vt 0.640864 0.075648
vt 0.749499 0.009260
vt 0.168996 1.000000
vt 0.843809 0.103162
vt 0.829081 0.000000
vt 0.375218 0.527636
vt 0.534033 0.238664
vt 0.000000 0.472521
vt 0.000000 0.000000
vt 0.000000 0.000000
vt 0.000000 0.000000
vt 0.000000 0.000000
vt 0.000000 0.000000
vt 0.000000 0.000000
vt 0.000000 0.000000
vt 0.000000 0.000000
vt 0.746827 0.527628
vt 0.938291 0.181252
vt 0.959108 0.126436
vt 0.979924 0.181252
vt 0.987690 0.321878
vt 0.938486 0.239353
vt 0.987690 0.194789
vt 0.938486 0.517826
vt 0.988328 0.419028
vt 0.988328 0.523040
vt 0.896854 0.590685
vt 0.846803 0.545461
vt 0.896854 0.463147
vt 0.938486 0.528774
vt 0.907609 0.194789
vt 0.882302 0.194789
vt 0.843809 0.000000
vt 0.991336 0.126436
vt 1.000000 0.321878
vt 0.896854 0.528774
vt 0.375218 0.990468
vt 0.542486 0.000000
vt 0.158164 0.761249
vn -0.3743 -0.1226 0.9192
vn 0.3669 -0.9272 0.0752
vn -0.3684 0.1658 0.9148
vn -0.1490 -0.2223 0.9635
vn 0.7886 -0.5370 0.2996
vn 0.5648 0.1923 -0.8025
vn -0.2817 0.4928 0.8233
vn 0.2328 0.2429 -0.9417
vn -0.1394 0.1725 0.9751
vn 0.1023 -0.9945 0.0210
vn 0.1037 0.9944 0.0226
vn 0.2395 -0.2098 -0.9480
vn -0.7948 -0.4227 0.4355
vn -0.1480 -0.9851 -0.0873
vn -0.3327 0.9280 -0.1674
vn 0.6774 -0.1788 -0.7136
vn -0.4016 -0.1836 0.8972
vn 0.3517 0.4920 -0.7964
vn -0.4023 -0.8934 -0.2000
vn -0.1410 -0.4205 -0.8963
vn -0.8705 0.3805 0.3122
vn -0.2826 0.3764 -0.8823
vn -0.6205 0.7193 -0.3123
vn -0.3950 0.9151 -0.0810
vn -0.4312 -0.8979 -0.0884
vn 0.8779 0.4438 0.1800
vn 0.8555 -0.4873 0.1754
vn -0.3339 -0.2165 0.9174
vn 0.0040 -0.1355 -0.9908
vn 0.0537 0.2405 -0.9692
vn -0.3684 0.1390 0.9192
vn -0.7474 0.5089 -0.4271
vn 0.5100 0.1279 -0.8506
vn -0.3782 0.1396 0.9151
vn 0.0897 -0.9956 0.0280
vn -0.0000 -1.0000 0.0000
vn 0.1357 -0.9903 -0.0310
vn 0.5367 -0.1986 -0.8200
vn -0.8334 -0.3347 -0.4398
vn 0.4519 0.2924 -0.8428
vn -0.4795 -0.8308 -0.2827
vn -0.6060 0.2271 0.7623
vn -0.4738 -0.1849 0.8610
vn -0.3053 -0.2230 0.9258
vn 0.3087 -0.9371 0.1629
vn -0.3680 0.1623 0.9156
vn -0.1516 -0.2185 0.9640
vn 0.5496 0.2440 -0.7990
vn -0.4472 0.1680 0.8785
vn 0.2168 0.2689 -0.9385
vn -0.1499 0.1931 0.9697
vn 0.0970 0.9946 0.0369
vn 0.2342 -0.2186 -0.9473
vn -0.1583 -0.9842 -0.0787
vn -0.3172 0.9309 -0.1812
vn 0.4388 -0.4944 -0.7503
vn -0.1794 -0.4807 0.8583
vn 0.6476 0.1899 -0.7379
vn -0.3928 0.9156 -0.0857
vn -0.3862 -0.1355 0.9124
vn 0.0540 -0.2165 -0.9748
vn -0.0013 0.1518 -0.9884
vn -0.3358 0.1900 0.9226
vn 0.5659 0.1990 -0.8001
vn -0.2912 0.2229 0.9303
vn -0.0807 0.9958 -0.0440
vn -0.0884 0.9953 -0.0388
vn 0.6084 -0.1815 -0.7726
vn 0.5464 -0.2186 -0.8085
s off
f 34/1/1 8/2/1 7/3/1
f 6/4/2 35/5/2 4/6/2
f 7/3/3 10/7/3 9/8/3
f 6/9/4 16/10/4 8/2/4
f 10/11/5 12/12/5 33/13/5
f 12/14/6 1/15/6 11/16/6
f 7/3/7 23/17/7 22/18/7
f 2/19/8 18/20/8 13/21/8
f 8/2/9 17/22/9 10/7/9
f 4/6/10 15/23/10 6/4/10
f 12/24/11 17/25/11 18/26/11
f 2/19/12 14/27/12 4/28/12
f 22/18/13 25/29/13 21/30/13
f 5/31/14 20/32/14 3/33/14
f 9/34/15 24/35/15 23/36/15
f 3/37/16 19/38/16 1/15/16
f 7/3/17 21/30/17 5/39/17
f 11/16/18 19/38/18 24/40/18
f 21/41/19 25/42/19 20/43/19
f 20/44/20 25/45/20 19/38/20
f 23/17/21 25/29/21 22/18/21
f 19/38/22 25/45/22 24/40/22
f 24/35/23 25/46/23 23/36/23
f 18/26/24 30/47/24 31/48/24
f 14/49/25 28/50/25 15/51/25
f 27/52/26 28/53/26 26/54/26
f 30/55/27 27/56/27 31/57/27
f 15/58/28 29/59/28 16/10/28
f 14/27/29 27/60/29 26/61/29
f 18/20/30 27/60/30 13/21/30
f 17/22/31 29/59/31 30/62/31
f 11/63/32 9/34/32 32/64/32
f 12/14/33 32/65/33 33/66/33
f 10/7/34 32/67/34 9/8/34
f 34/68/35 36/69/35 38/70/35
f 5/71/36 37/72/36 36/69/36
f 3/73/37 39/74/37 37/72/37
f 35/75/36 38/70/36 39/74/36
f 2/19/38 4/28/38 35/76/38
f 35/77/39 40/78/39 34/79/39
f 5/80/40 34/81/40 40/82/40
f 3/83/41 40/84/41 36/85/41
f 40/86/42 35/87/42 3/88/42
f 7/3/43 5/39/43 34/1/43
f 34/1/44 6/9/44 8/2/44
f 6/4/45 34/89/45 35/5/45
f 7/3/46 8/2/46 10/7/46
f 6/9/47 15/58/47 16/10/47
f 12/14/48 2/19/48 1/15/48
f 7/3/49 9/8/49 23/17/49
f 2/19/50 12/14/50 18/20/50
f 8/2/51 16/10/51 17/22/51
f 4/6/10 14/90/10 15/23/10
f 12/24/52 10/91/52 17/25/52
f 2/19/53 13/21/53 14/27/53
f 5/31/54 21/92/54 20/32/54
f 9/34/55 11/63/55 24/35/55
f 3/37/56 20/44/56 19/38/56
f 7/3/57 22/18/57 21/30/57
f 11/16/58 1/15/58 19/38/58
f 18/26/59 17/25/59 30/47/59
f 14/49/25 26/93/25 28/50/25
f 27/52/26 29/94/26 28/53/26
f 30/55/27 29/95/27 27/56/27
f 15/58/60 28/96/60 29/59/60
f 14/27/61 13/21/61 27/60/61
f 18/20/62 31/97/62 27/60/62
f 17/22/63 16/10/63 29/59/63
f 12/14/64 11/16/64 32/65/64
f 10/7/65 33/98/65 32/67/65
f 34/68/66 5/71/66 36/69/66
f 5/71/36 3/73/36 37/72/36
f 3/73/67 35/75/67 39/74/67
f 35/75/36 34/68/36 38/70/36
f 35/76/68 3/37/68 1/15/68
f 1/15/69 2/19/69 35/76/69
