# Blender v2.91.0 OBJ File: 'uglyfish.blend'
# www.blender.org
o Cylinder
v 3.129358 1.723806 6.535812
v 12.114501 1.565035 7.006923
v 3.008437 -3.322734 7.516622
v 12.249658 -0.434533 7.413969
v 2.809370 -3.322733 9.387207
v 12.566812 -0.434533 8.247072
v 2.707495 1.723807 10.254070
v 12.706819 1.565035 8.683525
v 2.839541 6.770345 9.491176
v 12.511549 3.564603 8.458355
v 3.012478 6.770345 7.605147
v 12.342503 3.564603 7.586156
v 15.066939 1.565035 6.016688
v 15.200221 -0.106013 6.366795
v 15.466784 -0.106013 7.067010
v 15.600066 1.565035 7.417118
v 15.472355 3.236083 7.114219
v 15.214039 3.236083 6.408928
v -2.670698 0.975311 3.751772
v -3.179425 -2.118986 5.419887
v -4.231693 -2.118986 8.777218
v -4.747013 0.975311 10.465240
v -4.219397 4.069606 8.809140
v -3.206191 4.069606 5.446266
v -7.709545 -0.000001 5.774680
v 19.306465 -2.374179 4.147757
v 17.427372 1.565035 4.694391
v 20.009163 -2.374179 5.993610
v 18.242268 1.565036 6.834965
v 20.157547 5.345478 5.937122
v 19.454849 5.345478 4.091269
v 5.270416 10.749131 8.782140
v 13.498043 5.289737 7.810085
v 5.500940 -3.084553 9.413960
v 5.416320 -3.084554 7.871523
v 2.827458 -3.322733 9.382425
v 3.029062 -3.322734 7.423373
v 5.488890 -3.084553 9.274925
v 5.379454 -3.084554 7.728612
v 6.360724 -5.632799 8.588317
vt 0.372143 0.472148
vt 0.258325 0.720793
vt 0.242460 0.386736
vt 0.938486 0.528774
vt 0.905700 0.292486
vt 0.929640 0.292486
vt 0.203802 0.721635
vt 0.105289 0.388938
vt 0.306368 0.829334
vt 0.262558 0.830351
vt 0.870744 0.639560
vt 0.846803 0.639560
vt 0.857904 0.590685
vt 0.478534 0.611220
vt 0.632337 0.279114
vt 0.613955 0.613343
vt 0.169546 0.150388
vt 0.256430 0.149534
vt 0.578685 0.278296
vt 0.636952 0.169521
vt 0.216987 0.831053
vt 0.907609 0.194789
vt 0.927731 0.194789
vt 0.882302 0.194789
vt 0.860270 0.294001
vt 0.858361 0.194789
vt 0.686048 0.280212
vt 0.681838 0.170439
vt 0.268107 0.000000
vt 0.335054 0.147203
vt 0.865811 0.194789
vt 0.938291 0.000000
vt 0.916289 0.194789
vt 0.793422 0.101177
vt 0.843809 0.341358
vt 0.749499 0.337643
vt 0.749499 0.616056
vt 0.623966 0.850736
vt 0.375218 0.383745
vt 0.541008 0.849806
vt 0.749499 0.618796
vt 0.796740 0.502900
vt 0.843981 0.618796
vt 0.707151 0.852771
vt 0.644178 0.999890
vt 0.781534 0.502900
vt 0.880392 0.294001
vt 0.843809 0.463147
vt 0.954752 0.000000
vt 0.991336 0.126436
vt 0.938291 0.126436
vt 0.942721 0.419028
vt 1.000000 0.321878
vt 0.995765 0.419028
vt 0.896854 0.528774
vt 0.954132 0.625992
vt 0.901088 0.625992
vt 0.267392 0.924248
vt 0.640864 0.075648
vt 0.749499 0.009260
vt 0.592114 0.168838
vt 0.168996 1.000000
vt 0.843809 0.103162
vt 0.829081 0.000000
vt 0.375218 0.527636
vt 0.534033 0.238664
vt 0.000000 0.472521
vt 0.000000 0.000000
vt 0.000000 0.000000
vt 0.000000 0.000000
vt 0.000000 0.000000
vt 0.000000 0.000000
vt 0.000000 0.000000
vt 0.000000 0.000000
vt 0.000000 0.000000
vt 0.746827 0.527628
vt 0.938291 0.181252
vt 0.959108 0.126436
vt 0.979924 0.181252
vt 0.987690 0.321878
vt 0.938486 0.239353
vt 0.987690 0.194789
vt 0.938486 0.517826
vt 0.988328 0.419028
vt 0.988328 0.523040
vt 0.896854 0.590685
vt 0.846803 0.545461
vt 0.896854 0.463147
vt 0.310754 0.719577
vt 0.896854 0.528774
vt 0.843809 0.000000
vt 0.896853 0.463147
vt 0.974874 0.000000
vt 0.938486 0.321878
vt 0.958367 0.528774
vt 0.375218 0.990468
vt 0.542486 0.000000
vt 0.158164 0.761249
vn 0.1533 -0.0830 0.9847
vn 0.3301 -0.9355 -0.1257
vn 0.1521 0.1438 0.9778
vn 0.3913 -0.2185 0.8939
vn 0.8296 -0.5348 -0.1608
vn 0.0549 0.2082 -0.9765
vn -0.0227 0.4748 0.8798
vn -0.3036 0.2969 -0.9053
vn 0.4222 0.1420 0.8953
vn 0.0976 -0.9945 -0.0371
vn 0.1054 0.9942 -0.0204
vn -0.3047 -0.2185 -0.9270
vn -0.7260 -0.4186 0.5456
vn -0.1845 -0.9826 -0.0196
vn -0.3466 0.9322 -0.1044
vn 0.4445 -0.1812 -0.8773
vn -0.1139 -0.1704 0.9788
vn 0.2396 0.2066 -0.9486
vn -0.4285 -0.8935 -0.1343
vn -0.2658 -0.4232 -0.8662
vn -0.8173 0.3740 0.4384
vn -0.4070 0.3835 -0.8290
vn -0.6649 0.7196 -0.2003
vn -0.3792 0.9149 0.1389
vn -0.4114 -0.8979 0.1566
vn 0.8375 0.4438 -0.3188
vn 0.8161 -0.4873 -0.3107
vn 0.2101 -0.2165 0.9534
vn -0.5279 -0.1355 -0.8384
vn -0.4744 0.2405 -0.8468
vn 0.1820 0.1390 0.9734
vn -0.8569 0.5095 -0.0786
vn -0.0219 0.1431 -0.9895
vn 0.1360 0.0927 0.9864
vn 0.0888 -0.9960 -0.0077
vn 0.0000 -1.0000 -0.0000
vn -0.0980 0.9949 -0.0217
vn 0.0114 -0.1987 -0.9800
vn -0.9411 -0.3342 0.0516
vn -0.0173 0.3029 -0.9529
vn -0.5549 -0.8302 -0.0538
vn -0.1629 0.2107 0.9639
vn 0.0052 -0.1692 0.9856
vn 0.2397 -0.2230 0.9449
vn 0.3603 -0.9326 -0.0198
vn 0.1559 0.1256 0.9798
vn 0.3890 -0.2224 0.8940
vn 0.0900 0.2676 -0.9593
vn -0.1524 0.1516 0.9766
vn -0.3440 0.2432 -0.9069
vn 0.3934 0.1930 0.8989
vn 0.0947 0.9949 -0.0347
vn -0.3109 -0.2097 -0.9270
vn -0.1640 -0.9851 -0.0514
vn -0.3877 0.9211 -0.0355
vn 0.1927 -0.4900 -0.8501
vn 0.0720 -0.4684 0.8806
vn 0.3226 0.4970 -0.8056
vn -0.3762 0.9154 0.1432
vn 0.1633 -0.1355 0.9772
vn -0.4771 -0.2165 -0.8517
vn -0.5311 0.1518 -0.8336
vn 0.2113 0.1899 0.9588
vn 0.0806 0.2404 -0.9673
vn 0.2516 0.2110 0.9445
vn 0.0809 -0.9486 0.3060
vn -0.1023 0.9944 0.0264
vn 0.1617 -0.1920 -0.9680
vn 0.0464 -0.2468 -0.9679
s off
f 34/1/1 8/2/1 7/3/1
f 34/4/2 4/5/2 6/6/2
f 7/3/3 10/7/3 9/8/3
f 8/2/4 15/9/4 16/10/4
f 10/11/5 12/12/5 33/13/5
f 11/14/6 2/15/6 1/16/6
f 7/3/7 23/17/7 22/18/7
f 12/19/8 13/20/8 2/15/8
f 8/2/9 17/21/9 10/7/9
f 6/6/10 14/22/10 15/23/10
f 10/24/11 18/25/11 12/26/11
f 4/27/12 13/20/12 14/28/12
f 22/18/13 25/29/13 21/30/13
f 5/31/14 20/32/14 3/33/14
f 9/34/15 24/35/15 23/36/15
f 3/37/16 19/38/16 1/16/16
f 7/3/17 21/30/17 5/39/17
f 1/16/18 24/40/18 11/14/18
f 21/41/19 25/42/19 20/43/19
f 20/44/20 25/45/20 19/38/20
f 23/17/21 25/29/21 22/18/21
f 19/38/22 25/45/22 24/40/22
f 24/35/23 25/46/23 23/36/23
f 17/47/24 31/48/24 18/25/24
f 15/49/25 26/50/25 28/51/25
f 26/52/26 29/53/26 28/54/26
f 29/55/27 31/56/27 30/57/27
f 15/9/28 29/58/28 16/10/28
f 14/28/29 27/59/29 26/60/29
f 18/61/30 27/59/30 13/20/30
f 17/21/31 29/58/31 30/62/31
f 11/63/32 9/34/32 32/64/32
f 12/19/33 32/65/33 33/66/33
f 10/7/34 32/67/34 9/8/34
f 34/68/35 36/69/35 38/70/35
f 3/71/36 36/69/36 5/72/36
f 3/71/37 39/73/37 37/74/37
f 35/75/36 38/70/36 39/73/36
f 2/15/38 4/27/38 35/76/38
f 35/77/39 40/78/39 34/79/39
f 5/80/40 34/81/40 40/82/40
f 3/83/41 40/84/41 36/85/41
f 40/86/42 35/87/42 3/88/42
f 7/3/43 5/39/43 34/1/43
f 34/1/44 6/89/44 8/2/44
f 34/4/45 35/90/45 4/5/45
f 7/3/46 8/2/46 10/7/46
f 8/2/47 6/89/47 15/9/47
f 11/14/48 12/19/48 2/15/48
f 7/3/49 9/8/49 23/17/49
f 12/19/50 18/61/50 13/20/50
f 8/2/51 16/10/51 17/21/51
f 6/6/10 4/5/10 14/22/10
f 10/24/52 17/47/52 18/25/52
f 4/27/53 2/15/53 13/20/53
f 5/31/54 21/91/54 20/32/54
f 9/34/55 11/63/55 24/35/55
f 3/37/56 20/44/56 19/38/56
f 7/3/57 22/18/57 21/30/57
f 1/16/58 19/38/58 24/40/58
f 17/47/59 30/92/59 31/48/59
f 15/49/25 14/93/25 26/50/25
f 26/52/26 27/94/26 29/53/26
f 29/55/27 27/95/27 31/56/27
f 15/9/60 28/96/60 29/58/60
f 14/28/61 13/20/61 27/59/61
f 18/61/62 31/97/62 27/59/62
f 17/21/63 16/10/63 29/58/63
f 12/19/64 11/14/64 32/65/64
f 10/7/65 33/98/65 32/67/65
f 34/68/66 5/72/66 36/69/66
f 3/71/36 37/74/36 36/69/36
f 3/71/67 35/75/67 39/73/67
f 35/75/36 34/68/36 38/70/36
f 35/76/68 3/37/68 1/16/68
f 1/16/69 2/15/69 35/76/69
