# Blender v2.91.0 OBJ File: 'uglyfish.blend'
# www.blender.org
o Cylinder
v 3.021153 1.723808 -10.137267
v 12.813539 1.565038 -7.210809
v 3.095676 -3.322732 -9.256905
v 12.621900 -0.434530 -6.797266
v 3.165058 -3.322731 -7.391517
v 12.214478 -0.434530 -6.004387
v 3.236012 1.723808 -6.378429
v 12.032617 1.565038 -5.613512
v 3.176759 6.770346 -7.487461
v 12.319464 3.564605 -6.222613
v 3.118125 6.770346 -9.325939
v 12.599264 3.564606 -7.041551
v 15.544648 1.565039 -5.636657
v 15.373431 -0.106009 -5.303455
v 15.030997 -0.106009 -4.637050
v 14.859780 1.565039 -4.303847
v 15.048235 3.236086 -4.672450
v 15.382648 3.236086 -5.339006
v -4.278554 0.975311 -10.897964
v -3.939944 -2.118986 -9.164461
v -3.244270 -2.118985 -5.720282
v -2.906057 0.975311 -4.001897
v -3.260418 4.069607 -5.738931
v -3.928239 4.069607 -9.188901
v -7.712972 -0.000001 -6.561899
v 19.769081 -2.374175 -3.733854
v 18.106171 1.565039 -4.765617
v 18.866383 -2.374175 -1.977125
v 17.059341 1.565039 -2.728397
v 19.007599 5.345482 -1.904560
v 19.910297 5.345482 -3.661288
v 5.501170 10.749133 -8.523596
v 13.514889 5.289740 -6.355477
v 5.519601 -3.084551 -7.538424
v 5.812745 -3.084552 -9.042540
v 3.152068 -3.322731 -7.401736
v 3.071462 -3.322732 -9.160748
v 5.449626 -3.084551 -7.403365
v 5.806314 -3.084552 -8.911951
v 6.547529 -5.632797 -8.107607
vt 0.372143 0.472148
vt 0.258325 0.720793
vt 0.242460 0.386736
vt 0.929640 0.292486
vt 0.896854 0.528774
vt 0.905700 0.292486
vt 0.105289 0.388938
vt 0.310754 0.719577
vt 0.262558 0.830351
vt 0.870744 0.639560
vt 0.846803 0.639560
vt 0.857904 0.590685
vt 0.578685 0.278296
vt 0.613955 0.613343
vt 0.478534 0.611220
vt 0.169546 0.150388
vt 0.256430 0.149534
vt 0.632337 0.279114
vt 0.592114 0.168838
vt 0.636952 0.169521
vt 0.203802 0.721635
vt 0.216987 0.831053
vt 0.927731 0.194789
vt 0.858361 0.194789
vt 0.880392 0.294001
vt 0.860270 0.294001
vt 0.681838 0.170439
vt 0.686048 0.280212
vt 0.268107 0.000000
vt 0.335054 0.147203
vt 0.916289 0.194789
vt 0.843809 0.000000
vt 0.938291 0.000000
vt 0.843809 0.103162
vt 0.749499 0.337643
vt 0.793422 0.101177
vt 0.707151 0.852771
vt 0.623966 0.850736
vt 0.375218 0.383745
vt 0.541008 0.849806
vt 0.749499 0.618796
vt 0.796740 0.502900
vt 0.843981 0.618796
vt 0.644178 0.999890
vt 0.843809 0.341358
vt 0.781534 0.502900
vt 0.896853 0.463147
vt 0.843809 0.463147
vt 0.974874 0.000000
vt 0.938291 0.126436
vt 0.954752 0.000000
vt 0.938486 0.321878
vt 0.995765 0.419028
vt 0.942721 0.419028
vt 0.901088 0.625992
vt 0.958367 0.528774
vt 0.954132 0.625992
vt 0.306368 0.829334
vt 0.267392 0.924248
vt 0.640864 0.075648
vt 0.749499 0.009260
vt 0.168996 1.000000
vt 0.829081 0.000000
vt 0.375218 0.527636
vt 0.534033 0.238664
vt 0.000000 0.472521
vt 0.000000 0.000000
vt 0.000000 0.000000
vt 0.000000 0.000000
vt 0.000000 0.000000
vt 0.000000 0.000000
vt 0.000000 0.000000
vt 0.000000 0.000000
vt 0.000000 0.000000
vt 0.746827 0.527628
vt 0.938291 0.181252
vt 0.959108 0.126436
vt 0.979924 0.181252
vt 0.987690 0.321878
vt 0.938486 0.239353
vt 0.987690 0.194789
vt 0.938486 0.517826
vt 0.988328 0.419028
vt 0.988328 0.523040
vt 0.896854 0.590685
vt 0.846803 0.545461
vt 0.896854 0.463147
vt 0.938486 0.528774
vt 0.907609 0.194789
vt 0.882302 0.194789
vt 0.865811 0.194789
vt 0.749499 0.616056
vt 0.991336 0.126436
vt 1.000000 0.321878
vt 0.896854 0.528774
vt 0.375218 0.990468
vt 0.542486 0.000000
vt 0.158164 0.761249
vn -0.0882 -0.2730 0.9580
vn 0.3117 -0.9366 0.1602
vn -0.0808 0.2130 0.9737
vn -0.4109 -0.2108 0.8870
vn 0.8004 -0.5335 0.2734
vn 0.2785 0.1472 -0.9491
vn 0.2604 0.4951 0.8289
vn 0.4894 0.1987 -0.8491
vn -0.4574 0.2404 0.8561
vn 0.0928 -0.9945 0.0477
vn 0.0899 0.9949 0.0451
vn 0.4856 -0.2214 -0.8457
vn -0.3575 -0.4232 0.8325
vn -0.1681 -0.9852 0.0340
vn -0.3840 0.9232 0.0122
vn 0.1391 -0.4724 -0.8704
vn 0.1319 -0.4922 0.8604
vn -0.0804 0.1597 -0.9839
vn -0.4404 -0.8934 0.0890
vn -0.6632 -0.4197 -0.6197
vn -0.4936 0.3821 0.7813
vn -0.7659 0.3751 -0.5222
vn -0.6819 0.7194 0.1320
vn -0.3582 0.9153 -0.1841
vn -0.3915 -0.8979 -0.2012
vn 0.7971 0.4438 0.4096
vn 0.7767 -0.4873 0.3991
vn -0.5685 -0.2165 0.7937
vn 0.2704 -0.1355 -0.9532
vn 0.3157 0.1960 -0.9284
vn -0.6192 0.1512 0.7705
vn -0.8600 0.5096 0.0274
vn 0.3641 0.1709 -0.9156
vn -0.0375 0.2723 0.9615
vn -0.1030 0.9932 -0.0534
vn 0.0000 1.0000 -0.0000
vn 0.0848 -0.9962 0.0214
vn 0.3822 -0.2221 -0.8970
vn -0.9255 -0.3330 -0.1804
vn -0.0800 0.1865 -0.9792
vn -0.5600 -0.8283 0.0170
vn -0.1022 0.3165 0.9431
vn 0.0809 -0.1973 0.9770
vn -0.1419 -0.2023 0.9690
vn 0.3535 -0.9329 0.0689
vn -0.0287 0.2950 0.9551
vn -0.4054 -0.2185 0.8876
vn 0.2862 0.1112 -0.9517
vn 0.1717 0.2134 0.9618
vn 0.5285 0.1277 -0.8393
vn -0.3984 0.3191 0.8599
vn 0.1003 0.9944 0.0343
vn 0.4873 -0.2185 -0.8455
vn -0.1829 -0.9831 0.0068
vn -0.3559 0.9320 0.0689
vn -0.0424 -0.1723 -0.9841
vn 0.3742 -0.1876 0.9082
vn 0.0422 0.4794 -0.8766
vn -0.3609 0.9149 -0.1810
vn -0.6175 -0.1355 0.7748
vn 0.3143 -0.2165 -0.9243
vn 0.2858 0.1405 -0.9479
vn -0.5656 0.2380 0.7896
vn 0.2487 0.0461 -0.9675
vn -0.1443 0.1750 0.9739
vn 0.0927 -0.9887 -0.1178
vn 0.0870 -0.9962 0.0043
vn 0.0000 -1.0000 0.0000
vn 0.0923 -0.1698 -0.9811
vn 0.2852 -0.0523 -0.9570
s off
f 34/1/1 8/2/1 7/3/1
f 6/4/2 35/5/2 4/6/2
f 8/2/3 9/7/3 7/3/3
f 6/8/4 16/9/4 8/2/4
f 10/10/5 12/11/5 33/12/5
f 12/13/6 1/14/6 11/15/6
f 7/3/7 23/16/7 22/17/7
f 2/18/8 18/19/8 13/20/8
f 10/21/9 16/9/9 17/22/9
f 4/6/10 15/23/10 6/4/10
f 12/24/11 17/25/11 18/26/11
f 2/18/12 14/27/12 4/28/12
f 22/17/13 25/29/13 21/30/13
f 3/31/14 21/32/14 20/33/14
f 11/34/15 23/35/15 9/36/15
f 1/14/16 20/37/16 19/38/16
f 5/39/17 22/17/17 21/30/17
f 1/14/18 24/40/18 11/15/18
f 21/41/19 25/42/19 20/43/19
f 20/37/20 25/44/20 19/38/20
f 23/16/21 25/29/21 22/17/21
f 19/38/22 25/44/22 24/40/22
f 24/45/23 25/46/23 23/35/23
f 18/26/24 30/47/24 31/48/24
f 14/49/25 28/50/25 15/51/25
f 27/52/26 28/53/26 26/54/26
f 30/55/27 27/56/27 31/57/27
f 15/58/28 29/59/28 16/9/28
f 14/27/29 27/60/29 26/61/29
f 18/19/30 27/60/30 13/20/30
f 17/22/31 29/59/31 30/62/31
f 11/34/32 9/36/32 32/63/32
f 12/13/33 32/64/33 33/65/33
f 10/21/34 32/66/34 9/7/34
f 34/67/35 36/68/35 38/69/35
f 5/70/36 37/71/36 36/68/36
f 3/72/37 39/73/37 37/71/37
f 35/74/36 38/69/36 39/73/36
f 2/18/38 4/28/38 35/75/38
f 35/76/39 40/77/39 34/78/39
f 5/79/40 34/80/40 40/81/40
f 3/82/41 40/83/41 36/84/41
f 40/85/42 35/86/42 3/87/42
f 7/3/43 5/39/43 34/1/43
f 34/1/44 6/8/44 8/2/44
f 6/4/45 34/88/45 35/5/45
f 8/2/46 10/21/46 9/7/46
f 6/8/47 15/58/47 16/9/47
f 12/13/48 2/18/48 1/14/48
f 7/3/49 9/7/49 23/16/49
f 2/18/50 12/13/50 18/19/50
f 10/21/51 8/2/51 16/9/51
f 4/6/10 14/89/10 15/23/10
f 12/24/52 10/90/52 17/25/52
f 2/18/53 13/20/53 14/27/53
f 3/31/54 5/91/54 21/32/54
f 11/34/55 24/45/55 23/35/55
f 1/14/56 3/92/56 20/37/56
f 5/39/57 7/3/57 22/17/57
f 1/14/58 19/38/58 24/40/58
f 18/26/59 17/25/59 30/47/59
f 14/49/25 26/93/25 28/50/25
f 27/52/26 29/94/26 28/53/26
f 30/55/27 29/95/27 27/56/27
f 15/58/60 28/96/60 29/59/60
f 14/27/61 13/20/61 27/60/61
f 18/19/62 31/97/62 27/60/62
f 17/22/63 16/9/63 29/59/63
f 12/13/64 11/15/64 32/64/64
f 10/21/65 33/98/65 32/66/65
f 34/67/66 5/70/66 36/68/66
f 5/70/36 3/72/36 37/71/36
f 3/72/67 35/74/67 39/73/67
f 35/74/68 34/67/68 38/69/68
f 35/75/69 3/92/69 1/14/69
f 1/14/70 2/18/70 35/75/70
