# Blender v2.91.0 OBJ File: 'uglyfish.blend'
# www.blender.org
o Cylinder
v 2.682067 1.723807 4.031919
v 11.301883 1.565035 6.678212
v 2.340617 -3.322733 4.956312
v 11.337459 -0.434532 7.104768
v 1.714050 -3.322732 6.731017
v 11.451346 -0.434532 7.988893
v 1.416399 1.723807 7.554258
v 11.484473 1.565036 8.446484
v 1.718599 6.770346 6.842155
v 11.347068 3.564603 8.175730
v 2.323637 6.770345 5.045450
v 11.391280 3.564603 7.290011
v 14.403102 1.565036 6.403842
v 14.450961 -0.106012 6.775391
v 14.546683 -0.106012 7.518489
v 14.594543 1.565036 7.890038
v 14.540503 3.236084 7.567759
v 14.454418 3.236084 6.821579
v -2.329560 0.975311 -0.007245
v -3.206229 -2.118986 1.500450
v -4.998112 -2.118986 4.528352
v -5.885707 0.975311 6.053834
v -4.993474 4.069607 4.562085
v -3.238178 4.069606 1.519910
v -7.697638 -0.000001 0.810561
v 18.961803 -2.374178 5.576348
v 17.007015 1.565036 5.669170
v 19.214134 -2.374178 7.535248
v 17.299637 1.565036 7.940840
v 19.371605 5.345479 7.514963
v 19.119274 5.345479 5.556065
v 4.247012 10.749131 6.721615
v 12.459635 5.289738 7.781160
v 4.315441 -3.084553 7.392442
v 4.607182 -3.084553 5.875081
v 1.732136 -3.322732 6.728944
v 2.379466 -3.322733 4.873817
v 4.333422 -3.084553 7.250925
v 4.608127 -3.084553 5.725279
v 5.349640 -5.632798 6.800505
vt 0.372143 0.472148
vt 0.258325 0.720793
vt 0.242460 0.386736
vt 0.938486 0.528774
vt 0.905700 0.292486
vt 0.929640 0.292486
vt 0.203802 0.721635
vt 0.105289 0.388938
vt 0.306368 0.829334
vt 0.262558 0.830351
vt 0.870744 0.639560
vt 0.846803 0.639560
vt 0.857904 0.590685
vt 0.578685 0.278296
vt 0.613955 0.613343
vt 0.478534 0.611220
vt 0.169546 0.150388
vt 0.256430 0.149534
vt 0.636952 0.169521
vt 0.632337 0.279114
vt 0.216987 0.831053
vt 0.907609 0.194789
vt 0.927731 0.194789
vt 0.858361 0.194789
vt 0.880392 0.294001
vt 0.860270 0.294001
vt 0.686048 0.280212
vt 0.681838 0.170439
vt 0.268107 0.000000
vt 0.335054 0.147203
vt 0.865811 0.194789
vt 0.938291 0.000000
vt 0.916289 0.194789
vt 0.793422 0.101177
vt 0.843809 0.341358
vt 0.749499 0.337643
vt 0.749499 0.616056
vt 0.623966 0.850736
vt 0.375218 0.383745
vt 0.541008 0.849806
vt 0.749499 0.618796
vt 0.796740 0.502900
vt 0.843981 0.618796
vt 0.707151 0.852771
vt 0.644178 0.999890
vt 0.781534 0.502900
vt 0.843809 0.463147
vt 0.954752 0.000000
vt 0.991336 0.126436
vt 0.938291 0.126436
vt 0.942721 0.419028
vt 1.000000 0.321878
vt 0.995765 0.419028
vt 0.896854 0.528774
vt 0.954132 0.625992
vt 0.901088 0.625992
vt 0.267392 0.924248
vt 0.640864 0.075648
vt 0.749499 0.009260
vt 0.592114 0.168838
vt 0.168996 1.000000
vt 0.843809 0.103162
vt 0.829081 0.000000
vt 0.375218 0.527636
vt 0.534033 0.238664
vt 0.000000 0.472521
vt 0.000000 0.000000
vt 0.000000 0.000000
vt 0.000000 0.000000
vt 0.000000 0.000000
vt 0.000000 0.000000
vt 0.000000 0.000000
vt 0.000000 0.000000
vt 0.000000 0.000000
vt 0.746827 0.527628
vt 0.938291 0.181252
vt 0.959108 0.126436
vt 0.979924 0.181252
vt 0.987690 0.321878
vt 0.938486 0.239353
vt 0.987690 0.194789
vt 0.938486 0.517826
vt 0.988328 0.419028
vt 0.988328 0.523040
vt 0.896854 0.590685
vt 0.846803 0.545461
vt 0.896854 0.463147
vt 0.310754 0.719577
vt 0.896854 0.528774
vt 0.882302 0.194789
vt 0.843809 0.000000
vt 0.896853 0.463147
vt 0.974874 0.000000
vt 0.938486 0.321878
vt 0.958367 0.528774
vt 0.375218 0.990468
vt 0.542486 0.000000
vt 0.158164 0.761249
vn -0.0893 -0.0872 0.9922
vn 0.3511 -0.9352 -0.0452
vn -0.0884 0.1444 0.9856
vn 0.1719 -0.2185 0.9606
vn 0.8440 -0.5347 0.0421
vn 0.3038 0.2083 -0.9297
vn -0.2236 0.4748 0.8512
vn -0.0842 0.2950 -0.9518
vn 0.1994 0.1449 0.9691
vn 0.1035 -0.9945 -0.0133
vn 0.1048 0.9944 -0.0121
vn -0.0798 -0.2185 -0.9726
vn -0.8315 -0.4186 0.3652
vn -0.1748 -0.9827 -0.0617
vn -0.3136 0.9322 -0.1809
vn 0.6334 -0.1807 -0.7524
vn -0.3347 -0.1709 0.9267
vn 0.2843 0.4901 -0.8240
vn -0.3864 -0.8935 -0.2287
vn -0.0608 -0.4232 -0.9040
vn -0.8958 0.3740 0.2400
vn -0.2068 0.3835 -0.9001
vn -0.6015 0.7196 -0.3470
vn -0.4011 0.9149 0.0463
vn -0.4366 -0.8979 0.0562
vn 0.8888 0.4438 -0.1145
vn 0.8661 -0.4873 -0.1116
vn -0.0183 -0.2165 0.9761
vn -0.3176 -0.1355 -0.9385
vn -0.2635 0.2416 -0.9339
vn -0.0497 0.1387 0.9891
vn -0.8153 0.5098 -0.2746
vn 0.2178 0.1401 -0.9659
vn -0.1049 0.0967 0.9898
vn 0.0889 -0.9960 0.0113
vn 0.0000 -1.0000 0.0000
vn -0.0878 0.9953 -0.0414
vn 0.2510 -0.1977 -0.9476
vn -0.9255 -0.3343 -0.1779
vn 0.2090 0.3010 -0.9304
vn -0.5268 -0.8305 -0.1808
vn -0.3862 0.2134 0.8974
vn -0.2282 -0.1698 0.9587
vn 0.0014 -0.2231 0.9748
vn 0.3547 -0.9325 0.0682
vn -0.0855 0.1279 0.9881
vn 0.1695 -0.2225 0.9601
vn 0.2872 0.2685 -0.9195
vn -0.3720 0.1515 0.9158
vn -0.1209 0.2442 -0.9621
vn 0.1728 0.1919 0.9661
vn 0.1033 0.9946 0.0052
vn -0.0862 -0.2093 -0.9740
vn -0.1479 -0.9851 -0.0875
vn -0.3686 0.9212 -0.1241
vn 0.3819 -0.4900 -0.7836
vn -0.1315 -0.4684 0.8737
vn 0.5969 0.1985 -0.7774
vn -0.3991 0.9154 0.0514
vn -0.4365 -0.8979 0.0562
vn -0.0694 -0.1355 0.9883
vn -0.2651 -0.2165 -0.9396
vn -0.3223 0.1521 -0.9344
vn -0.0184 0.1888 0.9818
vn 0.3116 0.2370 -0.9202
vn 0.0157 0.2133 0.9769
vn 0.0276 -0.9702 0.2408
vn -0.1060 0.9944 -0.0007
vn 0.3859 -0.1914 -0.9025
vn 0.2805 -0.2436 -0.9284
s off
f 34/1/1 8/2/1 7/3/1
f 34/4/2 4/5/2 6/6/2
f 7/3/3 10/7/3 9/8/3
f 8/2/4 15/9/4 16/10/4
f 10/11/5 12/12/5 33/13/5
f 12/14/6 1/15/6 11/16/6
f 7/3/7 23/17/7 22/18/7
f 12/14/8 13/19/8 2/20/8
f 8/2/9 17/21/9 10/7/9
f 6/6/10 14/22/10 15/23/10
f 12/24/11 17/25/11 18/26/11
f 4/27/12 13/19/12 14/28/12
f 22/18/13 25/29/13 21/30/13
f 5/31/14 20/32/14 3/33/14
f 9/34/15 24/35/15 23/36/15
f 3/37/16 19/38/16 1/15/16
f 7/3/17 21/30/17 5/39/17
f 11/16/18 19/38/18 24/40/18
f 21/41/19 25/42/19 20/43/19
f 20/44/20 25/45/20 19/38/20
f 23/17/21 25/29/21 22/18/21
f 19/38/22 25/45/22 24/40/22
f 24/35/23 25/46/23 23/36/23
f 17/25/24 31/47/24 18/26/24
f 15/48/25 26/49/25 28/50/25
f 26/51/26 29/52/26 28/53/26
f 29/54/27 31/55/27 30/56/27
f 15/9/28 29/57/28 16/10/28
f 14/28/29 27/58/29 26/59/29
f 18/60/30 27/58/30 13/19/30
f 17/21/31 29/57/31 30/61/31
f 11/62/32 9/34/32 32/63/32
f 12/14/33 32/64/33 33/65/33
f 10/7/34 32/66/34 9/8/34
f 34/67/35 36/68/35 38/69/35
f 3/70/36 36/68/36 5/71/36
f 35/72/37 37/73/37 3/70/37
f 35/72/36 38/69/36 39/74/36
f 2/20/38 4/27/38 35/75/38
f 35/76/39 40/77/39 34/78/39
f 5/79/40 34/80/40 40/81/40
f 3/82/41 40/83/41 36/84/41
f 40/85/42 35/86/42 3/87/42
f 7/3/43 5/39/43 34/1/43
f 34/1/44 6/88/44 8/2/44
f 34/4/45 35/89/45 4/5/45
f 7/3/46 8/2/46 10/7/46
f 8/2/47 6/88/47 15/9/47
f 12/14/48 2/20/48 1/15/48
f 7/3/49 9/8/49 23/17/49
f 12/14/50 18/60/50 13/19/50
f 8/2/51 16/10/51 17/21/51
f 6/6/10 4/5/10 14/22/10
f 12/24/52 10/90/52 17/25/52
f 4/27/53 2/20/53 13/19/53
f 5/31/54 21/91/54 20/32/54
f 9/34/55 11/62/55 24/35/55
f 3/37/56 20/44/56 19/38/56
f 7/3/57 22/18/57 21/30/57
f 11/16/58 1/15/58 19/38/58
f 17/25/59 30/92/59 31/47/59
f 15/48/60 14/93/60 26/49/60
f 26/51/26 27/94/26 29/52/26
f 29/54/27 27/95/27 31/55/27
f 15/9/61 28/96/61 29/57/61
f 14/28/62 13/19/62 27/58/62
f 18/60/63 31/97/63 27/58/63
f 17/21/64 16/10/64 29/57/64
f 12/14/65 11/16/65 32/64/65
f 10/7/66 33/98/66 32/66/66
f 34/67/67 5/71/67 36/68/67
f 3/70/36 37/73/36 36/68/36
f 35/72/68 39/74/68 37/73/68
f 35/72/36 34/67/36 38/69/36
f 35/75/69 3/37/69 1/15/69
f 1/15/70 2/20/70 35/75/70
