# Blender v2.91.0 OBJ File: 'uglyfish.blend'
# www.blender.org
o Cylinder
v 3.562038 1.723807 -7.846168
v 12.365464 1.565037 -2.775047
v 3.422505 -3.322732 -6.972776
v 12.106191 -0.434531 -2.403406
v 3.043635 -3.322731 -5.144604
v 11.575826 -0.434531 -1.686916
v 2.869692 1.723808 -4.145337
v 11.326388 1.565037 -1.329461
v 3.065378 6.770346 -5.215645
v 11.699471 3.564604 -1.863141
v 3.449667 6.770346 -7.023452
v 12.139462 3.564604 -2.613031
v 14.802583 1.565037 -0.785094
v 14.579700 -0.106011 -0.483994
v 14.133933 -0.106011 0.118210
v 13.911050 1.565037 0.419312
v 14.150646 3.236084 0.096326
v 14.590935 3.236084 -0.507089
v -3.337907 0.975311 -10.338409
v -3.426725 -2.118986 -8.574422
v -3.581141 -2.118985 -5.064037
v -3.666734 0.975311 -3.314707
v -3.592245 4.069607 -5.085852
v -3.409621 4.069607 -8.595170
v -7.715522 -0.000001 -6.957638
v 18.663387 -2.374178 1.776289
v 17.189377 1.565036 0.489009
v 17.488289 -2.374178 3.363771
v 15.826653 1.565037 2.329960
v 17.615902 5.345479 3.458232
v 18.791000 5.345479 1.870750
v 5.556682 10.749133 -5.654024
v 12.902552 5.289739 -1.750158
v 5.353826 -3.084551 -4.700721
v 5.986725 -3.084552 -6.099415
v 3.033518 -3.322731 -5.157110
v 3.377164 -3.322732 -6.886437
v 5.271173 -3.084552 -4.612052
v 5.970244 -3.084552 -5.995655
v 6.486518 -5.632797 -5.018302
vt 0.372143 0.472148
vt 0.258325 0.720793
vt 0.242460 0.386736
vt 0.929640 0.292486
vt 0.896854 0.528774
vt 0.905700 0.292486
vt 0.105289 0.388938
vt 0.310754 0.719577
vt 0.262558 0.830351
vt 0.870744 0.639560
vt 0.846803 0.639560
vt 0.857904 0.590685
vt 0.578685 0.278296
vt 0.613955 0.613343
vt 0.478534 0.611220
vt 0.169546 0.150388
vt 0.256430 0.149534
vt 0.632337 0.279114
vt 0.592114 0.168838
vt 0.636952 0.169521
vt 0.203802 0.721635
vt 0.216987 0.831053
vt 0.927731 0.194789
vt 0.858361 0.194789
vt 0.880392 0.294001
vt 0.860270 0.294001
vt 0.681838 0.170439
vt 0.686048 0.280212
vt 0.268107 0.000000
vt 0.335054 0.147203
vt 0.865811 0.194789
vt 0.938291 0.000000
vt 0.916289 0.194789
vt 0.793422 0.101177
vt 0.843809 0.341358
vt 0.749499 0.337643
vt 0.707151 0.852771
vt 0.623966 0.850736
vt 0.375218 0.383745
vt 0.541008 0.849806
vt 0.749499 0.618796
vt 0.796740 0.502900
vt 0.843981 0.618796
vt 0.644178 0.999890
vt 0.781534 0.502900
vt 0.896853 0.463147
vt 0.843809 0.463147
vt 0.974874 0.000000
vt 0.938291 0.126436
vt 0.954752 0.000000
vt 0.938486 0.321878
vt 0.995765 0.419028
vt 0.942721 0.419028
vt 0.901088 0.625992
vt 0.958367 0.528774
vt 0.954132 0.625992
vt 0.306368 0.829334
vt 0.267392 0.924248
vt 0.640864 0.075648
vt 0.749499 0.009260
vt 0.168996 1.000000
vt 0.843809 0.103162
vt 0.829081 0.000000
vt 0.375218 0.527636
vt 0.534033 0.238664
vt 0.000000 0.472521
vt 0.000000 0.000000
vt 0.000000 0.000000
vt 0.000000 0.000000
vt 0.000000 0.000000
vt 0.000000 0.000000
vt 0.000000 0.000000
vt 0.000000 0.000000
vt 0.000000 0.000000
vt 0.746827 0.527628
vt 0.938291 0.181252
vt 0.959108 0.126436
vt 0.979924 0.181252
vt 0.987690 0.321878
vt 0.938486 0.239353
vt 0.987690 0.194789
vt 0.938486 0.517826
vt 0.988328 0.419028
vt 0.988328 0.523040
vt 0.896854 0.590685
vt 0.846803 0.545461
vt 0.896854 0.463147
vt 0.938486 0.528774
vt 0.907609 0.194789
vt 0.882302 0.194789
vt 0.843809 0.000000
vt 0.749499 0.616056
vt 0.991336 0.126436
vt 1.000000 0.321878
vt 0.896854 0.528774
vt 0.375218 0.990468
vt 0.542486 0.000000
vt 0.158164 0.761249
vn -0.3091 -0.2652 0.9133
vn 0.2804 -0.9372 0.2076
vn -0.3054 0.2089 0.9290
vn -0.5475 -0.2130 0.8092
vn 0.7282 -0.5358 0.4273
vn 0.4911 0.1508 -0.8580
vn 0.0535 0.4951 0.8672
vn 0.6191 0.2046 -0.7582
vn -0.5878 0.2340 0.7745
vn 0.0839 -0.9945 0.0621
vn 0.0819 0.9948 0.0598
vn 0.6161 -0.2204 -0.7562
vn -0.5475 -0.4232 0.7219
vn -0.1652 -0.9857 -0.0342
vn -0.3762 0.9263 -0.0196
vn 0.3443 -0.4724 -0.8113
vn -0.0235 -0.1950 0.9805
vn 0.1592 0.1623 -0.9738
vn -0.4488 -0.8934 -0.0197
vn -0.4943 -0.4198 -0.7612
vn -0.6673 0.3820 0.6394
vn -0.6175 0.3752 -0.6913
vn -0.6937 0.7194 -0.0361
vn -0.3239 0.9152 -0.2398
vn -0.3538 -0.8979 -0.2619
vn 0.7203 0.4438 0.5332
vn 0.7019 -0.4873 0.5196
vn -0.6894 -0.2165 0.6912
vn 0.4211 -0.1355 -0.8968
vn 0.4612 0.2021 -0.8640
vn -0.7339 0.1496 0.6626
vn -0.8426 0.5079 -0.1791
vn 0.5546 0.1628 -0.8160
vn -0.2615 0.2660 0.9278
vn -0.0861 0.9930 -0.0803
vn 0.0000 1.0000 -0.0000
vn 0.0775 -0.9962 0.0407
vn 0.5726 -0.2210 -0.7895
vn -0.8590 -0.3334 -0.3887
vn 0.1658 0.1942 -0.9669
vn -0.5489 -0.8276 -0.1176
vn -0.3321 0.3124 0.8900
vn -0.1654 -0.1970 0.9663
vn -0.3536 -0.2072 0.9122
vn 0.3262 -0.9337 0.1476
vn -0.2496 0.2929 0.9230
vn -0.5437 -0.2185 0.8103
vn 0.4969 0.1257 -0.8587
vn -0.0660 0.2095 0.9756
vn 0.6560 0.1343 -0.7427
vn -0.5328 0.3096 0.7875
vn 0.0907 0.9945 0.0532
vn 0.6172 -0.2185 -0.7559
vn -0.1789 -0.9838 -0.0079
vn -0.3505 0.9336 -0.0745
vn 0.1954 -0.1725 -0.9654
vn 0.1646 -0.4820 0.8606
vn 0.2516 0.4795 -0.8407
vn -0.3261 0.9149 -0.2379
vn -0.7347 -0.1355 0.6647
vn 0.4597 -0.2165 -0.8613
vn 0.4327 0.1421 -0.8903
vn -0.6870 0.2316 0.6888
vn 0.4681 0.0556 -0.8819
vn -0.3508 0.1845 0.9181
vn 0.1206 -0.9879 -0.0975
vn 0.0878 -0.9960 0.0139
vn 0.0000 -1.0000 0.0000
vn 0.3318 -0.1698 -0.9279
vn 0.4973 -0.0636 -0.8653
s off
f 34/1/1 8/2/1 7/3/1
f 6/4/2 35/5/2 4/6/2
f 8/2/3 9/7/3 7/3/3
f 6/8/4 16/9/4 8/2/4
f 10/10/5 12/11/5 33/12/5
f 12/13/6 1/14/6 11/15/6
f 7/3/7 23/16/7 22/17/7
f 2/18/8 18/19/8 13/20/8
f 10/21/9 16/9/9 17/22/9
f 4/6/10 15/23/10 6/4/10
f 12/24/11 17/25/11 18/26/11
f 2/18/12 14/27/12 4/28/12
f 22/17/13 25/29/13 21/30/13
f 5/31/14 20/32/14 3/33/14
f 9/34/15 24/35/15 23/36/15
f 1/14/16 20/37/16 19/38/16
f 7/3/17 21/30/17 5/39/17
f 1/14/18 24/40/18 11/15/18
f 21/41/19 25/42/19 20/43/19
f 20/37/20 25/44/20 19/38/20
f 23/16/21 25/29/21 22/17/21
f 19/38/22 25/44/22 24/40/22
f 24/35/23 25/45/23 23/36/23
f 18/26/24 30/46/24 31/47/24
f 14/48/25 28/49/25 15/50/25
f 27/51/26 28/52/26 26/53/26
f 30/54/27 27/55/27 31/56/27
f 15/57/28 29/58/28 16/9/28
f 14/27/29 27/59/29 26/60/29
f 18/19/30 27/59/30 13/20/30
f 17/22/31 29/58/31 30/61/31
f 11/62/32 9/34/32 32/63/32
f 12/13/33 32/64/33 33/65/33
f 10/21/34 32/66/34 9/7/34
f 34/67/35 36/68/35 38/69/35
f 5/70/36 37/71/36 36/68/36
f 3/72/37 39/73/37 37/71/37
f 35/74/36 38/69/36 39/73/36
f 2/18/38 4/28/38 35/75/38
f 35/76/39 40/77/39 34/78/39
f 5/79/40 34/80/40 40/81/40
f 3/82/41 40/83/41 36/84/41
f 40/85/42 35/86/42 3/87/42
f 7/3/43 5/39/43 34/1/43
f 34/1/44 6/8/44 8/2/44
f 6/4/45 34/88/45 35/5/45
f 8/2/46 10/21/46 9/7/46
f 6/8/47 15/57/47 16/9/47
f 12/13/48 2/18/48 1/14/48
f 7/3/49 9/7/49 23/16/49
f 2/18/50 12/13/50 18/19/50
f 10/21/51 8/2/51 16/9/51
f 4/6/10 14/89/10 15/23/10
f 12/24/52 10/90/52 17/25/52
f 2/18/53 13/20/53 14/27/53
f 5/31/54 21/91/54 20/32/54
f 9/34/55 11/62/55 24/35/55
f 1/14/56 3/92/56 20/37/56
f 7/3/57 22/17/57 21/30/57
f 1/14/58 19/38/58 24/40/58
f 18/26/59 17/25/59 30/46/59
f 14/48/25 26/93/25 28/49/25
f 27/51/26 29/94/26 28/52/26
f 30/54/27 29/95/27 27/55/27
f 15/57/60 28/96/60 29/58/60
f 14/27/61 13/20/61 27/59/61
f 18/19/62 31/97/62 27/59/62
f 17/22/63 16/9/63 29/58/63
f 12/13/64 11/15/64 32/64/64
f 10/21/65 33/98/65 32/66/65
f 34/67/66 5/70/66 36/68/66
f 5/70/36 3/72/36 37/71/36
f 3/72/67 35/74/67 39/73/67
f 35/74/68 34/67/68 38/69/68
f 35/75/69 3/92/69 1/14/69
f 1/14/70 2/18/70 35/75/70
