# Blender v2.91.0 OBJ File: 'uglyfish.blend'
# www.blender.org
o Cylinder
v 1.561623 1.723807 -2.941815
v 11.026959 1.565039 -5.434899
v 1.905531 -3.322732 -2.077932
v 11.118749 -0.434529 -4.989858
v 2.606638 -3.322731 -0.339842
v 11.269139 -0.434529 -4.111205
v 2.959612 1.723808 0.551620
v 11.356467 1.565039 -3.686372
v 2.582605 6.770346 -0.402185
v 11.296948 3.564606 -4.190841
v 1.892636 6.770346 -2.127833
v 11.052688 3.564606 -5.043829
v 14.152747 1.565040 -5.817093
v 14.215949 -0.106008 -5.447844
v 14.342349 -0.106007 -4.709346
v 14.405551 1.565040 -4.340097
v 14.336720 3.236088 -4.741873
v 14.204790 3.236088 -5.476541
v -5.509551 0.975311 -1.630008
v -4.728734 -2.118986 -0.048439
v -3.160245 -2.118985 3.098078
v -2.382296 0.975311 4.670840
v -3.172975 4.069607 3.089947
v -4.726123 4.069607 -0.064826
v -7.702295 -0.000001 3.430379
v 18.673283 -2.374173 -6.832600
v 16.724014 1.565041 -6.658933
v 19.006493 -2.374172 -4.885826
v 17.110428 1.565041 -4.401324
v 19.162987 5.345484 -4.912612
v 18.829777 5.345484 -6.859385
v 4.382931 10.749132 -2.225303
v 12.227703 5.289741 -4.957895
v 4.863812 -3.084551 -1.466854
v 4.317538 -3.084552 -2.913841
v 2.608262 -3.322731 -0.330094
v 1.920032 -3.322732 -2.057370
v 4.895172 -3.084551 -1.388834
v 4.330758 -3.084552 -2.832613
v 5.438014 -5.632796 -2.512295
vt 0.372143 0.472148
vt 0.258325 0.720793
vt 0.242460 0.386736
vt 0.938486 0.528774
vt 0.905700 0.292486
vt 0.929640 0.292486
vt 0.203802 0.721635
vt 0.105289 0.388938
vt 0.306368 0.829334
vt 0.262558 0.830351
vt 0.870744 0.639560
vt 0.846803 0.639560
vt 0.857904 0.590685
vt 0.578685 0.278296
vt 0.613955 0.613343
vt 0.478534 0.611220
vt 0.256430 0.149534
vt 0.636952 0.169521
vt 0.632337 0.279114
vt 0.216987 0.831053
vt 0.907609 0.194789
vt 0.927731 0.194789
vt 0.882302 0.194789
vt 0.860270 0.294001
vt 0.858361 0.194789
vt 0.686048 0.280212
vt 0.681838 0.170439
vt 0.268107 0.000000
vt 0.335054 0.147203
vt 0.916289 0.194789
vt 0.843809 0.000000
vt 0.938291 0.000000
vt 0.843809 0.103162
vt 0.749499 0.337643
vt 0.793422 0.101177
vt 0.707151 0.852771
vt 0.623966 0.850736
vt 0.375218 0.383745
vt 0.541008 0.849806
vt 0.749499 0.618796
vt 0.796740 0.502900
vt 0.843981 0.618796
vt 0.644178 0.999890
vt 0.169546 0.150388
vt 0.843809 0.341358
vt 0.781534 0.502900
vt 0.880392 0.294001
vt 0.843809 0.463147
vt 0.954752 0.000000
vt 0.991336 0.126436
vt 0.938291 0.126436
vt 0.942721 0.419028
vt 1.000000 0.321878
vt 0.995765 0.419028
vt 0.896854 0.528774
vt 0.954132 0.625992
vt 0.901088 0.625992
vt 0.267392 0.924248
vt 0.640864 0.075648
vt 0.749499 0.009260
vt 0.592114 0.168838
vt 0.168996 1.000000
vt 0.829081 0.000000
vt 0.375218 0.527636
vt 0.534033 0.238664
vt 0.000000 0.472521
vt 0.000000 0.000000
vt 0.000000 0.000000
vt 0.000000 0.000000
vt 0.000000 0.000000
vt 0.000000 0.000000
vt 0.000000 0.000000
vt 0.000000 0.000000
vt 0.000000 0.000000
vt 0.746827 0.527628
vt 0.938291 0.181252
vt 0.959108 0.126436
vt 0.979924 0.181252
vt 0.987690 0.321878
vt 0.938486 0.239353
vt 0.987690 0.194789
vt 0.938486 0.517826
vt 0.988328 0.419028
vt 0.988328 0.523040
vt 0.896854 0.590685
vt 0.846803 0.545461
vt 0.896854 0.463147
vt 0.310754 0.719577
vt 0.896854 0.528774
vt 0.865811 0.194789
vt 0.749499 0.616056
vt 0.896853 0.463147
vt 0.974874 0.000000
vt 0.938486 0.321878
vt 0.958367 0.528774
vt 0.375218 0.990468
vt 0.542486 0.000000
vt 0.158164 0.761249
vn 0.4391 -0.1944 0.8772
vn 0.3598 -0.9310 -0.0616
vn 0.4512 0.1982 0.8701
vn 0.2046 -0.2186 0.9541
vn 0.8093 -0.5397 -0.2318
vn -0.2444 0.1700 -0.9547
vn 0.5821 0.1928 0.7899
vn -0.1191 0.1921 -0.9741
vn 0.1985 0.2453 0.9489
vn 0.1029 -0.9945 -0.0176
vn 0.0997 0.9946 -0.0286
vn -0.1200 -0.2185 -0.9684
vn -0.1316 -0.4227 0.8967
vn -0.1551 -0.9849 0.0773
vn -0.3498 0.9263 0.1399
vn -0.1118 -0.4745 -0.8731
vn 0.3672 -0.4932 0.7886
vn -0.3563 0.1715 -0.9185
vn -0.4021 -0.8934 0.2004
vn -0.8001 -0.4205 -0.4278
vn -0.2756 0.3806 0.8827
vn -0.8744 0.3763 -0.3063
vn -0.6232 0.7193 0.3068
vn -0.3962 0.9154 0.0712
vn -0.4338 -0.8979 0.0743
vn 0.8833 0.4438 -0.1512
vn 0.8607 -0.4873 -0.1473
vn 0.0221 -0.2165 0.9760
vn -0.3562 -0.1355 -0.9245
vn -0.3049 0.1993 -0.9313
vn -0.0307 0.1503 0.9882
vn -0.7996 0.5083 0.3197
vn -0.2045 0.1871 -0.9608
vn 0.4506 0.1953 0.8711
vn -0.0874 0.9956 0.0351
vn -0.0000 1.0000 0.0000
vn 0.0790 -0.9953 -0.0557
vn 0.0000 -1.0000 0.0000
vn -0.2047 -0.2216 -0.9534
vn -0.8814 -0.3351 0.3328
vn -0.4536 0.2489 -0.8558
vn -0.5173 -0.8301 0.2080
vn 0.2909 0.2724 0.9171
vn 0.4546 -0.1857 0.8711
vn 0.4447 -0.2047 0.8720
vn 0.3273 -0.9368 -0.1236
vn 0.4418 0.2318 0.8667
vn 0.2085 -0.2120 0.9548
vn -0.2471 0.1890 -0.9504
vn 0.2711 0.4920 0.8273
vn -0.1125 0.2018 -0.9729
vn 0.2037 0.2368 0.9500
vn 0.1041 0.9944 -0.0187
vn -0.1184 -0.2209 -0.9681
vn -0.1656 -0.9839 0.0668
vn -0.3291 0.9303 0.1620
vn -0.3176 -0.1810 -0.9308
vn 0.6164 -0.1786 0.7669
vn -0.2089 0.4830 -0.8503
vn -0.3975 0.9151 0.0680
vn -0.0284 -0.1355 0.9904
vn -0.3038 -0.2165 -0.9278
vn -0.3422 0.1414 -0.9289
vn 0.0220 0.2346 0.9719
vn -0.2566 0.1371 -0.9567
vn 0.4254 0.1660 0.8896
vn -0.0970 0.9952 0.0162
vn 0.0935 -0.9955 -0.0152
vn -0.3061 -0.1809 -0.9347
vn -0.2541 -0.1512 -0.9553
s off
f 34/1/1 8/2/1 7/3/1
f 34/4/2 4/5/2 6/6/2
f 7/3/3 10/7/3 9/8/3
f 8/2/4 15/9/4 16/10/4
f 10/11/5 12/12/5 33/13/5
f 12/14/6 1/15/6 11/16/6
f 9/8/7 22/17/7 7/3/7
f 12/14/8 13/18/8 2/19/8
f 8/2/9 17/20/9 10/7/9
f 6/6/10 14/21/10 15/22/10
f 10/23/11 18/24/11 12/25/11
f 4/26/12 13/18/12 14/27/12
f 22/17/13 25/28/13 21/29/13
f 3/30/14 21/31/14 20/32/14
f 11/33/15 23/34/15 9/35/15
f 1/15/16 20/36/16 19/37/16
f 5/38/17 22/17/17 21/29/17
f 1/15/18 24/39/18 11/16/18
f 21/40/19 25/41/19 20/42/19
f 20/36/20 25/43/20 19/37/20
f 23/44/21 25/28/21 22/17/21
f 19/37/22 25/43/22 24/39/22
f 24/45/23 25/46/23 23/34/23
f 17/47/24 31/48/24 18/24/24
f 15/49/25 26/50/25 28/51/25
f 26/52/26 29/53/26 28/54/26
f 29/55/27 31/56/27 30/57/27
f 15/9/28 29/58/28 16/10/28
f 14/27/29 27/59/29 26/60/29
f 18/61/30 27/59/30 13/18/30
f 17/20/31 29/58/31 30/62/31
f 11/33/32 9/35/32 32/63/32
f 12/14/33 32/64/33 33/65/33
f 10/7/34 32/66/34 9/8/34
f 34/67/35 36/68/35 38/69/35
f 5/70/36 37/71/36 36/68/36
f 35/72/37 37/71/37 3/73/37
f 35/72/38 38/69/38 39/74/38
f 2/19/39 4/26/39 35/75/39
f 35/76/40 40/77/40 34/78/40
f 5/79/41 34/80/41 40/81/41
f 3/82/42 40/83/42 36/84/42
f 40/85/43 35/86/43 3/87/43
f 7/3/44 5/38/44 34/1/44
f 34/1/45 6/88/45 8/2/45
f 34/4/46 35/89/46 4/5/46
f 7/3/47 8/2/47 10/7/47
f 8/2/48 6/88/48 15/9/48
f 12/14/49 2/19/49 1/15/49
f 9/8/50 23/44/50 22/17/50
f 12/14/51 18/61/51 13/18/51
f 8/2/52 16/10/52 17/20/52
f 6/6/10 4/5/10 14/21/10
f 10/23/53 17/47/53 18/24/53
f 4/26/54 2/19/54 13/18/54
f 3/30/55 5/90/55 21/31/55
f 11/33/56 24/45/56 23/34/56
f 1/15/57 3/91/57 20/36/57
f 5/38/58 7/3/58 22/17/58
f 1/15/59 19/37/59 24/39/59
f 17/47/60 30/92/60 31/48/60
f 15/49/25 14/93/25 26/50/25
f 26/52/26 27/94/26 29/53/26
f 29/55/27 27/95/27 31/56/27
f 15/9/61 28/96/61 29/58/61
f 14/27/62 13/18/62 27/59/62
f 18/61/63 31/97/63 27/59/63
f 17/20/64 16/10/64 29/58/64
f 12/14/65 11/16/65 32/64/65
f 10/7/66 33/98/66 32/66/66
f 34/67/67 5/70/67 36/68/67
f 5/70/38 3/73/38 37/71/38
f 35/72/68 39/74/68 37/71/68
f 35/72/36 34/67/36 38/69/36
f 35/75/69 3/91/69 1/15/69
f 1/15/70 2/19/70 35/75/70
