# Blender v2.91.0 OBJ File: 'uglyfish.blend'
# www.blender.org
o Cylinder
v 3.255415 1.723807 -3.795605
v 10.276607 1.565036 2.650842
v 2.760993 -3.322733 -3.039866
v 10.086549 -0.434532 3.038950
v 1.745431 -3.322732 -1.478111
v 9.723792 -0.434532 3.853232
v 1.197388 1.723807 -0.639860
v 9.519931 1.565036 4.261780
v 1.721161 6.770346 -1.423231
v 9.661283 3.564604 3.857499
v 2.739175 6.770346 -3.026367
v 10.116378 3.564604 3.104193
v 13.069245 1.565036 4.035438
v 12.916799 -0.106011 4.377636
v 12.611905 -0.106011 5.062032
v 12.459458 1.565037 5.404229
v 12.588409 3.236084 5.093588
v 12.901150 3.236084 4.410830
v -2.491289 0.975311 -8.669443
v -3.119859 -2.118986 -7.015447
v -4.330018 -2.118986 -3.721725
v -4.944942 0.975311 -2.089028
v -4.334862 4.069606 -3.762699
v -3.080709 4.069606 -7.038287
v -7.708446 -0.000001 -6.748646
v 17.392838 -2.374178 5.700682
v 15.675191 1.565037 4.762869
v 16.589100 -2.374178 7.504834
v 14.743127 1.565037 6.855084
v 16.734131 5.345479 7.569445
v 17.537868 5.345479 5.765292
v 4.145116 10.749131 -0.878715
v 10.852859 5.289738 4.020836
v 3.780381 -3.084552 -0.044805
v 4.694673 -3.084553 -1.294617
v 1.728652 -3.322732 -1.464093
v 2.728773 -3.322733 -2.967185
v 3.805036 -3.084552 -0.133179
v 4.757184 -3.084553 -1.356483
v 4.964525 -5.632798 -0.130019
vt 0.372143 0.472148
vt 0.258325 0.720793
vt 0.242460 0.386736
vt 0.929640 0.292486
vt 0.896854 0.528774
vt 0.905700 0.292486
vt 0.105289 0.388938
vt 0.310754 0.719577
vt 0.262558 0.830351
vt 0.870744 0.639560
vt 0.846803 0.639560
vt 0.857904 0.590685
vt 0.578685 0.278296
vt 0.613955 0.613343
vt 0.478534 0.611220
vt 0.169546 0.150388
vt 0.256430 0.149534
vt 0.632337 0.279114
vt 0.592114 0.168838
vt 0.636952 0.169521
vt 0.203802 0.721635
vt 0.216987 0.831053
vt 0.927731 0.194789
vt 0.858361 0.194789
vt 0.880392 0.294001
vt 0.860270 0.294001
vt 0.681838 0.170439
vt 0.686048 0.280212
vt 0.268107 0.000000
vt 0.335054 0.147203
vt 0.865811 0.194789
vt 0.938291 0.000000
vt 0.916289 0.194789
vt 0.793422 0.101177
vt 0.843809 0.341358
vt 0.749499 0.337643
vt 0.749499 0.616056
vt 0.623966 0.850736
vt 0.375218 0.383745
vt 0.541008 0.849806
vt 0.749499 0.618796
vt 0.796740 0.502900
vt 0.843981 0.618796
vt 0.707151 0.852771
vt 0.644178 0.999890
vt 0.781534 0.502900
vt 0.896853 0.463147
vt 0.843809 0.463147
vt 0.974874 0.000000
vt 0.938291 0.126436
vt 0.954752 0.000000
vt 0.938486 0.321878
vt 0.995765 0.419028
vt 0.942721 0.419028
vt 0.901088 0.625992
vt 0.958367 0.528774
vt 0.954132 0.625992
vt 0.306368 0.829334
vt 0.267392 0.924248
vt 0.640864 0.075648
vt 0.749499 0.009260
vt 0.168996 1.000000
vt 0.843809 0.103162
vt 0.829081 0.000000
vt 0.375218 0.527636
vt 0.534033 0.238664
vt 0.000000 0.472521
vt 0.000000 0.000000
vt 0.000000 0.000000
vt 0.000000 0.000000
vt 0.000000 0.000000
vt 0.000000 0.000000
vt 0.000000 0.000000
vt 0.000000 0.000000
vt 0.000000 0.000000
vt 0.746827 0.527628
vt 0.938291 0.181252
vt 0.959108 0.126436
vt 0.979924 0.181252
vt 0.987690 0.321878
vt 0.938486 0.239353
vt 0.987690 0.194789
vt 0.938486 0.517826
vt 0.988328 0.419028
vt 0.988328 0.523040
vt 0.896854 0.590685
vt 0.846803 0.545461
vt 0.896854 0.463147
vt 0.938486 0.528774
vt 0.907609 0.194789
vt 0.882302 0.194789
vt 0.843809 0.000000
vt 0.991336 0.126436
vt 1.000000 0.321878
vt 0.896854 0.528774
vt 0.375218 0.990468
vt 0.542486 0.000000
vt 0.158164 0.761249
vn -0.5029 -0.1651 0.8485
vn 0.3365 -0.9297 0.1499
vn -0.4963 0.1832 0.8486
vn -0.3532 -0.2217 0.9089
vn 0.7209 -0.5392 0.4355
vn 0.6736 0.1782 -0.7173
vn -0.2561 0.4985 0.8282
vn 0.4313 0.2388 -0.8700
vn -0.3625 0.1973 0.9109
vn 0.0953 -0.9945 0.0425
vn 0.0966 0.9943 0.0442
vn 0.4379 -0.2112 -0.8739
vn -0.7372 -0.4240 0.5260
vn -0.1402 -0.9859 -0.0912
vn -0.3587 0.9233 -0.1373
vn 0.6500 -0.1744 -0.7396
vn -0.3732 -0.1913 0.9078
vn 0.3300 0.4886 -0.8077
vn -0.4216 -0.8935 -0.1549
vn -0.2440 -0.4182 -0.8750
vn -0.8270 0.3848 0.4099
vn -0.3812 0.3733 -0.8458
vn -0.6484 0.7197 -0.2483
vn -0.3684 0.9151 -0.1641
vn -0.4021 -0.8979 -0.1791
vn 0.8186 0.4438 0.3647
vn 0.7977 -0.4873 0.3554
vn -0.5235 -0.2165 0.8240
vn 0.2171 -0.1355 -0.9667
vn 0.2612 0.2365 -0.9359
vn -0.5593 0.1401 0.8171
vn -0.7278 0.5066 -0.4622
vn 0.6484 0.1224 -0.7514
vn -0.4920 0.1833 0.8511
vn 0.0968 -0.9949 0.0270
vn -0.0000 1.0000 0.0000
vn 0.0865 -0.9955 0.0383
vn 0.6720 -0.2022 -0.7125
vn -0.7605 -0.3348 -0.5563
vn 0.5321 0.2741 -0.8011
vn -0.4665 -0.8300 -0.3056
vn -0.6654 0.2508 0.7030
vn -0.5495 -0.1946 0.8125
vn -0.4634 -0.2225 0.8578
vn 0.2823 -0.9368 0.2065
vn -0.4828 0.2062 0.8511
vn -0.3555 -0.2185 0.9088
vn 0.6630 0.2157 -0.7168
vn -0.4238 0.1817 0.8873
vn 0.4355 0.2321 -0.8698
vn -0.3542 0.2093 0.9114
vn 0.0889 0.9946 0.0537
vn 0.4335 -0.2186 -0.8743
vn -0.1715 -0.9832 -0.0630
vn -0.3015 0.9341 -0.1914
vn 0.4158 -0.4930 -0.7643
vn -0.1446 -0.4841 0.8630
vn 0.6225 0.1798 -0.7617
vn -0.3658 0.9155 -0.1675
vn -0.5735 -0.1355 0.8079
vn 0.2625 -0.2165 -0.9403
vn 0.2134 0.1508 -0.9653
vn -0.5260 0.1945 0.8279
vn 0.6704 0.1548 -0.7257
vn -0.4472 0.2270 0.8652
vn -0.0632 0.9951 -0.0757
vn -0.0000 -1.0000 -0.0000
vn -0.0642 0.9958 -0.0648
vn 0.6715 -0.1737 -0.7203
vn 0.6631 -0.1795 -0.7267
s off
f 34/1/1 8/2/1 7/3/1
f 6/4/2 35/5/2 4/6/2
f 8/2/3 9/7/3 7/3/3
f 6/8/4 16/9/4 8/2/4
f 10/10/5 12/11/5 33/12/5
f 12/13/6 1/14/6 11/15/6
f 7/3/7 23/16/7 22/17/7
f 2/18/8 18/19/8 13/20/8
f 10/21/9 16/9/9 17/22/9
f 4/6/10 15/23/10 6/4/10
f 12/24/11 17/25/11 18/26/11
f 2/18/12 14/27/12 4/28/12
f 22/17/13 25/29/13 21/30/13
f 5/31/14 20/32/14 3/33/14
f 9/34/15 24/35/15 23/36/15
f 3/37/16 19/38/16 1/14/16
f 7/3/17 21/30/17 5/39/17
f 11/15/18 19/38/18 24/40/18
f 21/41/19 25/42/19 20/43/19
f 20/44/20 25/45/20 19/38/20
f 23/16/21 25/29/21 22/17/21
f 19/38/22 25/45/22 24/40/22
f 24/35/23 25/46/23 23/36/23
f 18/26/24 30/47/24 31/48/24
f 14/49/25 28/50/25 15/51/25
f 27/52/26 28/53/26 26/54/26
f 30/55/27 27/56/27 31/57/27
f 15/58/28 29/59/28 16/9/28
f 14/27/29 27/60/29 26/61/29
f 18/19/30 27/60/30 13/20/30
f 17/22/31 29/59/31 30/62/31
f 11/63/32 9/34/32 32/64/32
f 12/13/33 32/65/33 33/66/33
f 10/21/34 32/67/34 9/7/34
f 34/68/35 36/69/35 38/70/35
f 5/71/36 37/72/36 36/69/36
f 3/73/37 39/74/37 37/72/37
f 35/75/36 38/70/36 39/74/36
f 2/18/38 4/28/38 35/76/38
f 35/77/39 40/78/39 34/79/39
f 5/80/40 34/81/40 40/82/40
f 3/83/41 40/84/41 36/85/41
f 40/86/42 35/87/42 3/88/42
f 7/3/43 5/39/43 34/1/43
f 34/1/44 6/8/44 8/2/44
f 6/4/45 34/89/45 35/5/45
f 8/2/46 10/21/46 9/7/46
f 6/8/47 15/58/47 16/9/47
f 12/13/48 2/18/48 1/14/48
f 7/3/49 9/7/49 23/16/49
f 2/18/50 12/13/50 18/19/50
f 10/21/51 8/2/51 16/9/51
f 4/6/10 14/90/10 15/23/10
f 12/24/52 10/91/52 17/25/52
f 2/18/53 13/20/53 14/27/53
f 5/31/54 21/92/54 20/32/54
f 9/34/55 11/63/55 24/35/55
f 3/37/56 20/44/56 19/38/56
f 7/3/57 22/17/57 21/30/57
f 11/15/58 1/14/58 19/38/58
f 18/26/59 17/25/59 30/47/59
f 14/49/25 26/93/25 28/50/25
f 27/52/26 29/94/26 28/53/26
f 30/55/27 29/95/27 27/56/27
f 15/58/60 28/96/60 29/59/60
f 14/27/61 13/20/61 27/60/61
f 18/19/62 31/97/62 27/60/62
f 17/22/63 16/9/63 29/59/63
f 12/13/64 11/15/64 32/65/64
f 10/21/65 33/98/65 32/67/65
f 34/68/66 5/71/66 36/69/66
f 5/71/67 3/73/67 37/72/67
f 3/73/68 35/75/68 39/74/68
f 35/75/67 34/68/67 38/70/67
f 35/76/69 3/37/69 1/14/69
f 1/14/70 2/18/70 35/76/70
